<?xml version="1.0" encoding="UTF-8"?>
<svg id="Capa_2" data-name="Capa 2" xmlns="http://www.w3.org/2000/svg" viewBox="0 0 493.41 852.39">
  <defs>
    <style>
      .cls-1, .cls-2 {
        fill: #c4b89d;
      }

      .cls-3 {
        fill: #3c342a;
      }

      .cls-2, .cls-4, .cls-5 {
        fill-rule: evenodd;
      }

      .cls-6, .cls-5 {
        fill: #d4a54b;
      }

      .cls-4, .cls-7 {
        fill: #d4a54a;
      }
    </style>
  </defs>
  <g id="Capa_1-2" data-name="Capa 1">
    <g>
      <path class="cls-5" d="M187.15,303.34c11.42,10.86,21.82-10.33,27.4-27.31,5.58-16.98,4.34-30.31-18.87-66.03-23.2-35.72-36.7-60.27,16.12-84.19,53.47-24.22,66.01-45.02,108.75-64.84,21.75-10.08,44.35-12.85,48.03-11.71,3.96,1.21-6.97,4.47-7.78,4.93-2.86,3.08-26.64,28.76-16.21,49.88,16.57,33.55,42.21,12.16,111.81,26.4,7.28,1.49,5.08,6.3,1.14,7.12-38.1,7.98-47.26,30.8-36.36,50.47,10.22,18.45,69.57,48.8,71.97,57.22,2.25,7.9-9.84-3.46-21.31-4.57-65.11-6.28-82.81,35.87-87.39,45.36-14.81,30.7,4.21,52.98,3.83,70.71-.22,10.63-9.7-6.46-10.18-7.34-5.97-10.77-31.64-33.14-42.25-37.98-26.54-12.09-3.87,24.6-3.81,45.71.04,12.75-15.61-27.7-33.12-21.33-23.07,8.38-32.57,26.32-25.78,59.27,3.18,15.45,9.27,40.57,17.97,74.06-36.18-33.16-41.57,12.1-96.41-82.02-103.23-177.18-18.97-94.67-7.55-83.81Z"/>
      <path class="cls-2" d="M429.58,181.45l-8.44,8.44s-58.37,6.69-69.3,54.4c-10.7,46.66.51,84.05.97,85.64-1.13-.7-44.16-27.08-64.28-18.17-19.96,8.79,9.61,43.97,10.86,45.45-1.48-.7-30.62-15.29-39.53-7.47-9.11,8.05-14.32,35.1-7.35,52.26,6.97,17.12,25.14,43.31,25.14,43.31l-125.96-75.41,13.97-80.04-88.6-104.44,18.17-30.74,74.94-81.6,41.09-45.64,33.7-17.55s-22.26,44.13-7.86,59.77c14.44,15.64,38.99,22.1,38.99,22.1,0,0,80.74-21.09,87.44-17.86,6.73,3.23,2.72,8.95,2.72,8.95,0,0-26.58,30.04-20.23,44.44,6.34,14.4,12.3,31.79,83.58,54.17Z"/>
      <path class="cls-1" d="M27.17,299.95s9.76-14.21,19.02-19.26c1.5-.82,3.12.93,2.25,2.4-1.96,3.31-4.02,7.57-2.31,8.51,2.27,1.24,11.97-3.67,18.9-5.48,1.75-.46,3.31,1.32,2.56,2.96-.83,1.81-1.17,3.78.75,4.45,3.88,1.38,32.61.16,34.39,3.44,1.78,3.27-4.27,4.98-4.19,6.46.08,1.48,13.03,11,13.19,12.53.16,1.53-3.3,1.69-1.96,3.16,1.33,1.47,11.41,7.94,11.1,10.35-.31,2.41-6.05-.58-5.68.69.37,1.28,12.32,12.69,12.01,15.04s-2.89.28-2.63,1.23c.26.95,3.37,8.57,3.37,8.57l-49.3-26.77-52.51-4.58,1.03-23.7Z"/>
      <path class="cls-4" d="M75.19,765.87c-8.23,23.15-2.09,31.47-.54,29.67.3-.34,3.68-21.7,9.96-27.76.84-.14-.03,2.18.08,2.77.46,2.45-.06,4.99.16,7.47,1.31,14.75,24.65,37.65,3.64,24.11-12.68-8.17,2.64,9.04,4.06,11.05,8.8,12.43-17.4,13.55,9.67,39.23-19.87,0-37.88-16.09-35.02-48.62.72-8.24-4.22,8.78-7.87,8.8-1.77-.03-5.3-42.37,15.84-46.71Z"/>
      <path class="cls-5" d="M208.63,496.64c-3.04-10.21-18.43-20.11-.41-37.18,5.88-5.58,9.63-8.05,13.88-16.37,1.78-3.49-.62-13.96.35-14.44,1.35-.67,5.51,10.3,3.37,18.16-3.7,13.55,15.66,6.84,35.18,36.05,29.21,43.7,10.17,105.79,3.18,119.17,1.47-10.31,29.28-103.86-35.83-134.14-10.18-4.73-20.16,13.93-18.91,22.23.55,3.62,1.23,3.71-.81,6.53Z"/>
      <path class="cls-5" d="M72.13,354.34c1.83-3.27,2.78-2.9,5.63-.53,8.82,7.33,11.89,28.15,12.1,29.04,3.09,10.89,5.67,41.97,45.43,53.73,19.59,5.79,23.84-19.67,34.87-20.23,19.08-1.95-15.03.29-17.58,32.29-85.28,1.55-61.73-76.67-80.46-94.3Z"/>
      <path class="cls-4" d="M194.97,532.59c-.27-1.91-.31-3.81-.12-5.72.08-.82.19-1.6.35-2.41.08-.47.19-.97.27-1.44.47-2.14,1.17-4.2,1.98-6.19.39-.9.78-1.75,1.21-2.61.47-1.01,1.01-1.95,1.52-2.88.35-.66.7-1.28,1.09-1.87.39-.62.74-1.17,1.09-1.71.23-.35.47-.66.66-.97.39-.54.74-1.09,1.13-1.56.08-.12.16-.23.19-.31.54-.74,1.05-1.4,1.52-1.95,1.01-1.25,1.75-2.1,2.1-2.49.66,4.98.86,4.79,2.8,9.26,3.97,9.11-12.57,21.13-15.8,22.84Z"/>
      <path class="cls-7" d="M78.96,352.25s0-.02,0-.03c0,0,0,0,0,0v.03Z"/>
      <path class="cls-7" d="M171.62,547.84c-.31,1.6-.62,3.31-.93,5.14-.19.27-.39.54-.54.78.58-2.33,1.05-4.24,1.48-5.91Z"/>
      <g>
        <path class="cls-6" d="M40.3,334.27c.23.46.5.86.91,1.27,1.4,1.4,4.21,2.41,4.36.81.16-1.6-6.09-9.13-7.4-8.11.09.25.16.45.24.67,1.04,2.86,1.36,4.31,1.88,5.35Z"/>
        <path class="cls-6" d="M58.9,335.34c.41-.41.68-.81.91-1.27.52-1.04.84-2.49,1.88-5.35.08-.23.15-.43.24-.67-1.3-1.02-7.56,6.51-7.4,8.11.16,1.6,2.97.58,4.36-.81Z"/>
        <path class="cls-6" d="M56.08,378.49c1.37,0,2.31-1.49,2.64-4.86l10.74-9.36c-.13-2.05-.17-3.65.28-5.67.83-.42.24,1.28.92.88,3.13-1.88,6.92-3.05,7.28-8.3.07-1.08.44-1.96,1.43-1.72,2.52.53,2.19-1.44,2.18-3.2-.01-1.02.06-2.07-.09-3.1-.29-2.12.79-1.35,1.63-1.13,0-.04-.01-.07-.02-.1,0,.01.02.03.02.04,1.84-.62,1.08-2.05.79-3.4-.47-2.05-1.85-3.45-2.52-5.36,2.13-2.73,5.25-2.05,7.72.47,2.16,2.2,3.76,4.99,5.35,3.66,4.35-3.63-10.51-13.44-11.64-14.19-.6-.39-1.05-.72-1.41-1.03,4.49-4.26,9.75-8.43,12.52-11.37,3.58-3.79-1.5-1.47-6.64-1.32-3.49.11-6.48.72-9.14,1.82,0,0,0,0,0,0-3.4,1.78-5.4,4.73-6.62,8.14-1.72,4.81-1.89,10.53-2.25,15.25-.41,5.26-1.06,9.28-4.39,9.28.02-.17.04-.33.06-.5-.07.2-.14.39-.22.58.15-3.55.23-7.03.06-8.39-.03-.22-.06-.38-.1-.48-.08-.2-.29-.01-.58.43-1.67,2.53-6.23,14.28-6.66,19.78,0,.03-.01.08-.02.11,0,.02,0,.05,0,.07,0,.08,0,.15,0,.23-.02.55-.04,1.07-.06,1.56v.02s0,0,0,0c-.2,4.5-.5,6.95-.5,12.06,0,1.74-.71,2.56-3.98,2.83v-2.22s3.75-5.2.43-5.2-1.49,5.2-1.49,5.2l.25,2.28c-.41.02-.9.03-1.38.03-.07,0-.14,0-.21,0-.06,0-.12,0-.17,0-.12,0-.23,0-.37,0-.01,0-.02,0-.03,0v.19c-.06,0-.11,0-.17,0-.07,0-.14,0-.21,0-.49,0-.97-.01-1.38-.03l.25-2.28s1.83-5.2-1.49-5.2.43,5.2.43,5.2v2.22c-3.28-.27-3.98-1.09-3.98-2.83,0-5.11-.29-7.56-.5-12.06,0,0,0,0,0,0v-.02c-.02-.49-.04-1.01-.06-1.56,0-.08,0-.15,0-.23,0-.02,0-.05,0-.07,0-.04,0-.08-.02-.11-.43-5.51-4.99-17.25-6.66-19.78-.29-.44-.5-.63-.58-.43-.04.1-.07.27-.1.48-.17,1.36-.09,4.84.06,8.39-.07-.19-.15-.38-.22-.58.02.17.04.33.06.5-3.33,0-3.99-4.01-4.39-9.28-.37-4.72-.54-10.44-2.25-15.25-1.22-3.41-3.21-6.36-6.62-8.14,0,0,0,0,0,0-2.66-1.1-5.65-1.72-9.14-1.82-5.14-.16-10.22-2.47-6.64,1.32,2.77,2.94,8.03,7.11,12.52,11.37-.37.31-.82.64-1.41,1.03-1.13.75-15.99,10.56-11.64,14.19,1.59,1.33,3.19-1.46,5.35-3.66,2.47-2.51,5.59-3.2,7.72-.47-.67,1.9-2.06,3.3-2.52,5.36-.29,1.35-1.05,2.78.79,3.4,0-.01.02-.03.02-.04,0,.03-.01.07-.02.1.84-.23,1.92-1,1.63,1.13-.15,1.03-.08,2.08-.09,3.1-.01,1.77-.34,3.73,2.18,3.2.99-.24,1.36.64,1.43,1.72.36,5.25,4.15,6.42,7.28,8.3.67.4.09-1.31.92-.88.45,2.02.41,3.62.28,5.67l10.74,9.36c.33,3.37,1.27,4.86,2.64,4.86s3.57.12,5.72,0c.14,0,.33.01.5.02l5.82-.22Z"/>
      </g>
      <path class="cls-5" d="M187.15,303.34c11.42,10.86,21.82-10.33,27.4-27.31,5.58-16.98,4.34-30.31-18.87-66.03-23.2-35.72-36.7-60.27,16.12-84.19,53.47-24.22,66.01-45.02,108.75-64.84,21.75-10.08,44.35-12.85,48.03-11.71,3.96,1.21-6.97,4.47-7.78,4.93-2.86,3.08-26.64,28.76-16.21,49.88,16.57,33.55,42.21,12.16,111.81,26.4,7.28,1.49,5.08,6.3,1.14,7.12-38.1,7.98-47.26,30.8-36.36,50.47,10.22,18.45,69.57,48.8,71.97,57.22,2.25,7.9-9.84-3.46-21.31-4.57-65.11-6.28-82.81,35.87-87.39,45.36-14.81,30.7,4.21,52.98,3.83,70.71-.22,10.63-9.7-6.46-10.18-7.34-5.97-10.77-31.64-33.14-42.25-37.98-26.54-12.09-3.87,24.6-3.81,45.71.04,12.75-15.61-27.7-33.12-21.33-23.07,8.38-32.57,26.32-25.78,59.27,3.18,15.45,9.27,40.57,17.97,74.06q-63.17-61.48-96.41-82.02c4.92-18.03-18.97-94.67-7.55-83.81Z"/>
      <path class="cls-2" d="M429.58,181.45l-8.44,8.44s-58.37,6.69-69.3,54.4c-10.7,46.66.51,84.05.97,85.64-1.13-.7-44.16-27.08-64.28-18.17-19.96,8.79,9.61,43.97,10.86,45.45-1.48-.7-30.62-15.29-39.53-7.47-9.11,8.05-14.32,35.1-7.35,52.26,6.97,17.12,25.14,43.31,25.14,43.31l-125.96-75.41,13.97-80.04-88.6-104.44,18.17-30.74,74.94-81.6,41.09-45.64,33.7-17.55s-22.26,44.13-7.86,59.77c14.44,15.64,38.99,22.1,38.99,22.1,0,0,80.74-21.09,87.44-17.86,6.73,3.23,2.72,8.95,2.72,8.95,0,0-26.58,30.04-20.23,44.44,6.34,14.4,12.3,31.79,83.58,54.17Z"/>
      <path class="cls-1" d="M27.17,299.95s9.76-14.21,19.02-19.26c1.5-.82,3.12.93,2.25,2.4-1.96,3.31-4.02,7.57-2.31,8.51,2.27,1.24,11.97-3.67,18.9-5.48,1.75-.46,3.31,1.32,2.56,2.96-.83,1.81-1.17,3.78.75,4.45,3.88,1.38,32.61.16,34.39,3.44,1.78,3.27-4.27,4.98-4.19,6.46.08,1.48,13.03,11,13.19,12.53.16,1.53-3.3,1.69-1.96,3.16,1.33,1.47,11.41,7.94,11.1,10.35-.31,2.41-6.05-.58-5.68.69.37,1.28,12.32,12.69,12.01,15.04s-2.89.28-2.63,1.23c.26.95,3.37,8.57,3.37,8.57l-49.3-26.77-52.51-4.58,1.03-23.7Z"/>
      <path class="cls-4" d="M75.19,765.87c-8.23,23.15-2.09,31.47-.54,29.67.3-.34,3.68-21.7,9.96-27.76.84-.14-.03,2.18.08,2.77.46,2.45-.06,4.99.16,7.47,1.31,14.75,24.65,37.65,3.64,24.11-12.68-8.17,2.64,9.04,4.06,11.05,8.8,12.43-17.4,13.55,9.67,39.23-19.87,0-37.88-16.09-35.02-48.62.72-8.24-4.22,8.78-7.87,8.8-1.77-.03-5.3-42.37,15.84-46.71Z"/>
      <path class="cls-4" d="M194.97,532.59c-.27-1.91-.31-3.81-.12-5.72.08-.82.19-1.6.35-2.41.08-.47.19-.97.27-1.44.47-2.14,1.17-4.2,1.98-6.19.39-.9.78-1.75,1.21-2.61.47-1.01,1.01-1.95,1.52-2.88.35-.66.7-1.28,1.09-1.87.39-.62.74-1.17,1.09-1.71.23-.35.47-.66.66-.97.39-.54.74-1.09,1.13-1.56.08-.12.16-.23.19-.31.54-.74,1.05-1.4,1.52-1.95,1.01-1.25,1.75-2.1,2.1-2.49.66,4.98.86,4.79,2.8,9.26,3.97,9.11-12.57,21.13-15.8,22.84Z"/>
      <path class="cls-7" d="M78.96,352.25s0-.02,0-.03c0,0,0,0,0,0v.03Z"/>
      <path class="cls-7" d="M171.62,547.84c-.31,1.6-.62,3.31-.93,5.14-.19.27-.39.54-.54.78.58-2.33,1.05-4.24,1.48-5.91Z"/>
      <g>
        <path class="cls-3" d="M462.75,189.9c-5.38-9.07-83.76-26.17-101.32-44.5-18.71-19.54-15.06-48.91,26.83-69.89,4.32-2.17,5.41-8.44-3.52-7.94-85.37,4.79-108.64,37.54-138.22,3.59-18.63-21.38,1.18-58.56,3.55-63.02.8-.79,12.52-7.93,7.54-8.13-4.63-.19-30.08,9.96-52.3,28.37-43.66,36.19-51.87,64.24-106.66,108.84-54.13,44.05-30.88,68.48,7.08,102.92,37.96,34.45,43.5,49.58,42.22,71.05-1.28,21.47-18.21,48.29-23.5,40.2-2.26-3.46-4.28-15.72-25.21-33.15-6.62-5.51-12.68-8.6-17.88-10.25,8.89-11.05-10.85-14.14,18.75-32.28-1.95-5.85-12.78-1.33-23.32,7.19-5.16,4.18-3.61,13.53-4.01,15.13-.68,2.76-2.76,4.55-5.17,5.72-.37-.68-.78-1.14-1.22-1.14-1.82,0-1.2,1.9-3.87,1.9-1.59,0-2.81-2.71-3.54-4.9-.26-.78-1.34-.81-1.65-.04-.8,2.01-2.1,4.42-3.75,4.42-.17,0-.29-.02-.44-.03-1.01-.9-1.8-2.76-2.33-4.35-.15-.46-.57-.62-.97-.56v.25c-.25.07-.47.2-.57.5-.53,1.6-1.32,3.46-2.33,4.36-.15,0-.26.03-.44.03-1.65,0-2.95-2.41-3.75-4.42-.31-.77-1.39-.74-1.65.04-.73,2.19-1.95,4.9-3.54,4.9-2.67,0-2.05-1.9-3.87-1.9-.44,0-.85.46-1.22,1.14-2.41-1.17-4.5-2.96-5.17-5.72-.39-1.6,1.16-10.95-4.01-15.13-10.54-8.52-21.37-13.04-23.32-7.19,32.35,19.82,5.76,21.67,22,35.57,0,0,0,0,0,0,3.4,1.78,5.4,4.73,6.62,8.14,1.72,4.81,1.89,10.53,2.25,15.25.41,5.26,1.06,9.28,4.39,9.28-.02-.17-.04-.33-.06-.5.07.2.14.39.22.58-.15-3.55-.23-7.03-.06-8.39.03-.22.06-.38.1-.48.08-.2.29-.01.58.43,1.67,2.53,6.23,14.28,6.66,19.78,0,.03.01.08.02.11,0,.02,0,.05,0,.07,0,.08,0,.15,0,.23.02.55.04,1.07.06,1.56v.02s0,0,0,0c.2,4.5.5,6.95.5,12.06,0,1.74.71,2.56,3.98,2.83v-2.22s-3.75-5.2-.43-5.2,1.49,5.2,1.49,5.2l-.25,2.28c.41.02.9.03,1.38.03.07,0,.14,0,.21,0,.06,0,.12,0,.17,0v-.19s.02,0,.03,0c.14,0,.25,0,.37,0,.06,0,.11,0,.17,0,.07,0,.14,0,.21,0,.49,0,.97-.01,1.38-.03l-.25-2.28s-1.83-5.2,1.49-5.2-.43,5.2-.43,5.2v2.22c3.28-.27,3.98-1.09,3.98-2.83,0-5.11.29-7.56.5-12.06,0,0,0,0,0,0v-.02c.02-.49.04-1.01.06-1.56,0-.08,0-.15,0-.23,0-.02,0-.05,0-.07,0-.04,0-.08.02-.11.37-4.76,3.83-14.17,5.83-18.27l.16,12.01c1.83-3.27,11.48,2.37,14.36,4.75,8.79,7.32,11.87,28.13,12.1,29.03,3.07,10.9,5.64,41.99,45.41,53.74l16.06,3.15c.81.03-2.17,1.48,1.26,8.91-2.3,31.13,15.21,40.58,23.11,52.61.12.19.27.39.39.62.27.47.54.93.82,1.4.27.51.51.97.7,1.44.23.43.43.9.58,1.4.16.31.23.66.35,1.01.04.08.04.16.08.27l1.09-1.67c.08.16.24.3.27.47.44,2.46.6,4.07.73,6.77.15,3.21-.38,6.46-1.27,9.53-.04,0-.04.04-.04.04-.27.97-.58,1.98-.89,2.96l-.04.19c-.35,1.05-.66,2.06-1.05,3.11-.47,1.28-.93,2.57-1.44,3.81h-.04c-.12.43-.31.82-.47,1.25-.86,2.18-1.56,4.16-2.1,6.11-.04.27-.12.51-.16.74-.39,2.22-.86,4.16-1.48,6.54l-.12.58c-.43,1.67-.89,3.58-1.48,5.91.16-.23.35-.51.54-.78-.27,1.36-.54,2.8-.86,4.36-.31,3.42.43,8.76.86,12.22,0,.08.04.23.08.27,4.4,3.46,6.23,9.73,12.22,11.48.82.23,1.63.39,2.37.39.93-.04,1.83-.19,2.69-.51.12-.04.23-.08.35-.16,1.4-.66,2.49-1.95,3.23-3.74.62-1.6,1.87-2.92,2.02-5.06-3,1.32-5.76,3.42-8.83,1.87-3.15-1.63-6.38-3.42-8.44-7.04,2.37-.39,3.58,1.21,4.75,2.26,3.81,3.58,7.74,2.92,11.98,1.09,1.21-.54,1.56-3.03,3.58-1.67.08,1.67-.12,3.19-.58,4.63,5.21-10.12,3.81-24.48-5.49-13.93-.78.86-8.6-4.09,1.17-8.25,6.5-2.72.97-6.89,3.19-18.6-.27-1.91-.31-3.81-.12-5.72.08-.82.19-1.6.35-2.41.08-.47.19-.97.27-1.44.47-2.14,1.17-4.2,1.98-6.19.39-.9.78-1.75,1.21-2.61.47-1.01,1.01-1.95,1.52-2.88.35-.66.7-1.28,1.09-1.87.39-.62.74-1.17,1.09-1.71.23-.35.47-.66.66-.97.39-.54.74-1.09,1.13-1.56.08-.12.16-.23.19-.31.54-.74,1.05-1.4,1.52-1.95,1.01-1.25,1.75-2.1,2.1-2.49.23-1.28.43-2.57.66-3.85-3.03-10.19-18.44-20.08-.43-37.16,5.91-5.6,8.02-4.47,13.89-16.38,1.91-3.85,4.86-.47,3.74,3.7-5.1,18.52,15.64,6.85,35.18,36.07,29.18,43.7,10.16,105.8,3.19,119.15-13.39,25.53-30.43,104.63-95.92,110.9-37.94,3.66-66.54,2.88-93.08,52.96-2.84,2.6-2.46,4.34-4.2,11.85-4.25,18.35,2.33,19.36,3.66,17.8.27-.31,3.97-20.39,8.6-26.03,7.82-8.25,7.32-35.29,77.51-39.5,69.3-4.12,78.99-21.44,113.93-106.23,25.68-62.41,52.88-97.2,4.01-177.17-.4-.7-.91-1.55-1.52-2.5-3.74-9.48-35.74-73.19-12.68-89.19,18.42-12.78,49.05,29.49,45.09,14.66-6.55-24.55-44.19-60.29-9.6-54.36,13.83,2.37,50.57,20.53,60.83,31.23.84.87,17.1,17.85,14.1,5.41-5.01-20.75-33.98-40.84-26.16-81.11,2.41-12.45,10.07-66.94,87.78-79.61,13.7-2.23,31.25,7.27,26.21-1.23ZM41.21,335.54c-.41-.41-.68-.81-.91-1.27-.52-1.04-.84-2.49-1.88-5.35-.08-.23-.15-.43-.24-.67,1.3-1.02,7.56,6.51,7.4,8.11-.16,1.6-2.97.58-4.36-.81ZM61.69,328.72c-1.04,2.86-1.36,4.31-1.88,5.35-.23.46-.5.86-.91,1.27-1.4,1.4-4.21,2.41-4.36.81s6.09-9.13,7.4-8.11c-.09.25-.16.45-.24.67ZM362.68,79.36c-11.6,9.69-17.07,10.41-19.28,23.67-1.51,9.06-1.82,12.95-2.16,19.05-1.68,29.95,32.83,43.15,42.18,46.17-107.24-15.33-109.15-4.08-253.7,15.84-7.39,1.01,7.89-4.83,31.16-18.06,144.58-82,144.67-77.22,202.48-87.39-.14.21-.34.44-.67.72ZM88.05,185.63c-4.86-23.87,34.66-46.25,69.4-87.38,10.09-11.95,43.65-66.84,79.91-83.03-22.69,51.08.66,75.68,35.63,78.99-42.24,16.35-109.13,58.91-124.38,66.69-5.73,2.91-10.94,5.54-15.7,7.92-.28.14-32.05,15.78-44.87,16.81ZM245.77,392.09c5.99,14.89,15.44,29.92,22.47,40.11-6.83-7.98-17.02-18.05-31.53-28.64-27.13-19.78-67.11-27.71-67.11-27.71-9.32-10.78-4.45-24.94-1.26-42.11,0,0,0,0,0,0,0-.03,0-.05.01-.08.55-2.99,1.05-6.07,1.42-9.24,2.36-15.04,3.77-22.28,3.77-22.28,13.57,14.64,39.24,60.6,42.22,82.71,0,0,2.73-20.37-13.4-55.39-18.31-39.74-26.59-48.93-43.98-72.77-13.53-18.55-45.54-38.6-59.09-46.59-2.45-3.28-3.83-5.83-3.69-7.36,4.42,1.88,13.77,4.53,32.35,8.25,60.91,26.8,125.58,107.86,154.07,133.38-24.42-8.84-46.76,21.63-36.26,47.72ZM276.86,323.44c.27,3.75,1.59,7.23,3.2,10.28-27-31.52-85.26-95.62-135.86-124.73,31.76,6.69,74.88,18.61,111.39,39.54,29.84,17.1,72.2,54.09,85.87,72.17-.35-.2-.71-.41-1.15-.65-1.59-.44-66.05-32.83-63.45,3.39ZM343.87,311.45c-14.83-19.76-39.1-36.65-42.72-39.93-10.7-9.53-67.08-59.96-161.95-76.46-9.88-1.71,4.16-2.18,93.97-16.69,92.78-14.98,152.85.76,178.06,5.99-21.05,9.4-92.67,40.22-67.37,127.09Z"/>
        <g>
          <path class="cls-6" d="M40.3,334.27c.23.46.5.86.91,1.27,1.4,1.4,4.21,2.41,4.36.81.16-1.6-6.09-9.13-7.4-8.11.09.25.16.45.24.67,1.04,2.86,1.36,4.31,1.88,5.35Z"/>
          <path class="cls-6" d="M58.9,335.34c.41-.41.68-.81.91-1.27.52-1.04.84-2.49,1.88-5.35.08-.23.15-.43.24-.67-1.3-1.02-7.56,6.51-7.4,8.11.16,1.6,2.97.58,4.36-.81Z"/>
          <path class="cls-6" d="M56.08,378.49c1.37,0,2.31-1.49,2.64-4.86l10.74-9.36c-.13-2.05-.17-3.65.28-5.67.83-.42.24,1.28.92.88,3.13-1.88,6.92-3.05,7.28-8.3.07-1.08.44-1.96,1.43-1.72,2.52.53,2.19-1.44,2.18-3.2-.01-1.02.06-2.07-.09-3.1-.29-2.12.79-1.35,1.63-1.13,0-.04-.01-.07-.02-.1,0,.01.02.03.02.04,1.84-.62,1.08-2.05.79-3.4-.47-2.05-1.85-3.45-2.52-5.36,2.13-2.73,5.25-2.05,7.72.47,2.16,2.2,3.76,4.99,5.35,3.66,4.35-3.63-10.51-13.44-11.64-14.19-.6-.39-1.05-.72-1.41-1.03,4.49-4.26,9.75-8.43,12.52-11.37,3.58-3.79-1.5-1.47-6.64-1.32-3.49.11-6.48.72-9.14,1.82,0,0,0,0,0,0-3.4,1.78-5.4,4.73-6.62,8.14-1.72,4.81-1.89,10.53-2.25,15.25-.41,5.26-1.06,9.28-4.39,9.28.02-.17.04-.33.06-.5-.07.2-.14.39-.22.58.15-3.55.23-7.03.06-8.39-.03-.22-.06-.38-.1-.48-.08-.2-.29-.01-.58.43-1.67,2.53-6.23,14.28-6.66,19.78,0,.03-.01.08-.02.11,0,.02,0,.05,0,.07,0,.08,0,.15,0,.23-.02.55-.04,1.07-.06,1.56v.02s0,0,0,0c-.2,4.5-.5,6.95-.5,12.06,0,1.74-.71,2.56-3.98,2.83v-2.22s3.75-5.2.43-5.2-1.49,5.2-1.49,5.2l.25,2.28c-.41.02-.9.03-1.38.03-.07,0-.14,0-.21,0-.06,0-.12,0-.17,0-.12,0-.23,0-.37,0-.01,0-.02,0-.03,0v.19c-.06,0-.11,0-.17,0-.07,0-.14,0-.21,0-.49,0-.97-.01-1.38-.03l.25-2.28s1.83-5.2-1.49-5.2.43,5.2.43,5.2v2.22c-3.28-.27-3.98-1.09-3.98-2.83,0-5.11-.29-7.56-.5-12.06,0,0,0,0,0,0v-.02c-.02-.49-.04-1.01-.06-1.56,0-.08,0-.15,0-.23,0-.02,0-.05,0-.07,0-.04,0-.08-.02-.11-.43-5.51-4.99-17.25-6.66-19.78-.29-.44-.5-.63-.58-.43-.04.1-.07.27-.1.48-.17,1.36-.09,4.84.06,8.39-.07-.19-.15-.38-.22-.58.02.17.04.33.06.5-3.33,0-3.99-4.01-4.39-9.28-.37-4.72-.54-10.44-2.25-15.25-1.22-3.41-3.21-6.36-6.62-8.14,0,0,0,0,0,0-2.66-1.1-5.65-1.72-9.14-1.82-5.14-.16-10.22-2.47-6.64,1.32,2.77,2.94,8.03,7.11,12.52,11.37-.37.31-.82.64-1.41,1.03-1.13.75-15.99,10.56-11.64,14.19,1.59,1.33,3.19-1.46,5.35-3.66,2.47-2.51,5.59-3.2,7.72-.47-.67,1.9-2.06,3.3-2.52,5.36-.29,1.35-1.05,2.78.79,3.4,0-.01.02-.03.02-.04,0,.03-.01.07-.02.1.84-.23,1.92-1,1.63,1.13-.15,1.03-.08,2.08-.09,3.1-.01,1.77-.34,3.73,2.18,3.2.99-.24,1.36.64,1.43,1.72.36,5.25,4.15,6.42,7.28,8.3.67.4.09-1.31.92-.88.45,2.02.41,3.62.28,5.67l10.74,9.36c.33,3.37,1.27,4.86,2.64,4.86s3.57.12,5.72,0c.14,0,.33.01.5.02l5.82-.22Z"/>
        </g>
      </g>
      <path class="cls-5" d="M208.63,496.64c-3.04-10.21-18.43-20.11-.41-37.18,5.88-5.58,9.63-8.05,13.88-16.37,1.78-3.49-.62-13.96.35-14.44,1.35-.67,5.51,10.3,3.37,18.16-3.7,13.55,15.66,6.84,35.18,36.05,29.21,43.7,10.17,105.79,3.18,119.17,1.47-10.31,29.28-103.86-35.83-134.14-10.18-4.73-20.16,13.93-18.91,22.23.55,3.62,1.23,3.71-.81,6.53Z"/>
      <path class="cls-5" d="M72.13,354.34c1.83-3.27,2.78-2.9,5.63-.53,8.82,7.33,11.89,28.15,12.1,29.04,3.09,10.89,5.67,41.97,45.43,53.73,19.59,5.79,23.84-19.67,34.87-20.23,19.08-1.95-15.03.29-17.58,32.29-85.28,1.55-61.73-76.67-80.46-94.3Z"/>
      <path class="cls-7" d="M193.1,570.41c-4.24,1.83-8.17,2.49-11.98-1.09-1.17-1.05-2.37-2.65-4.75-2.26,2.06,3.62,5.29,5.41,8.44,7.04,3.07,1.56,5.84-.54,8.83-1.87-.16,2.14-1.4,3.46-2.02,5.06-.74,1.79-1.83,3.07-3.23,3.74-.12.08-.23.12-.35.16-.82.35-1.71.51-2.68.51-.74,0-1.56-.16-2.37-.39-5.99-1.75-7.82-8.02-12.22-11.48-.04-.04-.08-.19-.08-.27-.43-3.46-1.17-8.79-.86-12.22.31-1.56.58-3,.86-4.36-.19.27-.39.54-.54.78.58-2.33,1.05-4.24,1.48-5.91l.12-.58c.43-2.26.86-4.36,1.48-6.54.04-.23.12-.47.16-.74.54-1.95,1.25-3.93,2.1-6.11.16-.43.35-.82.47-1.25h.04c.51-1.25.97-2.53,1.44-3.81.39-1.05.7-2.06,1.05-3.11l.04-.19c.31-.97.62-1.98.89-2.96,0,0,0-.04.04-.04.89-3.07,1.67-6.15,2.3-9.3.39-1.95-.47-4.63-1.75-7-.08-.16-.19-.31-.27-.47-1.32-2.22-2.96-3.66-4.01-4.47.12.19.27.39.39.62.27.43.58.89.82,1.4.27.43.51.93.7,1.44.23.43.43.9.58,1.4.16.31.23.66.35,1.01.04.08.04.16.08.27.1.31.14.66.22.98.19.93.4,2.21.44,3.84,0,.51,0,1.01-.04,1.48-.19,2.53-1.13,4.71-3.19,11.05-.23.66-.47,1.36-.7,2.1-.04.08-.04.16-.08.23-.12.31-.23.62-.39.93-.7,1.83-1.87,3.23-3.58,4.63l-.19.39c-3.35.43-7.12.93-7.39.35-.86.62-1.79,1.13-2.53,1.83-4.51,4.36-11.21,9.11-16.69,14.48-.39.39-.74.78-1.13,1.13-5.02,5.14-8.76,10.74-8.37,17.08-1.52,2.14,1.21,6.85,2.1,8.91.23.51.54,1.05.89,1.48,1.17,1.17,1.71,3.11,3.74,2.33,1.67-.62-.19-1.95.08-3.39.19-.82-.31-1.75.74-2.49.86.93.93,2.26,1.21,3.39.51,2.33,1.83,3.15,4.12,2.88,3-.39,13.27-11.05,15.88-13.19.19-2.3-1.91-3.62-7.43-2.53-1.17.23-4.36-8.4,5.91-5.8,2.37.62,3.7.19,4.79-.93-.04,1.36-.47,2.57-2.53,3.04.47,1.05,1.28,1.09,2.02,1.21l.04.04c1.13.97.78,2.45,1.09,3.7.58,2.22.78,4.79,2.8,6.19,2.37,1.67,4.05,3.85,5.68,6.15,2.76,3.81,6.46,4.86,10.82,4.47,1.83-.16,3.66-.58,4.86-2.18,1.83-2.41,3.46-4.94,4.28-7.82.47-1.44.66-2.96.58-4.63-2.02-1.36-2.37,1.13-3.58,1.67Z"/>
    </g>
  </g>
</svg>