<?xml version="1.0" encoding="UTF-8"?>
<svg id="Capa_2" data-name="Capa 2" xmlns="http://www.w3.org/2000/svg" viewBox="0 0 204.84 244.59">
  <defs>
    <style>
      .cls-1, .cls-2 {
        fill: #c4b89d;
      }

      .cls-3 {
        fill: #3c342a;
      }

      .cls-2, .cls-4, .cls-5 {
        fill-rule: evenodd;
      }

      .cls-6, .cls-5 {
        fill: #d4a54b;
      }

      .cls-4, .cls-7 {
        fill: #d4a54a;
      }

      .cls-8 {
        fill: #e8dcc7;
      }
    </style>
  </defs>
  <g id="Capa_1-2" data-name="Capa 1">
    <g>
      <path class="cls-8" d="M78.51,157.77l1.63-1.84h-.11c1.66-2.07,3.13-4.11,4.41-6.13,1.26-2.02,2.34-4.13,3.2-6.31s1.52-4.48,1.96-6.9c.46-2.42.68-5.08.68-7.94,0-2.33-.17-4.56-.5-6.7-5.02-4.84-5.78-11.84-6.29-16.79-.09-.82-.17-1.62-.26-2.38l-.9.69c-.82,2.26-2.61,2.46-3.21,2.46l-1.75-.04s-.13,0-.22-.02c-.46-.01-.92-.05-1.3-.08l-.34-.03c-.45-.03-2.5-.3-3.07-2.86l-2.2-2.18c-.46-.45-.74-1.05-.8-1.67-.31-.23-.66-.52-.98-.88-1.72-.31-3.5-.49-5.37-.49v-.02c-2.34,0-4.67.16-6.95.51-2.31.35-4.57.91-6.81,1.69-.07.07-.24.35-.46.88-.22.51-.49,1.18-.79,1.97-.29.81-.62,1.65-.95,2.56s-.64,1.77-.91,2.58c-.27.81-.5,1.49-.68,2.05-.18.56-.27.9-.27.98,0,.28.15.51.44.72.27.21.51.37.71.46h.86c1.04-.93,2.18-1.7,3.38-2.32,1.21-.61,2.43-1.11,3.7-1.48s2.56-.65,3.88-.81,2.65-.25,3.97-.25c-.24.14-.66.42-1.28.81-.6.4-1.32.84-2.12,1.35-.81.51-1.65,1.05-2.51,1.62-.86.56-1.66,1.11-2.38,1.62-.73.51-1.34.95-1.79,1.32-.46.37-.7.61-.7.74,0,.33.09.56.29.7.18.14.42.25.73.32.29.09.62.16.95.21.33.07.66.19.95.39.29.19.53.49.73.88.2.4.29.95.29,1.67v27.36c0,1.16-.24,2.2-.7,3.09-.46.91-1.04,1.72-1.72,2.48-.68.76-1.43,1.44-2.21,2.09-.79.63-1.52,1.26-2.2,1.9l-.33.63v.76c0,.6.25.9.79.9h28.87l.62-.26ZM61.94,148.18c.38-.32.73-.67,1.04-1.04.31-.37.57-.77.77-1.23.2-.44.31-.93.31-1.48v-29.3c0-.63.05-1.35.18-2.16.13-.81.33-1.56.62-2.28.29-.72.68-1.32,1.15-1.81.5-.49,1.1-.74,1.81-.74h.49c.16,0,.33.04.5.09h-.07c1.98.67,3.66,1.56,5.09,2.72,1.41,1.14,2.62,2.48,3.6,3.99.99,1.49,1.77,3.16,2.38,4.97s1.08,3.69,1.41,5.66c.35,1.97.57,3.95.68,5.99.11,2.04.16,4.04.16,6.01h-.02c0,1.98-.22,3.93-.66,5.88-.44,1.95-1.04,3.81-1.81,5.6h-18.76c.37-.28.73-.56,1.12-.88Z"/>
      <path class="cls-8" d="M45.08,150.36c-.13-.26-.27-.53-.46-.81-.18-.28-.38-.51-.57-.72l-.04-.03c-.2-.21-.37-.32-.51-.32l-.6.32c-.31.33-.66.61-1.04.88-.38.26-.82.39-1.3.39-.22,0-.4-.09-.53-.25-.15-.18-.24-.37-.31-.63-.07-.25-.13-.51-.13-.76v-41.61c.11-.09.27-.23.49-.39.22-.18.44-.35.66-.54.22-.19.42-.39.59-.58.16-.19.26-.35.26-.51l-.37-.76-7.61-6.32h-1.01c-.16.14-.48.39-.91.74-.46.33-.95.76-1.54,1.23-.59.47-1.19.98-1.83,1.53-.64.54-1.23,1.05-1.76,1.53-.53.47-.97.91-1.32,1.28-.35.39-.53.65-.53.79.05.19.15.39.29.63.15.25.33.47.53.7.2.23.42.4.62.56s.4.23.6.23c.07,0,.2-.09.4-.25s.42-.35.64-.56c.22-.21.44-.42.64-.63.2-.21.42-.4.42-.4l1.77,1.48v34.72l-10.94,8.89c-1.19-.86-2.36-1.76-3.49-2.67-1.13-.91-2.27-1.83-3.42-2.76.91-.63,1.63-1.25,2.14-1.86.51-.61.9-1.28,1.15-2.02.26-.74.4-1.55.46-2.42.06-.88.07-1.88.07-3.02v-27.68c0-1.14-.24-2.21-.7-3.21s-1.04-1.91-1.76-2.77c-.71-.84-1.5-1.62-2.36-2.3-.86-.68-1.7-1.28-2.49-1.79l-.93.09c-.16.14-.48.42-.95.83-.48.4-1.02.86-1.65,1.41-.62.54-1.26,1.11-1.94,1.7-.68.6-1.3,1.16-1.87,1.69-.57.53-1.04.98-1.41,1.39-.38.4-.57.67-.57.79l.26.63c.24.25.51.53.82.88.31.33.62.51.93.51.07,0,.22-.09.42-.26.22-.18.44-.39.7-.63.24-.25.48-.47.71-.7.03-.03.03-.03.06-.05,2.67-2.64,5.27-4.07,5.27-4.07-.57.92-1.58,2.98-2.58,5.14.12.19.23.39.33.61.24.56.38,1.19.46,1.86.07.67.11,1.32.11,1.95v28.03c0,.93-.24,1.77-.73,2.51-.49.76-1.04,1.42-1.65,2.02-.6.6-1.15,1.11-1.65,1.53s-.73.74-.73.98l.33.67,13.1,10.54h.93c2.34-1.84,4.63-3.72,6.88-5.6s4.54-3.74,6.88-5.6c.2,2.37.79,4.55,1.76,6.53.99,1.98,2.38,3.58,4.21,4.78l.86-.09c.16-.14.48-.39.91-.74.44-.35.95-.76,1.52-1.21.57-.47,1.15-.95,1.76-1.44s1.15-.98,1.67-1.44c.51-.46.91-.86,1.24-1.21.33-.33.49-.58.49-.74,0-.12-.06-.32-.18-.58Z"/>
      <g>
        <path class="cls-5" d="M120.43,101.97c3.03,3.27,3.33-20.16,5.2-24.85,1.88-4.69,1.77-8.48-4.14-18.97-5.91-10.49-9.28-17.66,6.05-23.47,15.52-5.88,19.43-11.52,31.84-16.35,6.32-2.45,12.74-2.83,13.76-2.44,1.09.41-2.05,1.14-2.28,1.25-.86.82-8.03,7.64-5.47,13.78,4.08,9.76,11.69,4.19,31.08,9.45,2.03.55,1.32,1.87.2,2.03-10.89,1.57-13.88,7.85-11.16,13.59,2.55,5.39,18.76,15.01,19.28,17.43.49,2.27-2.71-1.15-5.93-1.67-18.26-2.94-24.01,8.64-25.47,11.24-4.73,8.4.24,15.02-.18,20.02-.25,2.99-2.62-2-2.74-2.25-1.49-3.15-8.33-9.92-11.24-11.47-7.27-3.89-1.53,6.87-1.89,12.83-.22,3.6-3.91-8.09-8.96-6.61-6.66,1.95-9.66,6.84-8.33,16.26.62,4.42,1.89,11.61,3.75,21.22q-16.73-18.48-25.74-24.87c1.71-5-.64-9.42,2.38-6.15Z"/>
        <path class="cls-2" d="M187.99,54.28l-2.53,2.23s-16.59.84-20.53,14.11c-3.85,12.97-1.36,23.72-1.26,24.18-.31-.22-11.98-8.43-17.81-6.28-5.79,2.12,1.93,12.58,2.25,13.02-.4-.22-8.37-4.86-11.02-2.82-2.71,2.11-4.67,9.65-3.01,14.61,1.66,4.96,6.32,12.67,6.32,12.67l-34.19-23.53,5.37-22.33-23.13-31.05,5.68-8.35,22.61-21.68,12.41-12.14,9.82-4.35s-7.07,12.05-3.29,16.72c3.79,4.67,10.61,6.93,10.61,6.93,0,0,23.16-4.51,24.99-3.48,1.84,1.03.61,2.57.61,2.57,0,0-8.04,8-6.5,12.18,1.53,4.18,2.9,9.19,22.61,16.78Z"/>
        <path class="cls-5" d="M117.41,84.33c3.03,3.27,6.34-2.52,8.22-7.22,1.88-4.69,1.77-8.48-4.14-18.97-5.91-10.49-9.28-17.66,6.05-23.47,15.52-5.88,19.43-11.52,31.84-16.35,6.32-2.45,12.74-2.83,13.76-2.44,1.09.41-2.05,1.14-2.28,1.25-.86.82-8.03,7.64-5.47,13.78,4.08,9.76,11.69,4.19,31.08,9.45,2.03.55,1.32,1.87.2,2.03-10.89,1.57-13.88,7.85-11.16,13.59,2.55,5.39,18.76,15.01,19.28,17.43.49,2.27-2.71-1.15-5.93-1.67-18.26-2.94-24.01,8.64-25.47,11.24-4.73,8.4.24,15.02-.18,20.02-.25,2.99-2.62-2-2.74-2.25-1.49-3.15-8.33-9.92-11.24-11.47-7.27-3.89-1.53,6.87-1.89,12.83-.22,3.6-3.91-8.09-8.96-6.61-6.66,1.95-9.66,6.84-8.33,16.26.62,4.42,1.89,11.61,3.75,21.22-9.62-10-11.95,2.67-25.74-24.87-9.05-19.44-3.66-27.05-.63-23.78Z"/>
        <path class="cls-2" d="M187.99,54.28l-2.53,2.23s-16.59.84-20.53,14.11c-3.85,12.97-1.36,23.72-1.26,24.18-.31-.22-11.98-8.43-17.81-6.28-5.79,2.12,1.93,12.58,2.25,13.02-.4-.22-8.37-4.86-11.02-2.82-2.71,2.11-4.67,9.65-3.01,14.61,1.66,4.96,6.32,12.67,6.32,12.67l-34.19-23.53,5.37-22.33-23.13-31.05,5.68-8.35,22.61-21.68,12.41-12.14,9.82-4.35s-7.07,12.05-3.29,16.72c3.79,4.67,10.61,6.93,10.61,6.93,0,0,23.16-4.51,24.99-3.48,1.84,1.03.61,2.57.61,2.57,0,0-8.04,8-6.5,12.18,1.53,4.18,2.9,9.19,22.61,16.78Z"/>
        <path class="cls-1" d="M72.33,80.52s3.01-3.84,5.71-5.09c.44-.2.86.32.59.72-.61.9-1.27,2.07-.8,2.36.62.39,3.44-.82,5.43-1.21.5-.1.91.43.67.88-.27.5-.4,1.04.13,1.27,1.07.46,9.2.63,9.64,1.58.44.96-1.29,1.33-1.3,1.75s3.48,3.34,3.5,3.77-.96.42-.61.86,3.08,2.44,2.95,3.12-1.7-.27-1.61.09,3.25,3.8,3.12,4.46c-.13.66-.82.03-.76.3s.8,2.48.8,2.48l-13.43-8.44-14.73-2.23.71-6.67Z"/>
        <path class="cls-4" d="M72.71,219.7c-2.74,6.38-1.15,8.84-.68,8.36.09-.09,1.43-6.06,3.31-7.66.24-.03-.05.62-.03.78.09.7-.1,1.41-.09,2.11.1,4.18,6.28,11.06.6,6.87-3.43-2.53.58,2.6.95,3.19,2.26,3.66-5.15,3.51,2.03,11.24-5.61-.36-10.4-5.22-9.01-14.34.35-2.31-1.35,2.4-2.38,2.34-.5-.04-.74-12.05,5.31-12.9Z"/>
        <path class="cls-5" d="M120.01,139.26c-.67-2.93-4.84-6,.55-10.5,1.76-1.47,2.86-2.1,4.21-4.37.57-.95.07-3.95.36-4.07.39-.16,1.37,3,.63,5.18-1.29,3.76,4.3,2.21,9.28,10.8,7.46,12.85.98,30.03-1.23,33.68.6-2.88,10.12-28.78-7.71-38.49-2.79-1.52-5.94,3.57-5.73,5.93.09,1.03.28,1.07-.35,1.83Z"/>
        <path class="cls-5" d="M84.04,96.67c.57-.89.84-.77,1.6-.05,2.36,2.23,2.85,8.16,2.9,8.41.68,3.13.85,11.94,11.86,15.97,5.42,1.98,7.08-5.12,10.2-5.08,5.42-.21-4.25-.19-5.54,8.8-24.09-1.09-16.05-22.74-21.01-28.05Z"/>
        <path class="cls-4" d="M115.52,149.16c-.04-.54-.02-1.08.07-1.62.04-.23.08-.45.14-.67.03-.13.07-.27.1-.4.17-.6.4-1.16.67-1.71.13-.25.25-.48.39-.71.15-.28.32-.53.48-.79.11-.18.22-.35.34-.51.12-.17.23-.32.34-.46.07-.09.14-.18.2-.26.12-.15.23-.29.35-.42.02-.03.05-.06.06-.08.17-.2.32-.38.46-.52.31-.33.53-.56.64-.67.1,1.42.16,1.37.62,2.66.96,2.64-3.92,5.74-4.87,6.16Z"/>
        <polygon class="cls-7" points="86.01 96.2 86.01 96.19 86.01 96.19 86.01 96.2"/>
        <path class="cls-7" d="M108.66,153.04c-.12.44-.23.92-.36,1.43-.06.07-.12.15-.17.21.21-.65.37-1.18.52-1.64Z"/>
        <g>
          <path class="cls-6" d="M75.42,90.43c.06.13.13.25.23.37.37.42,1.14.76,1.22.31.07-.45-1.56-2.68-1.94-2.42.02.07.04.13.06.19.24.83.31,1.24.43,1.54Z"/>
          <path class="cls-6" d="M80.65,91.07c.12-.11.21-.22.28-.34.17-.29.28-.69.63-1.48.03-.06.05-.12.08-.19-.35-.31-2.25,1.7-2.23,2.16.02.45.83.22,1.25-.15Z"/>
          <path class="cls-6" d="M79.08,103.2c.39.02.68-.38.83-1.32l3.2-2.45c0-.58.02-1.03.18-1.59.24-.1.04.37.24.27.92-.48,2.01-.74,2.2-2.21.04-.3.16-.55.44-.46.7.19.64-.37.67-.86.02-.29.05-.58.03-.88-.04-.6.25-.37.48-.29,0-.01,0-.02,0-.03,0,0,0,0,0,.01.53-.14.34-.56.28-.94-.09-.59-.46-1.01-.62-1.56.65-.73,1.52-.48,2.17.27.57.66.97,1.48,1.44,1.13,1.29-.95-2.72-3.98-3.03-4.21-.16-.12-.28-.22-.38-.32,1.34-1.12,2.9-2.2,3.74-2.98,1.08-1.01-.4-.44-1.85-.49-.99-.03-1.84.09-2.61.35,0,0,0,0,0,0-.99.44-1.61,1.24-2.01,2.18-.57,1.33-.72,2.94-.91,4.26-.21,1.48-.46,2.6-1.41,2.54,0-.05.02-.09.03-.14-.02.05-.05.11-.07.16.1-1,.19-1.98.17-2.37,0-.06,0-.11-.02-.14-.02-.06-.08,0-.17.11-.52.68-2.01,3.92-2.23,5.46,0,0,0,.02,0,.03,0,0,0,.01,0,.02,0,.02,0,.04,0,.07-.02.15-.03.3-.05.44h0s0,0,0,0c-.14,1.27-.26,1.95-.36,3.39-.03.49-.25.71-1.17.73l.04-.63s1.15-1.4.21-1.46-.51,1.44-.51,1.44l.03.65c-.12,0-.25,0-.39-.02-.02,0-.04,0-.06,0-.02,0-.03,0-.05,0-.03,0-.07,0-.1,0,0,0,0,0,0,0v.05s-.03,0-.05,0c-.02,0-.04,0-.06,0-.14-.01-.27-.02-.39-.03l.11-.64s.61-1.43-.33-1.49.03,1.47.03,1.47l-.04.63c-.92-.13-1.1-.38-1.07-.87.09-1.44.05-2.14.08-3.41,0,0,0,0,0,0h0c0-.14,0-.29.01-.45,0-.02,0-.04,0-.07,0,0,0-.01,0-.02,0-.01,0-.02,0-.03-.02-1.56-1.1-4.96-1.52-5.7-.07-.13-.13-.19-.16-.13-.01.03-.03.07-.04.13-.07.38-.11,1.36-.13,2.37-.02-.06-.03-.11-.05-.17,0,.05,0,.09,0,.14-.94-.06-1.05-1.2-1.07-2.7-.02-1.34.04-2.95-.36-4.34-.28-.99-.79-1.85-1.72-2.42,0,0,0,0,0,0-.73-.36-1.56-.59-2.55-.68-1.45-.14-2.84-.88-1.9.25.73.88,2.14,2.15,3.33,3.43-.11.08-.24.17-.42.27-.33.19-4.7,2.69-3.54,3.8.43.4.93-.36,1.58-.94.74-.66,1.64-.8,2.19,0-.22.53-.64.9-.81,1.47-.11.37-.35.77.16.97,0,0,0,0,0-.01,0,0,0,.02,0,.03.24-.05.56-.25.44.35-.06.29-.06.59-.08.87-.03.5-.16,1.05.56.94.28-.05.37.21.37.51,0,1.49,1.06,1.88,1.91,2.47.18.12.05-.37.27-.23.09.58.05,1.03-.02,1.6l2.86,2.83c.03.96.27,1.39.66,1.42s1,.1,1.61.1c.04,0,.09,0,.14.01l1.65.04Z"/>
        </g>
        <path class="cls-1" d="M72.33,80.52s3.01-3.84,5.71-5.09c.44-.2.86.32.59.72-.61.9-1.27,2.07-.8,2.36.62.39,3.44-.82,5.43-1.21.5-.1.91.43.67.88-.27.5-.4,1.04.13,1.27,1.07.46,9.2.63,9.64,1.58.44.96-1.29,1.33-1.3,1.75s3.48,3.34,3.5,3.77-.96.42-.61.86,3.08,2.44,2.95,3.12-1.7-.27-1.61.09,3.25,3.8,3.12,4.46c-.13.66-.82.03-.76.3s.8,2.48.8,2.48l-13.43-8.44-14.73-2.23.71-6.67Z"/>
        <path class="cls-4" d="M72.71,219.7c-2.74,6.38-1.15,8.84-.68,8.36.09-.09,1.43-6.06,3.31-7.66.24-.03-.05.62-.03.78.09.7-.1,1.41-.09,2.11.1,4.18,6.28,11.06.6,6.87-3.43-2.53.58,2.6.95,3.19,2.26,3.66-5.15,3.51,2.03,11.24-5.61-.36-10.4-5.22-9.01-14.34.35-2.31-1.35,2.4-2.38,2.34-.5-.04-.74-12.05,5.31-12.9Z"/>
        <path class="cls-4" d="M115.52,149.16c-.04-.54-.02-1.08.07-1.62.04-.23.08-.45.14-.67.03-.13.07-.27.1-.4.17-.6.4-1.16.67-1.71.13-.25.25-.48.39-.71.15-.28.32-.53.48-.79.11-.18.22-.35.34-.51.12-.17.23-.32.34-.46.07-.09.14-.18.2-.26.12-.15.23-.29.35-.42.02-.03.05-.06.06-.08.17-.2.32-.38.46-.52.31-.33.53-.56.64-.67.1,1.42.16,1.37.62,2.66.96,2.64-3.92,5.74-4.87,6.16Z"/>
        <polygon class="cls-7" points="86.01 96.2 86.01 96.19 86.01 96.19 86.01 96.2"/>
        <path class="cls-7" d="M108.66,153.04c-.12.44-.23.92-.36,1.43-.06.07-.12.15-.17.21.21-.65.37-1.18.52-1.64Z"/>
        <g>
          <path class="cls-3" d="M197.2,57.25c-1.36-2.65-23.17-8.88-27.79-14.37-4.93-5.85-3.38-14.07,8.82-19.24,1.26-.53,1.68-2.28-.85-2.3-24.17-.17-31.32,8.65-39.06-1.46-4.87-6.37,1.38-16.5,2.13-17.72.24-.21,3.67-2.01,2.27-2.16-1.3-.14-8.67,2.27-15.26,7.07-12.97,9.43-15.78,17.2-32.04,28.8-16.06,11.46-9.94,18.77.16,29.17,10.1,10.4,11.39,14.77,10.64,20.8-.74,6.04-6,13.3-7.35,10.92-.57-1.02-.93-4.51-6.52-9.81-1.77-1.67-3.42-2.65-4.86-3.21,2.71-2.96-2.81-4.18,5.87-8.77-.45-1.69-3.58-.6-6.71,1.61-1.53,1.09-1.26,3.75-1.4,4.2-.24.77-.86,1.23-1.56,1.52-.09-.2-.2-.33-.32-.34-.51-.03-.37.51-1.13.47-.45-.03-.75-.81-.91-1.45-.06-.23-.36-.25-.46-.04-.26.55-.67,1.21-1.14,1.18-.05,0-.08-.01-.12-.02-.27-.27-.46-.81-.58-1.27-.03-.13-.15-.19-.26-.17v.07c-.08.01-.14.05-.17.13-.18.44-.44.95-.74,1.19-.04,0-.08,0-.12,0-.46-.03-.79-.73-.98-1.32-.07-.22-.38-.23-.47-.02-.24.6-.64,1.35-1.09,1.32-.75-.05-.55-.57-1.06-.61-.12,0-.25.11-.36.3-.66-.37-1.22-.92-1.36-1.71-.08-.46.52-3.07-.86-4.34-2.82-2.59-5.8-4.06-6.45-2.45,8.77,6.17,1.24,6.22,5.57,10.43,0,0,0,0,0,0,.93.56,1.44,1.43,1.72,2.42.4,1.39.34,3,.36,4.34.02,1.49.13,2.64,1.07,2.7,0-.05,0-.09,0-.14.02.06.03.11.05.17.02-1,.06-1.99.13-2.37.01-.06.02-.11.04-.13.03-.05.08,0,.16.13.43.74,1.5,4.14,1.52,5.7,0,0,0,.02,0,.03,0,0,0,.01,0,.02,0,.02,0,.04,0,.07,0,.15,0,.3-.01.44h0s0,0,0,0c-.02,1.27.02,1.97-.08,3.41-.03.49.15.74,1.07.87l.04-.63s-.97-1.53-.03-1.47.33,1.49.33,1.49l-.11.64c.12.01.25.02.39.03.02,0,.04,0,.06,0,.02,0,.03,0,.05,0v-.05s0,0,.01,0c.04,0,.07,0,.1,0,.02,0,.03,0,.05,0,.02,0,.04,0,.06,0,.14,0,.27.01.39.02l-.03-.65s-.42-1.5.51-1.44-.21,1.46-.21,1.46l-.04.63c.93-.02,1.14-.24,1.17-.73.09-1.44.22-2.13.36-3.39,0,0,0,0,0,0h0c.01-.14.03-.29.05-.44,0-.02,0-.04,0-.07,0,0,0-.01,0-.02,0-.01,0-.02,0-.03.19-1.34,1.33-3.93,1.97-5.05l-.17,3.39c.57-.89,3.2.88,3.97,1.6,2.35,2.22,2.85,8.15,2.9,8.41.67,3.13.84,11.95,11.85,15.97l4.47,1.18c.23.02-.64.38.2,2.54-1.2,8.74,3.57,11.72,5.58,15.26.03.06.07.11.1.18.07.14.14.27.21.41.07.15.13.28.17.42.06.12.1.26.14.41.04.09.05.19.08.29,0,.02,0,.04.02.08l.34-.45s.06.09.07.14c.08.7.1,1.16.08,1.92-.02.91-.22,1.82-.53,2.67-.01,0-.01.01-.01.01-.09.27-.2.55-.31.82v.05c-.13.29-.24.57-.37.86-.15.35-.31.71-.47,1.05h-.01c-.04.12-.1.22-.15.34-.28.6-.51,1.15-.7,1.69-.02.08-.04.14-.06.21-.15.62-.32,1.16-.53,1.82l-.04.16c-.15.46-.32.99-.52,1.64.05-.06.11-.14.17-.21-.1.38-.2.78-.32,1.21-.15.96-.04,2.48.02,3.46,0,.02,0,.07.02.08,1.18,1.06,1.58,2.86,3.24,3.46.23.08.45.14.66.15.26,0,.52-.02.77-.09.03,0,.07-.02.1-.04.41-.16.74-.5.98-1,.2-.44.58-.79.66-1.39-.87.32-1.69.86-2.53.37-.86-.52-1.74-1.08-2.26-2.14.68-.07.99.4,1.3.72,1.01,1.08,2.13.96,3.36.52.35-.13.49-.83,1.04-.41,0,.47-.09.9-.25,1.3,1.65-2.76,1.51-6.84-1.3-4.03-.23.23-2.35-1.31.48-2.31,1.88-.65.4-1.93,1.23-5.19-.04-.54-.02-1.08.07-1.62.04-.23.08-.45.14-.67.03-.13.07-.27.1-.4.17-.6.4-1.16.67-1.71.13-.25.25-.48.39-.71.15-.28.32-.53.48-.79.11-.18.22-.35.34-.51.12-.17.23-.32.34-.46.07-.09.14-.18.2-.26.12-.15.23-.29.35-.42.02-.03.05-.06.06-.08.17-.2.32-.38.46-.52.31-.33.53-.56.64-.67.09-.36.17-.72.26-1.08-.67-2.93-4.85-6,.54-10.49,1.77-1.48,2.34-1.12,4.21-4.37.61-1.05,1.38-.04.99,1.11-1.77,5.13,4.29,2.21,9.28,10.81,7.45,12.85.97,30.03-1.23,33.68-4.23,6.96-15.3,35.84-33.89,36.44-10.77.35-18.83-.38-27.21,13.28-.85.68-.77,1.18-1.4,3.27-1.53,5.1.31,5.5.71,5.09.08-.08,1.48-5.68,2.89-7.19,2.35-2.19,2.7-9.83,22.58-9.76,19.63.08,27.51-11.5,38.89-34.8,8.36-17.15,16.66-26.48,4.3-49.92-.1-.2-.23-.45-.38-.73-.89-2.74-8.78-21.29-1.98-25.39,5.43-3.28,13.31,9.2,12.46,4.94-1.41-7.04-11.39-17.8-1.74-15.51,3.86.92,13.9,6.7,16.6,9.9.22.26,4.51,5.34,3.88,1.78-1.04-5.94-8.86-12.13-5.93-23.35.9-3.47,4.04-18.71,26.19-20.89,3.9-.39,8.69,2.61,7.42.12ZM75.66,90.81c-.11-.12-.18-.24-.23-.37-.13-.3-.19-.72-.43-1.54-.02-.07-.04-.12-.06-.19.39-.26,2.02,1.97,1.94,2.42-.07.45-.85.11-1.22-.31ZM81.56,89.25c-.34.79-.46,1.19-.63,1.48-.07.13-.16.23-.28.34-.42.37-1.23.61-1.25.15s1.88-2.47,2.23-2.16c-.03.07-.05.12-.08.19ZM170.94,24.28c-3.45,2.53-5,2.63-5.86,6.33-.59,2.53-.74,3.62-.95,5.34-1.01,8.42,8.49,12.76,11.07,13.78-29.98-6.24-30.72-3.1-71.87-.07-2.1.15,2.31-1.22,9.11-4.54,42.26-20.55,42.2-19.2,58.69-21.04-.04.06-.1.12-.2.19ZM91.56,49.35c-.94-6.82,10.61-12.43,21.15-23.41,3.06-3.19,13.51-18.08,24.03-22-7.32,14.01-1.17,21.37,8.64,22.92-12.21,3.86-31.84,14.67-36.29,16.59-1.67.72-3.19,1.37-4.57,1.95-.08.03-9.32,3.88-12.96,3.94ZM132.36,110.42c1.42,4.31,3.82,8.72,5.62,11.72-1.79-2.37-4.48-5.4-8.39-8.64-7.3-6.07-18.44-9.02-18.44-9.02-2.44-3.21-.81-7.12.4-11.9,0,0,0,0,0,0,0,0,0-.01,0-.02.21-.83.4-1.69.57-2.58.93-4.2,1.46-6.22,1.46-6.22,3.57,4.37,9.99,17.8,10.43,24.09,0,0,1.14-5.7-2.79-15.87-4.45-11.54-6.63-14.28-11.11-21.32-3.49-5.48-12.16-11.71-15.84-14.2-.63-.97-.98-1.71-.91-2.14,1.21.61,3.8,1.52,8.98,2.91,16.71,8.65,33.5,32.68,41.09,40.39-6.73-2.93-13.58,5.27-11.08,12.82ZM142.36,91.61c0,1.06.32,2.07.72,2.96-7.05-9.38-22.35-28.5-36.1-37.62,8.84,2.46,20.79,6.59,30.72,13.15,8.11,5.36,19.4,16.55,22.94,21.9-.1-.06-.19-.13-.31-.2-.44-.15-18.05-10.44-17.96-.18ZM161.49,89.43c-3.83-5.84-10.38-11.04-11.34-12.03-2.85-2.88-17.86-18.12-44.33-24.47-2.76-.66,1.21-.54,26.81-3.03,26.45-2.57,43.12,2.95,50.13,4.87-6.11,2.27-26.87,9.69-21.28,34.65Z"/>
          <g>
            <path class="cls-6" d="M75.42,90.43c.06.13.13.25.23.37.37.42,1.14.76,1.22.31.07-.45-1.56-2.68-1.94-2.42.02.07.04.13.06.19.24.83.31,1.24.43,1.54Z"/>
            <path class="cls-6" d="M80.65,91.07c.12-.11.21-.22.28-.34.17-.29.28-.69.63-1.48.03-.06.05-.12.08-.19-.35-.31-2.25,1.7-2.23,2.16.02.45.83.22,1.25-.15Z"/>
            <path class="cls-6" d="M79.08,103.2c.39.02.68-.38.83-1.32l3.2-2.45c0-.58.02-1.03.18-1.59.24-.1.04.37.24.27.92-.48,2.01-.74,2.2-2.21.04-.3.16-.55.44-.46.7.19.64-.37.67-.86.02-.29.05-.58.03-.88-.04-.6.25-.37.48-.29,0-.01,0-.02,0-.03,0,0,0,0,0,.01.53-.14.34-.56.28-.94-.09-.59-.46-1.01-.62-1.56.65-.73,1.52-.48,2.17.27.57.66.97,1.48,1.44,1.13,1.29-.95-2.72-3.98-3.03-4.21-.16-.12-.28-.22-.38-.32,1.34-1.12,2.9-2.2,3.74-2.98,1.08-1.01-.4-.44-1.85-.49-.99-.03-1.84.09-2.61.35,0,0,0,0,0,0-.99.44-1.61,1.24-2.01,2.18-.57,1.33-.72,2.94-.91,4.26-.21,1.48-.46,2.6-1.41,2.54,0-.05.02-.09.03-.14-.02.05-.05.11-.07.16.1-1,.19-1.98.17-2.37,0-.06,0-.11-.02-.14-.02-.06-.08,0-.17.11-.52.68-2.01,3.92-2.23,5.46,0,0,0,.02,0,.03,0,0,0,.01,0,.02,0,.02,0,.04,0,.07-.02.15-.03.3-.05.44h0s0,0,0,0c-.14,1.27-.26,1.95-.36,3.39-.03.49-.25.71-1.17.73l.04-.63s1.15-1.4.21-1.46-.51,1.44-.51,1.44l.03.65c-.12,0-.25,0-.39-.02-.02,0-.04,0-.06,0-.02,0-.03,0-.05,0-.03,0-.07,0-.1,0,0,0,0,0,0,0v.05s-.03,0-.05,0c-.02,0-.04,0-.06,0-.14-.01-.27-.02-.39-.03l.11-.64s.61-1.43-.33-1.49.03,1.47.03,1.47l-.04.63c-.92-.13-1.1-.38-1.07-.87.09-1.44.05-2.14.08-3.41,0,0,0,0,0,0h0c0-.14,0-.29.01-.45,0-.02,0-.04,0-.07,0,0,0-.01,0-.02,0-.01,0-.02,0-.03-.02-1.56-1.1-4.96-1.52-5.7-.07-.13-.13-.19-.16-.13-.01.03-.03.07-.04.13-.07.38-.11,1.36-.13,2.37-.02-.06-.03-.11-.05-.17,0,.05,0,.09,0,.14-.94-.06-1.05-1.2-1.07-2.7-.02-1.34.04-2.95-.36-4.34-.28-.99-.79-1.85-1.72-2.42,0,0,0,0,0,0-.73-.36-1.56-.59-2.55-.68-1.45-.14-2.84-.88-1.9.25.73.88,2.14,2.15,3.33,3.43-.11.08-.24.17-.42.27-.33.19-4.7,2.69-3.54,3.8.43.4.93-.36,1.58-.94.74-.66,1.64-.8,2.19,0-.22.53-.64.9-.81,1.47-.11.37-.35.77.16.97,0,0,0,0,0-.01,0,0,0,.02,0,.03.24-.05.56-.25.44.35-.06.29-.06.59-.08.87-.03.5-.16,1.05.56.94.28-.05.37.21.37.51,0,1.49,1.06,1.88,1.91,2.47.18.12.05-.37.27-.23.09.58.05,1.03-.02,1.6l2.86,2.83c.03.96.27,1.39.66,1.42s1,.1,1.61.1c.04,0,.09,0,.14.01l1.65.04Z"/>
          </g>
        </g>
        <path class="cls-5" d="M120.01,139.26c-.67-2.93-4.84-6,.55-10.5,1.76-1.47,2.86-2.1,4.21-4.37.57-.95.07-3.95.36-4.07.39-.16,1.37,3,.63,5.18-1.29,3.76,4.3,2.21,9.28,10.8,7.46,12.85.98,30.03-1.23,33.68.6-2.88,10.12-28.78-7.71-38.49-2.79-1.52-5.94,3.57-5.73,5.93.09,1.03.28,1.07-.35,1.83Z"/>
        <path class="cls-5" d="M84.04,96.67c.57-.89.84-.77,1.6-.05,2.36,2.23,2.85,8.16,2.9,8.41.68,3.13.85,11.94,11.86,15.97,5.42,1.98,7.08-5.12,10.2-5.08,5.42-.21-4.25-.19-5.54,8.8-24.09-1.09-16.05-22.74-21.01-28.05Z"/>
        <path class="cls-7" d="M114.31,159.8c-1.23.44-2.35.56-3.36-.52-.31-.32-.62-.79-1.3-.72.52,1.06,1.4,1.62,2.26,2.14.84.49,1.66-.05,2.53-.37-.08.6-.46.95-.66,1.39-.24.49-.57.83-.98,1-.03.02-.07.03-.1.04-.24.08-.49.11-.77.09-.21-.01-.44-.07-.66-.15-1.66-.6-2.06-2.4-3.24-3.46-.01-.01-.02-.06-.02-.08-.06-.98-.17-2.5-.02-3.46.12-.43.22-.83.32-1.21-.06.07-.12.15-.17.21.21-.65.37-1.18.52-1.64l.04-.16c.16-.63.32-1.21.53-1.82.02-.07.04-.13.06-.21.19-.54.42-1.09.7-1.69.05-.12.11-.22.15-.34h.01c.17-.34.32-.7.47-1.05.13-.29.23-.57.35-.86v-.05c.12-.27.23-.55.32-.82,0,0,0-.01.01-.01.31-.85.58-1.7.81-2.58.14-.54-.05-1.31-.37-2.01-.02-.05-.05-.09-.07-.14-.33-.65-.77-1.08-1.05-1.33.03.06.07.11.1.18.07.13.15.26.21.41.07.13.13.27.17.42.06.12.1.26.14.41.04.09.05.19.08.29,0,.02,0,.04.02.08.02.09.03.19.05.28.04.27.07.63.06,1.09,0,.14-.02.29-.04.42-.1.71-.4,1.31-1.1,3.06-.08.18-.16.38-.24.58-.01.02-.01.04-.03.06-.04.09-.08.17-.13.26-.23.5-.58.88-1.09,1.24l-.06.11c-.95.06-2.03.14-2.09-.03-.25.16-.53.29-.75.47-1.35,1.15-3.32,2.37-4.97,3.79-.12.1-.22.21-.34.3-1.51,1.36-2.66,2.87-2.67,4.67-.47.58.22,1.95.43,2.55.06.15.13.31.23.43.31.35.43.91,1.01.73.48-.15-.02-.55.08-.95.07-.23-.06-.5.25-.69.22.28.22.65.28.98.1.67.46.92,1.11.89.85-.06,3.94-2.88,4.72-3.44.1-.64-.47-1.06-2.05-.85-.33.04-1.08-2.45,1.77-1.53.66.22,1.04.12,1.37-.18-.04.38-.18.72-.77.81.11.3.34.33.55.38h.01c.3.31.18.72.24,1.07.12.64.13,1.36.68,1.8.64.51,1.07,1.16,1.49,1.84.71,1.13,1.74,1.49,2.97,1.46.52-.01,1.04-.1,1.41-.53.56-.65,1.07-1.33,1.35-2.13.16-.4.24-.82.25-1.3-.55-.42-.69.28-1.04.41Z"/>
      </g>
    </g>
  </g>
</svg>