<?xml version="1.0" encoding="UTF-8"?>
<svg id="Capa_2" data-name="Capa 2" xmlns="http://www.w3.org/2000/svg" viewBox="0 0 447.58 157.63">
  <defs>
    <style>
      .cls-1, .cls-2 {
        fill: #c4b89d;
      }

      .cls-3 {
        fill: #3c342a;
      }

      .cls-2, .cls-4, .cls-5 {
        fill-rule: evenodd;
      }

      .cls-6, .cls-5 {
        fill: #d4a54b;
      }

      .cls-4, .cls-7 {
        fill: #d4a54a;
      }

      .cls-8 {
        fill: #e8dcc7;
      }
    </style>
  </defs>
  <g id="Capa_1-2" data-name="Capa 1">
    <g>
      <g>
        <g>
          <path class="cls-8" d="M44.14,121.05c.09,0,.19.05.31.15.11.1.22.22.33.36.11.14.19.28.27.44s.11.26.11.34c0,.13-.09.32-.29.56-.19.24-.43.5-.72.8-.3.28-.62.59-.98.91-.37.32-.71.61-1.04.9-.33.27-.63.54-.9.76-.27.22-.47.38-.58.47h-.58c-.86-.66-1.7-1.29-2.54-1.93-.84-.64-1.69-1.25-2.55-1.85l-.27-.45c0-.11.07-.26.21-.46.14-.2.29-.41.46-.61.17-.22.35-.42.52-.6.18-.19.32-.34.4-.45v-24.34c0-.61-.13-1.06-.38-1.36-.25-.28-.54-.51-.86-.67-.32-.15-.64-.3-.95-.42s-.52-.32-.64-.6c0-.13,0-.27.02-.44.02-.16.05-.31.1-.45s.13-.25.22-.35c.09-.09.21-.14.34-.14.34,0,.7.1,1.06.28.37.19.73.27,1.13.27.66,0,1.29-.13,1.88-.41.59-.27,1.19-.57,1.77-.91.58-.34,1.19-.64,1.79-.91.6-.27,1.27-.41,1.97-.41.15,0,.26.04.34.14.08.1.13.2.16.32.03.12.05.25.05.41s0,.27.02.39c-.1.26-.33.48-.68.66-.35.18-.72.41-1.11.67-.39.27-.72.64-1.03,1.1-.3.46-.45,1.11-.45,1.95v26.07c.24.16.46.35.66.54.21.19.42.37.66.56.08-.05.19-.15.37-.31.16-.15.33-.3.51-.44.18-.14.35-.26.51-.37.16-.11.29-.16.37-.16h-.02Z"/>
          <path class="cls-8" d="M63.3,121.05c.09,0,.19.05.31.15.11.1.23.23.34.37.11.15.21.3.29.45s.13.27.14.36c0,.11-.09.27-.3.5-.19.23-.45.48-.75.77-.31.28-.65.59-1.02.91-.37.32-.72.62-1.06.91-.34.28-.64.55-.9.77-.26.22-.45.38-.55.47h-.51l-5.11-3.83-.25-.5c0-.08.07-.2.19-.36.13-.16.27-.35.43-.54.16-.19.33-.36.48-.54.15-.18.26-.28.33-.36v-16.73c-.13,0-.32.02-.59.05-.27.04-.56.05-.84.04-.29,0-.54-.05-.75-.14-.22-.09-.33-.25-.33-.51v-1.68c.1-.24.32-.43.63-.56.32-.13.66-.3,1.06-.49.39-.2.79-.47,1.19-.84.4-.36.73-.9,1-1.61.18-.5.34-1.04.48-1.62.14-.58.25-1.17.35-1.79.09-.61.18-1.23.26-1.82s.15-1.16.23-1.71c.03-.11.09-.21.19-.3.1-.09.18-.15.26-.21h1.28c.33,0,.49.2.49.59v9.04c.15,0,.41-.02.8-.07.38-.04.76-.07,1.16-.07s.73.05,1.04.15c.3.1.45.3.45.57v1.57c0,.39,0,.7-.05.92-.03.23-.11.37-.24.45-.13.08-.31.12-.56.13-.25.01-.59,0-1.02-.04-.42-.03-.95-.05-1.6-.05v17.26c.25.16.49.35.71.56s.46.39.71.56c.09-.08.21-.18.37-.31.16-.13.31-.26.46-.39.16-.13.31-.25.46-.35.15-.1.27-.15.37-.15h-.01Z"/>
          <path class="cls-8" d="M79.56,120.94c.1,0,.23.05.37.19.14.12.26.26.38.42.11.15.21.32.3.49.08.16.14.31.15.42,0,.09-.1.25-.32.49-.21.23-.47.49-.79.78-.32.28-.66.59-1.06.91-.39.32-.76.61-1.12.9-.35.27-.67.54-.96.76-.29.22-.48.37-.58.45l-.49.05c-.98-.48-1.68-1.16-2.11-2.02-.43-.85-.65-1.86-.65-3.02v-17.71l-.18-.45c-.16,0-.33.08-.49.22-.16.14-.31.27-.43.39l.05-.05c-.1.05-.23.15-.37.27-.14.13-.26.2-.39.2-.18,0-.34-.09-.47-.26-.13-.18-.26-.32-.38-.44l-.21-.45c0-.09.1-.27.3-.55.19-.27.45-.59.74-.95s.64-.74,1-1.15c.37-.41.72-.78,1.05-1.15.33-.36.63-.69.89-.96.26-.28.43-.47.52-.59l.4-.16c.08,0,.23.1.46.28.23.19.5.43.81.71.31.28.64.6.98.95.34.35.67.68.99,1,.32.32.59.6.83.85.24.25.4.43.49.51l.21.39c0,.13-.08.27-.24.42-.16.15-.34.28-.55.42-.21.13-.42.25-.64.36s-.39.21-.5.28v16.17c0,.32.06.61.16.9.1.28.33.42.67.42.16,0,.32-.04.46-.14s.27-.22.39-.36l.34-.2v.02ZM77.54,92.06c0,.47-.07.92-.21,1.37-.14.45-.31.88-.5,1.3-.21.42-.43.82-.67,1.22-.24.39-.49.76-.73,1.1l-.41.25h-.32l-.37-.2c-.21-.26-.43-.58-.68-.96-.25-.38-.48-.79-.71-1.22-.23-.43-.41-.87-.56-1.3-.15-.44-.23-.84-.23-1.22,0-1.01.25-1.73.74-2.18.49-.45,1.18-.67,2.02-.67.33,0,.65.05.97.15.32.1.59.25.84.46s.45.47.58.79.22.69.22,1.12h.01Z"/>
          <path class="cls-8" d="M117.88,121.53c.11,0,.25.07.38.19.13.12.26.26.38.42.11.15.22.32.31.49.09.18.13.3.13.39,0,.05-.09.18-.29.36-.19.19-.43.41-.72.66-.3.25-.62.53-.97.81-.35.28-.68.57-1.02.82-.32.26-.6.49-.86.68-.25.2-.42.32-.5.38l-.45.05c-.7-.28-1.26-.67-1.71-1.16-.45-.49-.81-1.05-1.07-1.68-.26-.62-.45-1.29-.55-2.02-.1-.72-.16-1.45-.16-2.19v-15.22c-.25-.24-.51-.47-.79-.7-.27-.23-.55-.46-.83-.7-.7.43-1.37.88-2.04,1.36-.67.47-1.37.93-2.07,1.36v19.7c0,.19-.06.32-.16.41-.1.09-.22.13-.34.13h-3.91c-.13,0-.23-.04-.34-.13-.1-.09-.16-.22-.16-.41v-20.56c0-.22-.02-.46-.06-.72-.03-.26-.1-.5-.21-.72-.1-.22-.23-.41-.38-.56-.16-.15-.35-.22-.59-.22-.14.09-.42.27-.86.55s-.89.56-1.36.87-.9.58-1.28.82c-.38.24-.59.37-.62.39v20.18c0,.19-.06.32-.18.41-.13.09-.24.13-.37.13h-3.89c-.13,0-.23-.05-.32-.15-.09-.1-.14-.23-.14-.37v-20.9c0-.41-.1-.7-.31-.88-.21-.18-.48-.26-.82-.26-.15,0-.29.03-.41.11-.13.08-.24.16-.35.27l-.34.22c-.19,0-.34-.09-.43-.27-.09-.19-.19-.34-.3-.45l.09.16c-.08-.09-.15-.2-.23-.31-.08-.11-.11-.23-.11-.34,0-.09.08-.26.25-.5.16-.24.38-.53.64-.84.26-.32.55-.66.86-1.01.31-.35.6-.69.9-1.01.3-.32.56-.6.8-.85.24-.25.41-.44.51-.55.13-.08.23-.11.34-.11.27,0,.59.19.98.55.38.36.75.8,1.13,1.3.38.5.7,1.01.97,1.52s.43.92.48,1.22l6.85-4.59.56.05c.32.28.63.6.96.97.32.37.62.77.9,1.17.27.42.52.84.73,1.3.21.46.38.91.49,1.36,1.04-.66,2.05-1.34,3.05-2.06.99-.72,2.01-1.42,3.05-2.11h-.07l.92-.65h.58l4.54,3.83.21.47c.01.13-.06.27-.21.45-.15.16-.33.33-.52.49-.19.16-.41.31-.62.45-.21.14-.37.25-.45.32v17.7c0,.11.02.23.05.34.02.11.07.21.13.3.06.09.14.12.25.12.27,0,.56-.11.86-.34.3-.23.56-.44.76-.65.05,0,.09,0,.14-.03.05-.02.1-.03.16-.03h.02Z"/>
          <path class="cls-8" d="M143.12,121.48c.09,0,.19.07.32.19.11.12.23.25.33.41.09.15.18.3.26.45s.12.26.12.34-.09.22-.28.42c-.18.21-.41.45-.7.71-.29.27-.59.55-.94.84-.34.3-.66.57-.97.82-.31.25-.58.49-.83.68-.25.19-.42.33-.5.41l-.37.11c-.42-.08-.81-.25-1.18-.55-.37-.3-.68-.64-.97-1.04-.29-.41-.52-.83-.73-1.28-.21-.46-.35-.89-.46-1.3-.87.69-1.75,1.38-2.62,2.06-.88.68-1.77,1.35-2.67,2h-.51c-1.06-.77-1.95-1.68-2.66-2.74-.71-1.06-1.27-2.21-1.7-3.44s-.73-2.53-.9-3.89-.26-2.73-.26-4.09c0-3.48.66-6.43,2-8.83,1.34-2.4,3.4-4.31,6.21-5.72h.4c.24.13.63.32,1.18.57.54.25,1.14.54,1.8.84.66.31,1.34.62,2.04.96.71.34,1.34.66,1.92.96.58.31,1.05.58,1.42.82.36.24.55.42.55.54,0,.13-.08.27-.25.44-.16.16-.35.33-.55.5-.19.18-.39.37-.55.6-.16.23-.25.47-.25.76v16.45c0,.13.02.26.06.39.03.13.08.24.14.34.06.1.15.14.27.14.27,0,.54-.08.79-.22.25-.15.48-.33.67-.54.15-.08.27-.11.37-.11v-.02ZM135.99,104.7l-4.84-2.57c-.32.61-.57,1.27-.75,1.96-.18.69-.33,1.39-.42,2.11-.1.72-.16,1.45-.19,2.17-.03.72-.05,1.44-.05,2.13,0,.35.02.89.07,1.6s.11,1.5.22,2.38c.09.88.23,1.77.38,2.68.16.91.35,1.74.59,2.49.24.74.51,1.36.83,1.85.32.48.68.72,1.11.72.14,0,.34-.09.63-.27.29-.19.58-.39.89-.64.31-.23.59-.47.87-.71s.47-.42.6-.54h.07v-15.36Z"/>
          <path class="cls-8" d="M158.82,121.05c.09,0,.19.05.31.15.12.1.23.23.34.37.11.15.21.3.29.45s.13.27.14.36c0,.11-.09.27-.3.5-.2.23-.45.48-.75.77-.31.28-.65.59-1.02.91-.37.32-.72.62-1.06.91-.34.28-.64.55-.9.77-.26.22-.45.38-.55.47h-.51l-5.11-3.83-.25-.5c0-.08.07-.2.19-.36.13-.16.27-.35.43-.54s.33-.36.48-.54c.15-.18.26-.28.33-.36v-16.73c-.13,0-.32.02-.59.05-.27.04-.56.05-.85.04-.29,0-.54-.05-.75-.14-.22-.09-.33-.25-.33-.51v-1.68c.1-.24.32-.43.63-.56.32-.13.66-.3,1.06-.49.39-.2.79-.47,1.19-.84.4-.36.73-.9,1-1.61.18-.5.34-1.04.48-1.62.14-.58.25-1.17.35-1.79.09-.61.18-1.23.26-1.82.08-.59.15-1.16.23-1.71.03-.11.09-.21.19-.3s.18-.15.26-.21h1.28c.33,0,.49.2.49.59v9.04c.15,0,.41-.02.8-.07.38-.04.77-.07,1.16-.07s.73.05,1.04.15c.3.1.45.3.45.57v1.57c0,.39,0,.7-.05.92-.03.23-.11.37-.24.45-.12.08-.31.12-.56.13-.25.01-.59,0-1.02-.04-.42-.03-.95-.05-1.6-.05v17.26c.25.16.49.35.71.56.22.21.46.39.71.56.09-.08.21-.18.37-.31s.31-.26.46-.39c.16-.13.31-.25.46-.35.15-.1.27-.15.37-.15h-.01Z"/>
          <path class="cls-8" d="M177.12,98.31c.08.19.24.58.5,1.19.26.6.57,1.33.91,2.14.34.82.71,1.69,1.08,2.59.38.91.72,1.74,1.05,2.52.32.78.59,1.44.8,1.97.21.54.32.84.32.9,0,.11-.22.32-.65.62-.43.31-.99.67-1.67,1.1-.67.42-1.42.87-2.21,1.35-.8.47-1.58.93-2.32,1.36s-1.4.81-1.99,1.14c-.58.33-.97.56-1.19.68.12.66.29,1.34.49,2.06.21.72.49,1.38.85,2,.35.61.78,1.13,1.28,1.52.5.39,1.12.6,1.84.6.24,0,.57-.08,1-.23.43-.15.87-.34,1.3-.56.43-.22.86-.46,1.23-.72.38-.26.63-.5.77-.72l.25-.05c.1,0,.21.05.3.15.09.1.16.23.23.37.07.14.11.31.15.46.03.16.06.3.06.41,0,.03,0,.09-.02.16-.01.08-.03.13-.07.16l-6.95,5.26-.45.11c-1.47-.53-2.7-1.36-3.71-2.52-1-1.16-1.81-2.48-2.42-3.98-.61-1.49-1.04-3.07-1.3-4.74-.26-1.67-.39-3.29-.39-4.85,0-1.85.25-3.52.74-5,.49-1.48,1.2-2.76,2.1-3.85.9-1.08,2.01-1.95,3.3-2.62,1.29-.67,2.73-1.11,4.3-1.33l.51.34h-.03ZM176.76,109.89l-3.64-8.19-.92.81c-.48,1.16-.79,2.37-.94,3.64-.15,1.27-.22,2.54-.22,3.8,0,.54.02,1.1.06,1.67.04.57.09,1.13.15,1.67l5.51-3.38Z"/>
          <path class="cls-8" d="M28.12,122.15c-.08-.16-.17-.33-.29-.5-.11-.18-.24-.32-.35-.45l-.02-.02c-.13-.13-.23-.2-.32-.2l-.38.2c-.19.21-.41.38-.65.55-.24.16-.51.24-.81.24-.14,0-.25-.05-.33-.15-.09-.11-.15-.23-.19-.39-.05-.15-.08-.32-.08-.47v-25.95c.07-.05.17-.14.31-.24.14-.11.27-.22.41-.34.14-.12.26-.24.37-.36.1-.12.16-.22.16-.32l-.23-.47-4.75-3.94h-.63c-.1.09-.3.24-.57.46-.29.21-.59.47-.96.77-.37.3-.74.61-1.14.95-.4.34-.76.66-1.1.95-.33.3-.6.57-.82.8-.22.24-.33.41-.33.49.03.12.09.24.18.39.09.15.21.3.33.44.13.14.26.25.39.35s.25.14.38.14c.05,0,.13-.05.25-.15s.26-.22.4-.35c.14-.13.27-.26.4-.39.13-.13.26-.25.26-.25l1.11.92v21.66l-6.82,5.54c-.74-.54-1.47-1.1-2.18-1.67-.71-.57-1.42-1.14-2.13-1.72.57-.39,1.02-.78,1.34-1.16.32-.38.56-.8.72-1.26.16-.46.25-.96.29-1.51.03-.55.05-1.17.05-1.88v-17.26c0-.71-.15-1.38-.43-2s-.65-1.19-1.1-1.73c-.45-.53-.94-1.01-1.47-1.44-.54-.43-1.06-.8-1.55-1.12l-.58.05c-.1.09-.3.26-.59.51-.3.25-.64.54-1.03.88-.39.34-.79.69-1.21,1.06-.42.37-.81.72-1.16,1.05-.35.33-.65.61-.88.87-.24.25-.35.42-.35.49l.16.39c.15.15.32.33.51.55.19.21.39.32.58.32.05,0,.14-.05.26-.16.14-.11.27-.24.43-.39.15-.15.3-.3.45-.44.02-.02.02-.02.04-.03,1.67-1.65,3.29-2.54,3.29-2.54-.35.57-.99,1.86-1.61,3.21.07.12.15.24.2.38.15.35.24.74.29,1.16.05.42.07.82.07,1.22v17.48c0,.58-.15,1.11-.46,1.57-.31.47-.65.89-1.03,1.26-.38.37-.72.69-1.03.95s-.46.46-.46.61l.21.42,8.17,6.57h.58c1.46-1.15,2.89-2.32,4.29-3.49s2.83-2.33,4.29-3.49c.13,1.48.49,2.84,1.1,4.08.62,1.24,1.48,2.23,2.62,2.98l.54-.05c.1-.09.3-.24.57-.46.27-.22.59-.47.95-.76.35-.3.72-.59,1.1-.9s.72-.61,1.04-.9c.32-.28.57-.54.78-.76.21-.21.31-.36.31-.46,0-.08-.03-.2-.11-.36Z"/>
        </g>
        <g>
          <path class="cls-8" d="M215.27,89.29c2.54,0,4.87.47,6.95,1.4,2.09.93,3.87,2.25,5.35,3.93,1.48,1.69,2.64,3.72,3.45,6.1.81,2.38,1.21,5.01,1.21,7.88,0,1.79-.14,3.44-.42,4.95-.27,1.51-.69,2.95-1.22,4.31-.54,1.36-1.21,2.67-2,3.93-.8,1.26-1.71,2.53-2.75,3.82h.07l-1.02,1.15-.39.16h-18.01c-.33,0-.49-.19-.49-.56v-.47l.21-.39c.42-.39.88-.79,1.37-1.18.49-.41.96-.83,1.38-1.3.42-.47.79-.98,1.07-1.54.29-.56.43-1.21.43-1.93v-17.07c0-.45-.06-.79-.18-1.04-.12-.24-.27-.43-.46-.55-.18-.12-.39-.2-.59-.24-.21-.03-.41-.08-.59-.13-.19-.04-.34-.11-.46-.2-.13-.09-.18-.23-.18-.44,0-.08.15-.23.43-.46.29-.23.66-.5,1.12-.82.45-.32.95-.66,1.48-1.01.54-.35,1.06-.69,1.56-1.01.5-.32.95-.59,1.32-.84.39-.24.65-.42.8-.5-.82,0-1.65.05-2.48.15-.82.1-1.63.27-2.42.5-.79.23-1.55.54-2.31.92-.75.38-1.46.87-2.11,1.45h-.54c-.13-.05-.27-.15-.45-.28-.18-.13-.27-.27-.27-.45,0-.05.06-.26.17-.61.11-.35.25-.78.42-1.28s.37-1.04.57-1.61c.21-.57.41-1.1.59-1.6.18-.49.35-.91.49-1.23.14-.33.24-.5.29-.55,1.39-.48,2.81-.83,4.25-1.05,1.43-.22,2.88-.32,4.34-.32h0ZM227.11,114.17c0-1.23-.04-2.48-.1-3.75-.07-1.27-.21-2.51-.42-3.74-.21-1.23-.5-2.4-.88-3.53-.38-1.13-.87-2.17-1.48-3.1-.62-.94-1.37-1.77-2.25-2.49-.89-.72-1.94-1.28-3.17-1.7h.05c-.1-.03-.21-.05-.31-.05h-.31c-.45,0-.82.15-1.13.46-.3.31-.54.68-.72,1.13-.18.45-.31.92-.39,1.42-.08.5-.11.95-.11,1.35v18.27c0,.34-.07.65-.19.92-.13.28-.29.54-.48.77-.19.23-.41.45-.65.65-.24.2-.47.37-.7.55h11.7c.48-1.12.86-2.28,1.13-3.49.27-1.22.41-2.43.41-3.67h.01Z"/>
          <path class="cls-8" d="M256.18,111.98c0,1.23-.08,2.43-.23,3.59-.15,1.16-.41,2.28-.79,3.33s-.88,2.04-1.51,2.95c-.63.91-1.43,1.73-2.38,2.43-.14.09-.39.28-.77.59-.38.3-.78.6-1.2.91-.43.31-.82.58-1.2.81-.37.23-.61.34-.71.32-1.41-.45-2.65-1.12-3.72-2.02-1.07-.9-1.97-1.96-2.69-3.19-.72-1.23-1.27-2.59-1.63-4.08-.37-1.49-.55-3.02-.55-4.63,0-1.94.18-3.66.54-5.15.35-1.49.9-2.83,1.63-4.02.73-1.18,1.64-2.25,2.74-3.18,1.1-.93,2.37-1.81,3.85-2.63,1.49.24,2.8.82,3.87,1.72,1.07.9,1.97,2,2.68,3.3.71,1.29,1.23,2.72,1.56,4.27.33,1.54.5,3.1.5,4.64v.02ZM251.61,115.53c0-1.27-.09-2.57-.27-3.92s-.49-2.62-.94-3.83-1.04-2.31-1.79-3.29c-.75-.97-1.7-1.75-2.84-2.31-.49.5-.89,1.11-1.19,1.81-.3.7-.51,1.44-.67,2.21-.16.78-.26,1.56-.31,2.36-.04.79-.07,1.56-.07,2.28,0,.82.04,1.65.12,2.49.08.83.21,1.67.4,2.48.18.81.45,1.6.77,2.36.32.76.73,1.45,1.23,2.08v.05c.18.28.39.56.62.84.23.28.48.55.74.8s.55.47.85.65c.3.18.62.3.95.35.48-.39.88-.88,1.19-1.46.32-.58.56-1.21.74-1.87.18-.67.31-1.36.38-2.06.07-.7.1-1.37.1-2h.01Z"/>
          <path class="cls-8" d="M292.46,121.61c.12,0,.25.07.38.19.13.12.26.26.38.42.11.15.22.32.31.49.09.18.13.3.13.39,0,.05-.09.18-.29.36-.19.19-.43.41-.72.66-.3.25-.62.53-.97.81-.35.28-.69.57-1.02.82-.32.26-.6.49-.86.68-.25.2-.42.32-.5.38l-.44.05c-.7-.28-1.26-.67-1.71-1.16-.45-.49-.81-1.05-1.07-1.68-.26-.62-.45-1.29-.55-2.02-.1-.72-.16-1.45-.16-2.19v-15.22c-.25-.24-.51-.47-.79-.7-.27-.23-.55-.46-.83-.7-.7.43-1.37.88-2.04,1.36-.67.47-1.37.93-2.06,1.36v19.7c0,.19-.06.32-.16.41-.1.09-.22.13-.34.13h-3.91c-.13,0-.23-.04-.34-.13-.1-.09-.16-.22-.16-.41v-20.56c0-.22-.02-.46-.06-.72-.04-.26-.1-.5-.21-.72-.1-.22-.23-.41-.38-.56-.16-.15-.35-.22-.59-.22-.14.09-.42.27-.86.55-.43.27-.89.56-1.36.87-.47.31-.9.58-1.28.82-.38.24-.59.37-.62.39v20.18c0,.19-.06.32-.18.41-.13.09-.24.13-.37.13h-3.89c-.12,0-.23-.05-.32-.15-.09-.1-.14-.23-.14-.37v-20.9c0-.41-.1-.7-.31-.88-.21-.18-.48-.26-.82-.26-.15,0-.29.03-.41.11-.13.08-.24.16-.35.27l-.34.22c-.19,0-.34-.09-.43-.27-.09-.19-.19-.34-.3-.45l.09.16c-.08-.09-.15-.2-.23-.31-.08-.11-.11-.23-.11-.34,0-.09.08-.26.25-.5.16-.24.38-.53.64-.84.26-.32.55-.66.86-1.01.31-.35.61-.69.9-1.01.3-.32.56-.6.8-.85.24-.25.41-.44.51-.55.13-.08.23-.11.34-.11.27,0,.59.19.98.55.38.36.75.8,1.13,1.3.38.5.7,1.01.97,1.52.27.51.43.92.48,1.22l6.85-4.59.56.05c.32.28.63.6.96.97.32.37.62.77.9,1.17.27.42.53.84.73,1.3.21.46.38.91.49,1.36,1.04-.66,2.05-1.34,3.05-2.06s2.01-1.42,3.05-2.11h-.07l.92-.65h.58l4.54,3.83.21.47c.01.13-.06.27-.21.45-.15.16-.33.33-.53.49-.19.16-.41.31-.62.45-.21.14-.37.25-.45.32v17.7c0,.11.02.23.05.34.02.11.07.21.13.3.06.09.14.12.25.12.27,0,.56-.11.86-.34.3-.23.56-.44.77-.65.04,0,.09,0,.14-.03.05-.02.1-.03.16-.03h.02Z"/>
          <path class="cls-8" d="M308.02,121.02c.1,0,.23.05.37.19.14.12.26.26.38.42.12.15.21.32.3.49.08.16.14.31.15.42,0,.09-.1.25-.32.49-.21.23-.47.49-.79.78-.32.28-.66.59-1.06.91-.39.32-.76.61-1.12.9-.35.27-.67.54-.96.76-.29.22-.48.37-.58.45l-.49.05c-.98-.48-1.68-1.16-2.11-2.02-.43-.85-.65-1.86-.65-3.02v-17.71l-.18-.45c-.16,0-.33.08-.49.22-.16.14-.31.27-.43.39l.04-.05c-.1.05-.23.15-.37.27-.14.13-.26.2-.39.2-.18,0-.34-.09-.47-.26-.13-.18-.26-.32-.38-.44l-.21-.45c0-.09.1-.27.3-.55s.45-.59.74-.95c.3-.36.64-.74,1-1.15.37-.41.72-.78,1.05-1.15.33-.36.63-.69.89-.96.26-.28.43-.47.53-.59l.4-.16c.08,0,.23.1.46.28.23.19.5.43.81.71.31.28.64.6.98.95.34.35.67.68.99,1,.32.32.59.6.83.85.24.25.4.43.49.51l.21.39c0,.13-.08.27-.24.42-.16.15-.34.28-.55.42-.21.13-.42.25-.64.36-.22.11-.39.21-.5.28v16.17c0,.32.06.61.16.9.1.28.33.42.67.42.16,0,.32-.04.46-.14.14-.1.27-.22.39-.36l.34-.2v.02ZM306,92.14c0,.47-.07.92-.21,1.37-.14.45-.31.88-.5,1.3-.21.42-.43.82-.67,1.22-.24.39-.49.76-.73,1.1l-.41.25h-.32l-.37-.2c-.21-.26-.43-.58-.68-.96s-.48-.79-.71-1.22c-.23-.43-.41-.87-.56-1.3s-.23-.84-.23-1.22c0-1.01.25-1.73.74-2.18.49-.45,1.18-.67,2.02-.67.33,0,.65.05.97.15.32.1.59.25.84.46.25.21.45.47.58.79.14.32.22.69.22,1.12h.01Z"/>
          <path class="cls-8" d="M335.84,121.33c.09,0,.19.07.32.2.13.13.24.28.37.45.11.16.22.33.31.49.08.16.13.27.13.35,0,.21-.19.5-.59.9-.4.39-.86.79-1.37,1.21-.51.42-1.02.8-1.49,1.16-.48.36-.81.61-.99.74l-.51.05c-.45-.28-.88-.59-1.29-.94-.41-.35-.77-.73-1.07-1.16-.3-.43-.54-.9-.72-1.41-.18-.51-.27-1.07-.27-1.69v-17.07c-.29-.24-.56-.48-.81-.72s-.53-.48-.81-.72l-4.12,2.61v19.86c0,.15-.06.27-.16.37-.1.1-.22.15-.34.15h-3.8c-.13,0-.23-.05-.32-.15-.09-.1-.14-.23-.14-.37v-20.45c0-.37-.13-.72-.38-1.05-.25-.33-.55-.49-.89-.49s-.61.13-.81.39c-.06.04-.11.07-.16.09-.04.02-.1.03-.16.03-.14,0-.29-.1-.44-.3-.16-.2-.3-.34-.41-.44l-.16-.36c0-.08.09-.23.27-.47s.41-.53.69-.84c.27-.32.58-.66.92-1.04.34-.38.66-.72.97-1.05.31-.33.58-.62.82-.88.24-.26.4-.44.49-.54l.49-.11c.97.48,1.75,1.13,2.32,1.95.57.81.94,1.81,1.08,2.98l7.04-4.93.58.05,4.5,3.83.21.47c.01.11-.04.25-.18.42-.14.16-.3.34-.47.5-.17.16-.37.32-.55.46-.18.14-.33.25-.41.32v18.06c0,.12.03.23.08.32.04.09.11.14.21.14.21,0,.4-.05.57-.16.17-.11.34-.25.49-.41.16-.15.32-.32.47-.46.16-.15.33-.26.5-.34h.02Z"/>
          <path class="cls-8" d="M352.05,121.02c.1,0,.23.05.37.19.14.12.26.26.38.42s.21.32.3.49c.08.16.14.31.15.42,0,.09-.1.25-.32.49-.21.23-.47.49-.79.78-.32.28-.66.59-1.06.91-.39.32-.77.61-1.12.9-.35.27-.67.54-.96.76-.29.22-.48.37-.58.45l-.49.05c-.98-.48-1.68-1.16-2.11-2.02-.43-.85-.65-1.86-.65-3.02v-17.71l-.18-.45c-.16,0-.33.08-.49.22-.16.14-.31.27-.43.39l.05-.05c-.1.05-.23.15-.37.27-.14.13-.26.2-.39.2-.18,0-.34-.09-.47-.26-.13-.18-.26-.32-.38-.44l-.21-.45c0-.09.1-.27.3-.55s.45-.59.74-.95c.3-.36.64-.74,1.01-1.15.37-.41.72-.78,1.05-1.15.33-.36.63-.69.89-.96.26-.28.43-.47.53-.59l.4-.16c.08,0,.23.1.46.28.23.19.5.43.81.71.31.28.64.6.98.95.34.35.67.68.99,1,.32.32.59.6.83.85.24.25.4.43.49.51l.21.39c0,.13-.08.27-.24.42-.16.15-.34.28-.55.42-.21.13-.42.25-.64.36-.22.11-.39.21-.5.28v16.17c0,.32.06.61.16.9.1.28.33.42.67.42.16,0,.32-.04.46-.14.14-.1.27-.22.39-.36l.34-.2v.02ZM350.03,92.14c0,.47-.07.92-.21,1.37-.14.45-.31.88-.5,1.3-.21.42-.43.82-.67,1.22-.24.39-.49.76-.73,1.1l-.41.25h-.32l-.37-.2c-.21-.26-.43-.58-.69-.96-.25-.38-.48-.79-.71-1.22-.23-.43-.41-.87-.56-1.3-.15-.44-.23-.84-.23-1.22,0-1.01.25-1.73.74-2.18.49-.45,1.18-.67,2.02-.67.33,0,.65.05.97.15.32.1.59.25.85.46.25.21.44.47.58.79.14.32.22.69.22,1.12h.01Z"/>
          <path class="cls-8" d="M376.12,111.98c0,1.23-.08,2.43-.23,3.59-.15,1.16-.41,2.28-.79,3.33-.38,1.05-.88,2.04-1.51,2.95-.63.91-1.43,1.73-2.39,2.43-.14.09-.39.28-.76.59-.38.3-.78.6-1.2.91-.43.31-.82.58-1.2.81-.37.23-.61.34-.71.32-1.42-.45-2.65-1.12-3.72-2.02-1.07-.9-1.97-1.96-2.69-3.19-.72-1.23-1.27-2.59-1.63-4.08-.37-1.49-.55-3.02-.55-4.63,0-1.94.18-3.66.54-5.15.35-1.49.9-2.83,1.63-4.02.73-1.18,1.64-2.25,2.74-3.18,1.1-.93,2.37-1.81,3.85-2.63,1.49.24,2.79.82,3.87,1.72,1.07.9,1.97,2,2.68,3.3.71,1.29,1.23,2.72,1.56,4.27.33,1.54.5,3.1.5,4.64v.02ZM371.55,115.53c0-1.27-.09-2.57-.27-3.92s-.49-2.62-.94-3.83c-.45-1.22-1.04-2.31-1.79-3.29-.75-.97-1.7-1.75-2.84-2.31-.49.5-.89,1.11-1.19,1.81-.3.7-.51,1.44-.67,2.21-.16.78-.26,1.56-.31,2.36-.05.79-.07,1.56-.07,2.28,0,.82.03,1.65.11,2.49.08.83.21,1.67.4,2.48.18.81.45,1.6.76,2.36.32.76.73,1.45,1.23,2.08v.05c.18.28.39.56.62.84.23.28.48.55.74.8s.55.47.84.65.62.3.95.35c.48-.39.88-.88,1.19-1.46.32-.58.56-1.21.74-1.87.18-.67.31-1.36.38-2.06.07-.7.1-1.37.1-2h.01Z"/>
          <path class="cls-8" d="M402.74,121.33c.09,0,.2.07.32.2.12.13.24.28.37.45.11.16.22.33.31.49.08.16.13.27.13.35,0,.21-.19.5-.59.9-.4.39-.86.79-1.37,1.21-.51.42-1.02.8-1.49,1.16-.48.36-.81.61-.99.74l-.51.05c-.45-.28-.88-.59-1.29-.94-.41-.35-.77-.73-1.07-1.16-.3-.43-.54-.9-.72-1.41s-.27-1.07-.27-1.69v-17.07c-.29-.24-.56-.48-.81-.72-.25-.24-.53-.48-.81-.72l-4.12,2.61v19.86c0,.15-.06.27-.16.37-.1.1-.22.15-.34.15h-3.8c-.13,0-.23-.05-.32-.15-.09-.1-.14-.23-.14-.37v-20.45c0-.37-.13-.72-.38-1.05-.25-.33-.55-.49-.89-.49s-.61.13-.81.39c-.06.04-.11.07-.16.09-.04.02-.1.03-.16.03-.14,0-.29-.1-.45-.3-.16-.2-.3-.34-.41-.44l-.16-.36c0-.08.09-.23.27-.47.18-.24.41-.53.69-.84s.58-.66.92-1.04c.34-.38.66-.72.97-1.05.31-.33.58-.62.82-.88.24-.26.4-.44.49-.54l.49-.11c.97.48,1.75,1.13,2.32,1.95.57.81.94,1.81,1.08,2.98l7.04-4.93.58.05,4.5,3.83.21.47c.01.11-.04.25-.18.42-.14.16-.3.34-.47.5-.17.16-.37.32-.55.46-.18.14-.33.25-.41.32v18.06c0,.12.03.23.08.32.05.09.12.14.21.14.21,0,.4-.05.57-.16.17-.11.34-.25.49-.41.16-.15.32-.32.47-.46.16-.15.33-.26.5-.34h.02Z"/>
        </g>
      </g>
      <g>
        <path class="cls-5" d="M395.69,54.76c2.28,1.59,3.53-2.38,4.05-5.49.52-3.11-.05-5.4-5.05-11.01-5-5.61-8-9.53.57-15.1,8.68-5.64,10.31-9.6,17.23-14.2,3.52-2.34,7.39-3.42,8.06-3.32.72.11-1.1.96-1.23,1.07-.42.61-3.88,5.72-1.5,9.13,3.78,5.41,7.68,1,20.19,1.63,1.31.07,1.05.96.39,1.21-6.43,2.41-7.42,6.63-5,9.77,2.27,2.94,13.43,6.66,14.07,8.06.6,1.32-1.81-.34-3.84-.23-11.52.64-13.48,8.46-14.03,10.23-1.76,5.75,2.14,9.12,2.55,12.22.24,1.86-1.86-.87-1.97-1.01-1.33-1.72-6.4-4.94-8.38-5.5-4.95-1.4-.02,4.39.55,8.07.35,2.22-3.46-4.41-6.34-2.84-3.8,2.08-4.98,5.45-2.92,11.02.97,2.61,2.7,6.83,5.1,12.43-7.19-4.82-6.92,3.22-18.99-11.73-22.71-28.14-5.83-16-3.55-14.41Z"/>
        <path class="cls-2" d="M434.71,27.06l-1.25,1.7s-10,2.72-10.63,11.33c-.62,8.42,2.33,14.64,2.45,14.9-.22-.09-8.42-3.55-11.69-1.46-3.25,2.06,2.85,7.41,3.1,7.63-.28-.08-5.75-1.85-7.09-.25-1.37,1.65-1.56,6.5.11,9.31,1.67,2.8,5.53,6.88,5.53,6.88l-23.96-9.79.3-14.32-18.22-15.85,2.35-5.84,10.89-16.22,5.95-9.05,5.41-3.96s-2.71,8.28.22,10.63c2.93,2.34,7.38,2.82,7.38,2.82,0,0,13.51-5.83,14.77-5.44,1.26.38.71,1.49.71,1.49,0,0-3.83,5.94-2.34,8.28,1.49,2.34,2.99,5.21,16.01,7.22Z"/>
        <path class="cls-1" d="M367.71,58.42s1.32-2.74,2.8-3.86c.24-.18.57.08.46.36-.25.63-.5,1.43-.18,1.54.43.16,1.99-.96,3.15-1.46.29-.13.61.14.52.45-.1.34-.1.69.25.76.71.14,5.69-.84,6.09-.32s-.61.98-.56,1.24,2.56,1.57,2.63,1.83-.53.38-.26.6,2.2,1.08,2.21,1.51-1.07.06-.97.27,2.48,1.88,2.49,2.3-.5.13-.43.28.82,1.4.82,1.4l-9.31-3.36-9.27.6-.45-4.16Z"/>
        <path class="cls-4" d="M386.44,143.19c-.82,4.25.47,5.54.7,5.19.04-.07.06-3.88,1-5.1.14-.05.05.38.09.48.14.41.12.87.23,1.3.62,2.54,5.3,5.91,1.28,4.11-2.43-1.09.7,1.5,1,1.82,1.87,1.93-2.67,2.82,2.73,6.58-3.46.53-7.03-1.8-7.4-7.54-.09-1.46-.5,1.64-1.14,1.74-.31.04-2.05-7.25,1.52-8.56Z"/>
        <path class="cls-5" d="M404.58,87.88c-.8-1.7-3.75-3.01-1.06-6.47.88-1.13,1.47-1.66,1.98-3.22.22-.66-.48-2.42-.32-2.53.22-.15,1.24,1.65,1.07,3.08-.28,2.46,2.91.78,7.09,5.35,6.25,6.84,4.59,18.17,3.73,20.69-.02-1.84,2.34-18.88-9.82-22.43-1.9-.55-3.14,2.97-2.7,4.38.19.62.31.61.03,1.16Z"/>
        <path class="cls-5" d="M376.99,66.71c.23-.62.41-.58.97-.24,1.73,1.04,2.82,4.59,2.88,4.74.83,1.82,2.1,7.17,9.35,8.16,3.57.49,3.63-4.06,5.54-4.45,3.27-.85-2.61.45-2.21,6.1-14.82,2.54-12.8-11.72-16.54-14.3Z"/>
        <path class="cls-4" d="M403.15,94.51c-.1-.33-.16-.66-.17-.99,0-.14,0-.28,0-.43,0-.08,0-.17,0-.26.02-.39.09-.76.18-1.13.04-.17.09-.33.14-.49.05-.19.12-.37.19-.54.04-.12.09-.24.14-.35.05-.12.1-.22.14-.33.03-.07.06-.13.09-.19.05-.11.1-.21.16-.3.01-.02.02-.04.03-.06.08-.14.15-.27.21-.38.14-.24.25-.41.3-.49.25.85.28.81.73,1.54.93,1.48-1.63,4.02-2.15,4.4Z"/>
        <polygon class="cls-7" points="378.13 66.16 378.13 66.16 378.13 66.16 378.13 66.16"/>
        <path class="cls-7" d="M399.49,97.79c-.01.29-.02.59-.03.92-.03.05-.05.11-.07.15.04-.42.07-.77.1-1.07Z"/>
        <g>
          <path class="cls-6" d="M370.91,64.06c.05.07.11.14.19.2.28.21.8.31.78.03-.01-.28-1.31-1.43-1.51-1.22.02.04.04.07.06.11.26.47.35.71.47.88Z"/>
          <path class="cls-6" d="M374.18,63.75c.06-.08.1-.16.12-.25.06-.2.08-.46.18-.98,0-.04.01-.08.02-.12-.25-.14-1.14,1.34-1.07,1.61.07.27.53.02.74-.26Z"/>
          <path class="cls-6" d="M374.84,71.35c.24-.04.36-.32.33-.92l1.62-1.92c-.08-.35-.13-.63-.1-1,.13-.1.08.22.18.13.5-.41,1.13-.72,1.05-1.64-.02-.19.03-.35.2-.34.45.03.34-.31.29-.62-.03-.18-.04-.36-.1-.54-.11-.36.1-.26.25-.24,0,0,0-.01,0-.02,0,0,0,0,0,0,.3-.16.13-.39.05-.61-.14-.35-.42-.55-.58-.87.3-.53.86-.5,1.36-.12.44.33.79.77,1.03.5.66-.75-2.19-2.06-2.41-2.16-.11-.05-.2-.1-.27-.14.67-.86,1.47-1.73,1.88-2.32.52-.76-.3-.22-1.19-.05-.61.11-1.11.3-1.54.56,0,0,0,0,0,0-.55.4-.82.97-.94,1.6-.17.88-.05,1.89.01,2.72.07.93.06,1.65-.52,1.73,0-.03,0-.06,0-.09,0,.04-.01.07-.02.11-.07-.62-.15-1.23-.21-1.46-.01-.04-.02-.07-.03-.08-.02-.03-.05,0-.09.09-.22.49-.71,2.65-.63,3.63,0,0,0,.01,0,.02,0,0,0,0,0,.01,0,.01,0,.03,0,.04.01.1.02.19.03.27h0s0,0,0,0c.08.79.1,1.22.23,2.12.05.3-.06.47-.62.6l-.06-.39s.52-1.01-.06-.92-.12.95-.12.95l.1.39c-.07.01-.16.03-.24.04-.01,0-.02,0-.04,0-.01,0-.02,0-.03,0-.02,0-.04,0-.06.01,0,0,0,0,0,0v.03s-.01,0-.03,0c-.01,0-.02,0-.04,0-.08.01-.17.02-.24.03l-.02-.4s.18-.96-.4-.87.21.9.21.9l.06.39c-.58.04-.72-.08-.77-.39-.14-.89-.25-1.31-.41-2.09,0,0,0,0,0,0h0c-.02-.09-.03-.18-.05-.27,0-.01,0-.03,0-.04,0,0,0,0,0-.01,0,0,0-.01,0-.02-.22-.95-1.33-2.87-1.69-3.27-.06-.07-.1-.1-.11-.06,0,.02,0,.05,0,.09,0,.24.11.85.23,1.46-.02-.03-.04-.06-.05-.1,0,.03.02.06.02.09-.58.09-.8-.59-1.01-1.5-.19-.81-.37-1.8-.8-2.6-.3-.56-.73-1.02-1.37-1.24,0,0,0,0,0,0-.49-.12-1.03-.15-1.64-.07-.9.11-1.85-.16-1.12.41.56.44,1.59,1.03,2.49,1.65-.06.06-.13.13-.22.22-.18.16-2.51,2.27-1.65,2.78.31.19.52-.34.84-.78.36-.5.89-.71,1.33-.29-.07.35-.27.63-.3,1-.01.24-.11.51.23.57,0,0,0,0,0,0,0,0,0,.01,0,.02.14-.06.31-.22.31.15,0,.18.04.36.07.54.04.31.04.66.47.5.17-.07.25.08.3.26.2.91.89,1.01,1.49,1.25.13.05-.02-.23.14-.18.13.34.17.62.2.98l2.12,1.35c.15.58.35.81.59.78s.62-.07,1-.15c.02,0,.06,0,.09-.01l1.01-.19Z"/>
        </g>
        <path class="cls-5" d="M395.69,54.76c2.28,1.59,3.53-2.38,4.05-5.49.52-3.11-.05-5.4-5.05-11.01-5-5.61-8-9.53.57-15.1,8.68-5.64,10.31-9.6,17.23-14.2,3.52-2.34,7.39-3.42,8.06-3.32.72.11-1.1.96-1.23,1.07-.42.61-3.88,5.72-1.5,9.13,3.78,5.41,7.68,1,20.19,1.63,1.31.07,1.05.96.39,1.21-6.43,2.41-7.42,6.63-5,9.77,2.27,2.94,13.43,6.66,14.07,8.06.6,1.32-1.81-.34-3.84-.23-11.52.64-13.48,8.46-14.03,10.23-1.76,5.75,2.14,9.12,2.55,12.22.24,1.86-1.86-.87-1.97-1.01-1.33-1.72-6.4-4.94-8.38-5.5-4.95-1.4-.02,4.39.55,8.07.35,2.22-3.46-4.41-6.34-2.84-3.8,2.08-4.98,5.45-2.92,11.02.97,2.61,2.7,6.83,5.1,12.43q-12.65-9.04-18.99-11.73c.38-3.27-5.83-16-3.55-14.41Z"/>
        <path class="cls-2" d="M434.71,27.06l-1.25,1.7s-10,2.72-10.63,11.33c-.62,8.42,2.33,14.64,2.45,14.9-.22-.09-8.42-3.55-11.69-1.46-3.25,2.06,2.85,7.41,3.1,7.63-.28-.08-5.75-1.85-7.09-.25-1.37,1.65-1.56,6.5.11,9.31,1.67,2.8,5.53,6.88,5.53,6.88l-23.96-9.79.3-14.32-18.22-15.85,2.35-5.84,10.89-16.22,5.95-9.05,5.41-3.96s-2.71,8.28.22,10.63c2.93,2.34,7.38,2.82,7.38,2.82,0,0,13.51-5.83,14.77-5.44,1.26.38.71,1.49.71,1.49,0,0-3.83,5.94-2.34,8.28,1.49,2.34,2.99,5.21,16.01,7.22Z"/>
        <path class="cls-1" d="M367.71,58.42s1.32-2.74,2.8-3.86c.24-.18.57.08.46.36-.25.63-.5,1.43-.18,1.54.43.16,1.99-.96,3.15-1.46.29-.13.61.14.52.45-.1.34-.1.69.25.76.71.14,5.69-.84,6.09-.32s-.61.98-.56,1.24,2.56,1.57,2.63,1.83-.53.38-.26.6,2.2,1.08,2.21,1.51-1.07.06-.97.27,2.48,1.88,2.49,2.3-.5.13-.43.28.82,1.4.82,1.4l-9.31-3.36-9.27.6-.45-4.16Z"/>
        <path class="cls-4" d="M386.44,143.19c-.82,4.25.47,5.54.7,5.19.04-.07.06-3.88,1-5.1.14-.05.05.38.09.48.14.41.12.87.23,1.3.62,2.54,5.3,5.91,1.28,4.11-2.43-1.09.7,1.5,1,1.82,1.87,1.93-2.67,2.82,2.73,6.58-3.46.53-7.03-1.8-7.4-7.54-.09-1.46-.5,1.64-1.14,1.74-.31.04-2.05-7.25,1.52-8.56Z"/>
        <path class="cls-4" d="M403.15,94.51c-.1-.33-.16-.66-.17-.99,0-.14,0-.28,0-.43,0-.08,0-.17,0-.26.02-.39.09-.76.18-1.13.04-.17.09-.33.14-.49.05-.19.12-.37.19-.54.04-.12.09-.24.14-.35.05-.12.1-.22.14-.33.03-.07.06-.13.09-.19.05-.11.1-.21.16-.3.01-.02.02-.04.03-.06.08-.14.15-.27.21-.38.14-.24.25-.41.3-.49.25.85.28.81.73,1.54.93,1.48-1.63,4.02-2.15,4.4Z"/>
        <polygon class="cls-7" points="378.13 66.16 378.13 66.16 378.13 66.16 378.13 66.16"/>
        <path class="cls-7" d="M399.49,97.79c-.01.29-.02.59-.03.92-.03.05-.05.11-.07.15.04-.42.07-.77.1-1.07Z"/>
        <g>
          <path class="cls-3" d="M440.71,27.65c-1.18-1.44-15.3-2.33-18.85-5.06-3.78-2.91-3.93-8.12,2.82-12.9.7-.49.72-1.62-.82-1.29-14.75,3.11-17.94,9.44-24,4.3-3.82-3.23-1.35-10.24-1.06-11.08.12-.16,1.97-1.72,1.1-1.62-.81.09-4.98,2.54-8.36,6.34-6.65,7.47-7.33,12.58-15.7,21.81-8.26,9.12-3.56,12.76,3.97,17.75,7.53,4.99,8.9,7.48,9.25,11.26.35,3.78-1.89,8.9-3.03,7.63-.49-.54-1.16-2.63-5.28-5.11-1.3-.78-2.44-1.16-3.39-1.31,1.26-2.16-2.27-2.18,2.41-6.13-.5-.97-2.26.11-3.87,1.87-.79.87-.27,2.45-.3,2.74-.04.5-.36.87-.75,1.14-.08-.11-.17-.18-.24-.17-.32.05-.16.36-.62.43-.28.04-.56-.4-.75-.76-.07-.13-.26-.11-.29.04-.09.37-.25.83-.54.87-.03,0-.05,0-.08,0-.2-.13-.39-.43-.52-.7-.04-.08-.12-.09-.18-.07v.04s-.07.05-.08.1c-.05.29-.14.64-.29.82-.03,0-.05.01-.08.02-.29.04-.58-.34-.77-.67-.07-.13-.26-.09-.29.05-.07.4-.21.91-.49.95-.47.07-.41-.28-.73-.23-.08.01-.14.1-.18.23-.45-.14-.86-.4-1.05-.86-.11-.27-.09-1.94-1.1-2.53-2.06-1.21-4.07-1.7-4.26-.63,6.17,2.59,1.58,3.62,4.78,5.61,0,0,0,0,0,0,.64.22,1.07.68,1.37,1.24.43.79.61,1.79.8,2.6.21.91.43,1.59,1.01,1.5,0-.03-.02-.06-.02-.09.02.03.04.06.05.1-.12-.61-.23-1.22-.23-1.46,0-.04,0-.07,0-.09,0-.04.05,0,.11.06.36.4,1.47,2.32,1.69,3.27,0,0,0,.01,0,.02,0,0,0,0,0,.01,0,.01,0,.03,0,.04.02.1.04.18.05.27h0s0,0,0,0c.16.78.27,1.2.41,2.09.05.3.19.43.77.39l-.06-.39s-.79-.81-.21-.9.4.87.4.87l.02.4c.07,0,.16-.02.24-.03.01,0,.02,0,.04,0,.01,0,.02,0,.03,0v-.03s0,0,0,0c.02,0,.04,0,.06-.01,0,0,.02,0,.03,0,.01,0,.02,0,.04,0,.08-.01.17-.03.24-.04l-.1-.39s-.46-.86.12-.95.06.92.06.92l.06.39c.56-.13.67-.3.62-.6-.14-.89-.15-1.33-.23-2.12,0,0,0,0,0,0h0c0-.09-.02-.18-.03-.28,0-.01,0-.03,0-.04,0,0,0,0,0-.01,0,0,0-.01,0-.02-.06-.84.29-2.57.53-3.34l.35,2.09c.23-.62,2.06.11,2.63.45,1.73,1.04,2.82,4.59,2.88,4.74.83,1.82,2.1,7.17,9.35,8.16l2.88.12c.14-.02-.34.32.46,1.52.43,5.49,3.73,6.67,5.43,8.56.03.03.06.06.08.1.06.07.12.15.18.22.06.08.11.16.16.23.05.07.1.14.14.23.04.05.06.11.09.17,0,.01.01.03.02.05l.15-.32s.05.05.06.07c.14.42.21.69.31,1.16.11.56.11,1.14.03,1.7,0,0,0,0,0,0-.02.18-.05.36-.08.54v.03c-.03.19-.06.38-.1.57-.05.24-.09.47-.15.7h0c0,.08-.03.15-.05.23-.09.4-.16.77-.2,1.12,0,.05,0,.09,0,.13,0,.4-.04.75-.08,1.18v.1c-.03.3-.07.65-.11,1.07.02-.04.05-.1.07-.15-.01.24-.02.5-.03.78.04.61.31,1.51.47,2.11,0,.01.01.04.02.05.86.49,1.34,1.53,2.44,1.68.15.02.3.02.42,0,.16-.03.31-.08.45-.16.02,0,.04-.02.06-.04.23-.15.38-.41.46-.74.07-.29.25-.56.22-.94-.49.31-.91.75-1.49.56-.59-.2-1.2-.43-1.66-1,.4-.13.66.12.89.27.76.52,1.43.3,2.12-.13.2-.13.19-.57.58-.39.06.29.06.56.02.82.64-1.9.01-4.37-1.33-2.28-.11.17-1.61-.48-.02-1.47,1.06-.65-.01-1.23.06-3.33-.1-.33-.16-.66-.17-.99,0-.14,0-.28,0-.43,0-.08,0-.17,0-.26.02-.39.09-.76.18-1.13.04-.17.09-.33.14-.49.05-.19.12-.37.19-.54.04-.12.09-.24.14-.35.05-.12.1-.22.14-.33.03-.07.06-.13.09-.19.05-.11.1-.21.16-.3.01-.02.02-.04.03-.06.08-.14.15-.27.21-.38.14-.24.25-.41.3-.49,0-.23,0-.46.01-.69-.8-1.7-3.75-3.01-1.06-6.47.88-1.13,1.28-.99,1.99-3.23.23-.72.84-.21.75.54-.4,3.36,2.91.78,7.09,5.35,6.25,6.84,4.59,18.17,3.73,20.69-1.65,4.81-4.56,23.87-15.81,26.71-6.52,1.65-11.52,2.27-14.82,11.71-.43.53-.31.82-.42,2.18-.25,3.31.92,3.31,1.11,3.01.04-.06.15-3.66.81-4.77,1.14-1.65.34-6.35,12.46-8.95,11.97-2.56,15.24-10.66,19.07-26.37,2.82-11.56,6.63-18.35-4.02-30.99-.09-.11-.2-.25-.33-.4-.9-1.55-8.18-11.81-4.58-15.21,2.87-2.72,9.34,3.83,8.25,1.36-1.8-4.1-9.31-9.33-3.12-9.22,2.47.05,9.36,2.23,11.43,3.83.17.13,3.46,2.66,2.6.57-1.43-3.48-7.01-6.21-6.72-13.44.09-2.23-.03-11.94,13.18-16.21,2.33-.75,5.64.44,4.54-.91ZM371.11,64.25c-.08-.06-.14-.12-.19-.2-.12-.17-.21-.41-.47-.88-.02-.04-.04-.07-.06-.11.2-.21,1.49.93,1.51,1.22.01.28-.5.18-.78-.03ZM374.49,62.52c-.11.53-.12.79-.18.98-.03.09-.06.16-.12.25-.21.28-.67.53-.74.26s.82-1.75,1.07-1.61c0,.05-.02.08-.02.12ZM420.33,11.04c-1.76,2-2.7,2.27-2.73,4.64-.02,1.62.03,2.31.13,3.38.51,5.27,6.87,6.65,8.58,6.93-19.1.18-19.14,2.19-43.8,9.51-1.26.37,1.25-1.05,4.95-3.98,23.02-18.14,23.16-17.31,32.97-20.62-.02.04-.05.09-.1.14ZM375.28,36.88c-1.48-4.03,4.81-8.99,9.77-17.08,1.44-2.35,5.83-12.81,11.72-16.6-2.6,9.51,2.13,13.18,8.31,12.82-6.93,3.97-17.46,13.17-19.91,14.94-.92.66-1.76,1.26-2.53,1.8-.05.03-5.17,3.6-7.37,4.12ZM408.27,68.67c1.44,2.44,3.49,4.81,4.98,6.39-1.4-1.21-3.45-2.69-6.26-4.15-5.26-2.73-12.44-3.04-12.44-3.04-1.91-1.63-1.44-4.23-1.34-7.31,0,0,0,0,0,0,0,0,0,0,0-.01.02-.54.02-1.09,0-1.65.01-2.68.06-3.98.06-3.98,2.75,2.19,8.45,9.52,9.56,13.29,0,0-.07-3.62-3.81-9.3-4.25-6.44-5.94-7.82-9.6-11.52-2.85-2.87-8.97-5.52-11.54-6.55-.52-.51-.82-.91-.84-1.18.82.21,2.52.42,5.86.58,11.33,3.05,24.76,15.46,30.41,19.15-4.49-.89-7.58,5.01-5.05,9.28ZM411.86,55.88c.15.65.47,1.22.83,1.71-5.54-4.78-17.41-14.4-27-18.13,5.71.32,13.55,1.25,20.47,3.93,5.66,2.19,14.03,7.51,16.89,10.3-.07-.03-.13-.05-.22-.08-.29-.03-12.39-3.97-10.97,2.28ZM423.22,52c-3.11-3.05-7.79-5.35-8.51-5.82-2.12-1.38-13.29-8.67-30.27-9.02-1.77-.04.67-.49,15.94-5.41,15.78-5.08,26.67-3.94,31.2-3.69-3.42,2.2-15.08,9.48-8.36,23.95Z"/>
          <g>
            <path class="cls-6" d="M370.91,64.06c.05.07.11.14.19.2.28.21.8.31.78.03-.01-.28-1.31-1.43-1.51-1.22.02.04.04.07.06.11.26.47.35.71.47.88Z"/>
            <path class="cls-6" d="M374.18,63.75c.06-.08.1-.16.12-.25.06-.2.08-.46.18-.98,0-.04.01-.08.02-.12-.25-.14-1.14,1.34-1.07,1.61.07.27.53.02.74-.26Z"/>
            <path class="cls-6" d="M374.84,71.35c.24-.04.36-.32.33-.92l1.62-1.92c-.08-.35-.13-.63-.1-1,.13-.1.08.22.18.13.5-.41,1.13-.72,1.05-1.64-.02-.19.03-.35.2-.34.45.03.34-.31.29-.62-.03-.18-.04-.36-.1-.54-.11-.36.1-.26.25-.24,0,0,0-.01,0-.02,0,0,0,0,0,0,.3-.16.13-.39.05-.61-.14-.35-.42-.55-.58-.87.3-.53.86-.5,1.36-.12.44.33.79.77,1.03.5.66-.75-2.19-2.06-2.41-2.16-.11-.05-.2-.1-.27-.14.67-.86,1.47-1.73,1.88-2.32.52-.76-.3-.22-1.19-.05-.61.11-1.11.3-1.54.56,0,0,0,0,0,0-.55.4-.82.97-.94,1.6-.17.88-.05,1.89.01,2.72.07.93.06,1.65-.52,1.73,0-.03,0-.06,0-.09,0,.04-.01.07-.02.11-.07-.62-.15-1.23-.21-1.46-.01-.04-.02-.07-.03-.08-.02-.03-.05,0-.09.09-.22.49-.71,2.65-.63,3.63,0,0,0,.01,0,.02,0,0,0,0,0,.01,0,.01,0,.03,0,.04.01.1.02.19.03.27h0s0,0,0,0c.08.79.1,1.22.23,2.12.05.3-.06.47-.62.6l-.06-.39s.52-1.01-.06-.92-.12.95-.12.95l.1.39c-.07.01-.16.03-.24.04-.01,0-.02,0-.04,0-.01,0-.02,0-.03,0-.02,0-.04,0-.06.01,0,0,0,0,0,0v.03s-.01,0-.03,0c-.01,0-.02,0-.04,0-.08.01-.17.02-.24.03l-.02-.4s.18-.96-.4-.87.21.9.21.9l.06.39c-.58.04-.72-.08-.77-.39-.14-.89-.25-1.31-.41-2.09,0,0,0,0,0,0h0c-.02-.09-.03-.18-.05-.27,0-.01,0-.03,0-.04,0,0,0,0,0-.01,0,0,0-.01,0-.02-.22-.95-1.33-2.87-1.69-3.27-.06-.07-.1-.1-.11-.06,0,.02,0,.05,0,.09,0,.24.11.85.23,1.46-.02-.03-.04-.06-.05-.1,0,.03.02.06.02.09-.58.09-.8-.59-1.01-1.5-.19-.81-.37-1.8-.8-2.6-.3-.56-.73-1.02-1.37-1.24,0,0,0,0,0,0-.49-.12-1.03-.15-1.64-.07-.9.11-1.85-.16-1.12.41.56.44,1.59,1.03,2.49,1.65-.06.06-.13.13-.22.22-.18.16-2.51,2.27-1.65,2.78.31.19.52-.34.84-.78.36-.5.89-.71,1.33-.29-.07.35-.27.63-.3,1-.01.24-.11.51.23.57,0,0,0,0,0,0,0,0,0,.01,0,.02.14-.06.31-.22.31.15,0,.18.04.36.07.54.04.31.04.66.47.5.17-.07.25.08.3.26.2.91.89,1.01,1.49,1.25.13.05-.02-.23.14-.18.13.34.17.62.2.98l2.12,1.35c.15.58.35.81.59.78s.62-.07,1-.15c.02,0,.06,0,.09-.01l1.01-.19Z"/>
          </g>
        </g>
        <path class="cls-5" d="M404.58,87.88c-.8-1.7-3.75-3.01-1.06-6.47.88-1.13,1.47-1.66,1.98-3.22.22-.66-.48-2.42-.32-2.53.22-.15,1.24,1.65,1.07,3.08-.28,2.46,2.91.78,7.09,5.35,6.25,6.84,4.59,18.17,3.73,20.69-.02-1.84,2.34-18.88-9.82-22.43-1.9-.55-3.14,2.97-2.7,4.38.19.62.31.61.03,1.16Z"/>
        <path class="cls-5" d="M376.99,66.71c.23-.62.41-.58.97-.24,1.73,1.04,2.82,4.59,2.88,4.74.83,1.82,2.1,7.17,9.35,8.16,3.57.49,3.63-4.06,5.54-4.45,3.27-.85-2.61.45-2.21,6.1-14.82,2.54-12.8-11.72-16.54-14.3Z"/>
        <path class="cls-7" d="M403.83,101.16c-.69.43-1.36.65-2.12.13-.23-.15-.48-.4-.89-.27.46.58,1.07.8,1.66,1,.58.19,1-.25,1.49-.56.03.38-.15.64-.22.94-.08.33-.24.58-.46.74-.02.02-.04.03-.06.04-.13.08-.28.13-.45.16-.13.02-.28.01-.42,0-1.09-.15-1.58-1.19-2.44-1.68,0,0-.02-.03-.02-.05-.17-.59-.44-1.5-.47-2.11.01-.28.02-.54.03-.78-.03.05-.05.11-.07.15.04-.42.07-.77.1-1.07v-.1c.02-.4.04-.78.09-1.18,0-.04,0-.08,0-.13.04-.35.11-.72.2-1.12.02-.08.04-.15.05-.23h0c.06-.23.1-.47.15-.7.04-.19.07-.38.1-.57v-.03c.03-.18.06-.36.08-.54,0,0,0,0,0,0,.07-.56.13-1.12.15-1.68.02-.35-.2-.79-.49-1.17-.02-.03-.04-.05-.06-.07-.29-.35-.61-.56-.82-.67.03.03.06.06.08.1.06.07.13.14.18.22.06.07.11.15.16.23.05.07.1.14.14.23.04.05.06.11.09.17,0,.01.01.03.02.05.03.05.04.11.07.17.06.16.13.38.18.66.01.09.03.18.03.26.03.45-.07.85-.26,2.01-.02.12-.05.25-.07.38,0,.01,0,.03,0,.04-.01.06-.02.11-.04.17-.07.34-.24.61-.5.9l-.02.07c-.57.16-1.22.35-1.28.26-.13.13-.28.24-.39.39-.67.88-1.71,1.89-2.52,2.97-.06.08-.11.16-.17.23-.74,1.03-1.24,2.11-1,3.2-.21.41.39,1.16.6,1.5.05.08.12.17.2.23.23.17.38.5.71.31.28-.15-.09-.33-.08-.59.01-.15-.1-.3.06-.45.17.14.22.37.3.56.15.39.4.5.8.39.51-.15,2.02-2.28,2.42-2.72-.03-.41-.43-.58-1.36-.24-.2.07-.98-1.35.88-1.17.43.05.65-.06.81-.29.03.24-.01.46-.36.6.11.17.25.16.38.16h0c.22.15.2.41.29.62.16.37.26.81.65,1,.46.23.81.56,1.15.92.58.59,1.26.68,2,.49.31-.08.62-.2.79-.51.25-.47.47-.95.54-1.48.04-.26.04-.53-.02-.82-.39-.18-.38.26-.58.39Z"/>
      </g>
    </g>
  </g>
</svg>