<?xml version="1.0" encoding="UTF-8"?>
<svg id="Capa_2" data-name="Capa 2" xmlns="http://www.w3.org/2000/svg" viewBox="0 0 266.1 211.68">
  <defs>
    <style>
      .cls-1, .cls-2 {
        fill: #c4b89d;
      }

      .cls-3 {
        fill: #3c342a;
      }

      .cls-2, .cls-4, .cls-5 {
        fill-rule: evenodd;
      }

      .cls-6, .cls-5 {
        fill: #d4a54b;
      }

      .cls-4, .cls-7 {
        fill: #d4a54a;
      }

      .cls-8 {
        fill: #e8dcc7;
      }
    </style>
  </defs>
  <g id="Capa_1-2" data-name="Capa 1">
    <g>
      <g>
        <g>
          <path class="cls-8" d="M60.19,139.08c.1,0,.22.06.35.17.13.11.25.25.38.41.13.16.22.32.31.5s.13.3.13.38c0,.15-.1.36-.32.63-.22.27-.49.57-.82.91-.34.32-.7.67-1.11,1.03-.41.36-.8.7-1.18,1.02-.38.31-.71.61-1.02.86-.31.25-.53.43-.66.53h-.66c-.97-.75-1.93-1.47-2.89-2.19-.96-.72-1.91-1.42-2.89-2.1l-.31-.51c0-.12.08-.3.23-.52.16-.22.32-.46.52-.7.19-.25.4-.47.6-.68.21-.21.36-.38.45-.51v-27.59c0-.7-.14-1.2-.43-1.54-.28-.32-.61-.58-.97-.76-.36-.17-.72-.34-1.07-.47s-.6-.36-.72-.68c0-.15,0-.31.03-.5.03-.19.05-.35.12-.51s.14-.29.25-.4c.1-.1.23-.16.39-.16.39,0,.79.11,1.2.32.41.21.83.31,1.28.31.75,0,1.46-.15,2.13-.46.67-.31,1.35-.65,2.01-1.03.66-.38,1.35-.72,2.03-1.03.69-.31,1.44-.46,2.24-.46.17,0,.3.05.39.16.09.11.14.22.18.36.04.14.05.29.05.46s0,.31.03.45c-.12.3-.38.55-.78.75-.4.2-.82.46-1.25.76-.44.31-.82.72-1.16,1.24-.34.52-.5,1.25-.5,2.21v29.56c.27.19.52.4.75.61.23.21.48.42.75.63.09-.06.22-.17.41-.35.18-.17.38-.34.58-.5.21-.16.4-.3.58-.42.18-.12.32-.19.41-.19h-.03Z"/>
          <path class="cls-8" d="M81.92,139.08c.1,0,.22.06.35.17.13.11.26.26.39.42.13.17.23.34.32.51s.14.31.16.41c0,.12-.1.31-.34.57-.22.26-.5.55-.85.87-.35.32-.74.67-1.15,1.03-.41.36-.82.71-1.2,1.03-.39.32-.72.62-1.02.87-.3.25-.5.43-.62.53h-.58l-5.8-4.35-.28-.57c0-.09.08-.22.22-.41.14-.19.31-.4.49-.61.18-.21.38-.41.54-.61.17-.2.3-.32.38-.41v-18.96c-.14,0-.36.02-.67.06-.31.05-.63.06-.96.05-.32,0-.61-.06-.85-.16-.25-.1-.38-.29-.38-.58v-1.9c.12-.27.36-.48.71-.63.36-.15.75-.34,1.2-.56.44-.22.89-.53,1.35-.96.45-.41.83-1.02,1.14-1.83.21-.57.39-1.18.54-1.84.16-.66.28-1.33.4-2.02.1-.7.21-1.39.3-2.06s.17-1.32.26-1.94c.04-.12.1-.24.22-.34.12-.1.21-.17.3-.24h1.45c.38,0,.56.22.56.67v10.25c.17,0,.47-.02.91-.07.43-.05.87-.07,1.32-.07s.83.06,1.18.17c.34.11.5.34.5.65v1.78c0,.45,0,.79-.05,1.04-.04.26-.13.42-.27.51-.14.09-.35.14-.63.15-.28.01-.67,0-1.15-.05-.48-.04-1.07-.06-1.81-.06v19.57c.28.19.56.4.8.63s.52.45.8.63c.1-.09.23-.2.41-.35.18-.15.35-.3.52-.45.18-.15.35-.29.52-.4.17-.11.31-.17.41-.17h-.01Z"/>
          <path class="cls-8" d="M100.35,138.95c.12,0,.26.06.41.21.16.14.3.3.43.47.13.17.23.36.34.56.09.19.16.35.17.47,0,.1-.12.29-.36.56-.23.26-.53.56-.89.88-.36.32-.75.67-1.2,1.03-.44.36-.87.7-1.27,1.02-.4.31-.76.61-1.09.86-.32.25-.54.42-.66.51l-.56.06c-1.11-.55-1.9-1.32-2.39-2.29-.49-.97-.74-2.11-.74-3.43v-20.08l-.21-.51c-.18,0-.38.09-.56.25-.18.16-.35.31-.49.45l.05-.06c-.12.06-.26.17-.41.31-.16.15-.3.22-.44.22-.21,0-.39-.1-.53-.3-.14-.2-.3-.36-.43-.5l-.23-.51c0-.1.12-.31.34-.62.22-.31.5-.67.84-1.08s.72-.84,1.14-1.3c.41-.46.82-.88,1.19-1.3.38-.41.71-.78,1.01-1.09.3-.32.49-.53.6-.67l.45-.19c.09,0,.26.11.52.32.26.21.57.48.92.81.35.32.72.68,1.11,1.08.39.4.76.77,1.13,1.13.36.36.67.68.94.97.27.29.45.48.56.58l.23.45c0,.15-.09.31-.27.47-.18.17-.39.32-.62.47-.23.15-.48.29-.72.41s-.44.24-.57.32v18.33c0,.36.06.7.18,1.02.12.32.38.47.76.47.18,0,.36-.05.52-.16s.31-.25.44-.41l.39-.22v.02ZM98.06,106.22c0,.53-.08,1.04-.23,1.55-.16.51-.35.99-.57,1.48-.23.47-.49.93-.76,1.38-.27.45-.56.86-.83,1.24l-.47.29h-.36l-.41-.22c-.23-.3-.49-.66-.78-1.09-.28-.43-.54-.89-.8-1.38-.26-.48-.47-.98-.63-1.48-.17-.5-.26-.96-.26-1.38,0-1.14.28-1.96.84-2.47.56-.51,1.33-.76,2.29-.76.38,0,.74.06,1.1.17.36.11.67.29.96.52s.5.53.66.89.25.78.25,1.27h.01Z"/>
          <path class="cls-8" d="M143.78,139.62c.13,0,.28.07.43.21.14.14.3.3.43.47.13.17.25.36.35.56.1.2.14.34.14.45,0,.06-.1.2-.32.41-.22.21-.49.46-.82.75-.34.29-.7.6-1.1.92-.4.32-.78.65-1.15.93-.36.3-.69.56-.97.77-.28.22-.48.36-.57.43l-.5.06c-.79-.32-1.42-.76-1.94-1.32-.5-.56-.92-1.19-1.22-1.9-.3-.71-.5-1.47-.62-2.29-.12-.82-.18-1.64-.18-2.48v-17.25c-.28-.27-.58-.53-.89-.79-.31-.26-.62-.52-.94-.79-.79.48-1.55.99-2.32,1.54-.76.53-1.55,1.06-2.34,1.54v22.33c0,.21-.06.36-.18.46-.12.1-.25.15-.39.15h-4.44c-.14,0-.26-.05-.39-.15-.12-.1-.18-.25-.18-.46v-23.31c0-.25-.03-.52-.06-.82-.04-.3-.12-.57-.23-.82-.12-.25-.26-.46-.43-.63-.18-.17-.4-.25-.67-.25-.16.1-.48.31-.97.62s-1.01.63-1.54.98-1.02.66-1.45.93c-.43.27-.67.42-.7.45v22.88c0,.21-.06.36-.21.46-.14.1-.27.15-.41.15h-4.41c-.14,0-.26-.06-.36-.17-.1-.11-.16-.26-.16-.42v-23.69c0-.46-.12-.79-.35-.99-.23-.2-.54-.3-.93-.3-.17,0-.32.04-.47.12-.14.09-.27.19-.4.31l-.39.25c-.22,0-.39-.1-.49-.31-.1-.21-.22-.38-.34-.51l.1.19c-.09-.1-.17-.22-.26-.35-.09-.12-.13-.26-.13-.38,0-.1.09-.3.28-.57.18-.27.43-.6.72-.96.3-.36.62-.75.97-1.14.35-.4.69-.78,1.02-1.14.34-.36.63-.68.91-.97.27-.29.47-.5.58-.62.14-.09.26-.12.39-.12.31,0,.67.21,1.11.62.43.41.85.91,1.28,1.48.43.57.79,1.14,1.1,1.73s.49,1.04.54,1.38l7.76-5.2.63.06c.36.32.71.68,1.09,1.11.36.42.7.87,1.02,1.33.31.47.6.96.83,1.48.23.52.43,1.03.56,1.54,1.18-.75,2.33-1.52,3.45-2.33,1.13-.82,2.28-1.61,3.45-2.4h-.08l1.05-.73h.66l5.15,4.35.23.53c.01.15-.06.31-.23.51-.17.19-.38.37-.6.56-.22.19-.47.35-.7.51-.23.16-.41.29-.5.36v20.07c0,.12.03.26.05.38.03.12.08.24.14.34.06.1.16.14.28.14.31,0,.63-.12.97-.38.34-.26.63-.5.87-.73.05,0,.1,0,.16-.04.05-.02.12-.04.18-.04h.03Z"/>
          <path class="cls-8" d="M172.4,139.56c.1,0,.22.07.36.21.13.14.26.29.37.46.1.17.21.34.3.51s.13.3.13.38-.1.25-.31.47c-.21.24-.46.51-.79.81-.32.31-.67.62-1.06.96-.39.34-.75.65-1.1.93-.35.29-.66.56-.94.77-.28.21-.48.37-.57.46l-.41.12c-.48-.09-.92-.29-1.33-.62-.41-.34-.78-.72-1.1-1.18-.32-.46-.6-.94-.83-1.45-.23-.52-.4-1.01-.52-1.48-.98.78-1.98,1.56-2.98,2.33-1,.77-2.01,1.53-3.03,2.27h-.58c-1.2-.87-2.21-1.9-3.01-3.1-.8-1.2-1.44-2.51-1.93-3.9s-.83-2.87-1.02-4.41c-.19-1.54-.3-3.09-.3-4.63,0-3.95.75-7.29,2.26-10.01,1.51-2.72,3.86-4.88,7.04-6.48h.45c.27.15.71.36,1.33.65.61.29,1.29.61,2.04.96.75.35,1.51.71,2.32,1.09.8.38,1.51.75,2.17,1.09.66.35,1.19.66,1.6.93.41.27.62.47.62.61,0,.15-.09.31-.28.5-.18.19-.4.37-.62.57-.22.2-.44.42-.62.68-.18.26-.28.53-.28.86v18.65c0,.15.03.3.06.45.04.15.09.27.16.38.06.11.17.16.31.16.31,0,.61-.09.89-.25.28-.17.54-.37.76-.61.17-.09.31-.12.41-.12v-.02ZM164.32,120.54l-5.49-2.92c-.36.7-.65,1.44-.85,2.22-.21.78-.38,1.58-.48,2.4-.12.82-.18,1.64-.22,2.46-.04.82-.05,1.63-.05,2.41,0,.4.03,1.01.08,1.81s.13,1.7.25,2.69c.1.99.26,2.01.43,3.04.18,1.03.4,1.97.67,2.82.27.84.58,1.54.94,2.1.36.55.78.82,1.26.82.16,0,.39-.1.71-.31.32-.21.66-.45,1.01-.72.35-.26.67-.53.98-.81s.53-.47.69-.61h.08v-17.41Z"/>
          <path class="cls-8" d="M190.19,139.08c.1,0,.22.06.35.17.13.11.26.26.39.42.13.17.23.34.32.51s.14.31.16.41c0,.12-.1.31-.34.57-.22.26-.5.55-.85.87-.35.32-.74.67-1.15,1.03-.41.36-.82.71-1.2,1.03-.39.32-.72.62-1.02.87-.3.25-.5.43-.62.53h-.58l-5.8-4.35-.28-.57c0-.09.08-.22.22-.41.14-.19.31-.4.49-.61s.38-.41.54-.61c.17-.2.3-.32.37-.41v-18.96c-.14,0-.36.02-.67.06-.31.05-.64.06-.96.05-.32,0-.61-.06-.85-.16-.25-.1-.38-.29-.38-.58v-1.9c.12-.27.36-.48.71-.63.36-.15.75-.34,1.2-.56.44-.22.89-.53,1.35-.96.45-.41.83-1.02,1.14-1.83.21-.57.39-1.18.54-1.84.15-.66.28-1.33.4-2.02.1-.7.21-1.39.3-2.06.09-.67.17-1.32.26-1.94.04-.12.1-.24.22-.34s.21-.17.3-.24h1.45c.38,0,.56.22.56.67v10.25c.17,0,.47-.02.91-.07.43-.05.87-.07,1.32-.07s.83.06,1.18.17c.34.11.5.34.5.65v1.78c0,.45,0,.79-.05,1.04-.04.26-.13.42-.27.51-.14.09-.35.14-.63.15-.28.01-.67,0-1.15-.05-.48-.04-1.07-.06-1.81-.06v19.57c.28.19.56.4.8.63.25.24.52.45.8.63.1-.09.23-.2.41-.35s.35-.3.52-.45c.18-.15.35-.29.52-.4.17-.11.31-.17.41-.17h-.01Z"/>
          <path class="cls-8" d="M210.94,113.3c.09.21.27.66.57,1.35.3.68.65,1.5,1.03,2.42.39.93.8,1.91,1.23,2.93.43,1.03.82,1.97,1.19,2.86.36.88.67,1.63.91,2.24.23.61.36.96.36,1.02,0,.12-.25.36-.74.71-.49.35-1.13.76-1.89,1.24-.76.47-1.6.98-2.51,1.53-.91.53-1.79,1.06-2.63,1.54s-1.59.92-2.25,1.29c-.66.37-1.1.63-1.35.77.14.75.32,1.52.56,2.33.23.82.56,1.56.96,2.27.4.7.88,1.28,1.45,1.73.57.45,1.27.68,2.08.68.27,0,.65-.09,1.14-.26.49-.17.98-.38,1.48-.63.49-.25.97-.52,1.4-.82.43-.3.71-.57.87-.82l.28-.06c.12,0,.23.06.34.17.1.11.18.26.26.42.08.16.13.35.17.52.04.19.06.34.06.46,0,.04,0,.1-.03.19-.01.09-.04.15-.08.19l-7.88,5.96-.5.12c-1.67-.6-3.07-1.54-4.2-2.86-1.14-1.32-2.06-2.81-2.74-4.51-.69-1.69-1.18-3.48-1.47-5.38-.3-1.89-.44-3.73-.44-5.5,0-2.1.28-3.99.84-5.66.56-1.68,1.36-3.13,2.38-4.36,1.02-1.23,2.28-2.21,3.74-2.97,1.46-.76,3.09-1.25,4.88-1.5l.58.38h-.04ZM210.53,126.42l-4.13-9.29-1.05.92c-.54,1.32-.89,2.68-1.06,4.12-.17,1.44-.25,2.88-.25,4.31,0,.61.03,1.24.06,1.89.04.65.1,1.28.17,1.89l6.25-3.84Z"/>
          <path class="cls-8" d="M42.03,140.32c-.09-.19-.19-.37-.32-.57-.13-.2-.27-.36-.4-.51l-.03-.02c-.14-.15-.26-.22-.36-.22l-.43.22c-.22.24-.47.43-.74.62-.27.19-.58.27-.92.27-.16,0-.28-.06-.38-.17-.1-.12-.17-.26-.22-.45-.05-.17-.09-.36-.09-.53v-29.42c.08-.06.19-.16.35-.27.16-.12.31-.25.47-.38.16-.14.3-.27.41-.41.12-.14.18-.25.18-.36l-.26-.53-5.38-4.47h-.71c-.12.1-.34.27-.65.52-.32.24-.67.53-1.09.87-.41.34-.84.7-1.29,1.08-.45.38-.87.75-1.24,1.08-.38.34-.69.65-.93.91-.25.27-.38.46-.38.56.04.14.1.27.21.45.1.17.23.34.38.5.14.16.3.29.44.4s.28.16.43.16c.05,0,.14-.06.28-.17s.3-.25.45-.4c.16-.15.31-.3.45-.45.14-.15.3-.29.3-.29l1.25,1.04v24.55l-7.74,6.28c-.84-.61-1.67-1.24-2.47-1.89-.8-.65-1.6-1.29-2.42-1.95.65-.45,1.15-.88,1.51-1.32.36-.43.63-.91.82-1.43.18-.52.28-1.09.32-1.71.04-.62.05-1.33.05-2.14v-19.57c0-.81-.17-1.56-.49-2.27s-.74-1.35-1.24-1.96c-.5-.6-1.06-1.14-1.67-1.63-.61-.48-1.2-.91-1.76-1.27l-.66.06c-.12.1-.34.3-.67.58-.34.29-.72.61-1.16.99-.44.38-.89.78-1.37,1.2-.48.42-.92.82-1.32,1.19-.4.37-.74.7-1,.98-.27.29-.4.47-.4.56l.18.45c.17.17.36.37.58.62.22.24.44.36.66.36.05,0,.16-.06.3-.19.16-.12.31-.27.49-.45.17-.17.34-.34.5-.5.02-.02.02-.02.04-.04,1.89-1.87,3.73-2.88,3.73-2.88-.4.65-1.12,2.11-1.82,3.64.08.14.16.28.23.43.17.4.27.84.32,1.32.05.47.08.93.08,1.38v19.82c0,.66-.17,1.25-.52,1.78-.35.53-.74,1.01-1.16,1.43-.43.42-.82.78-1.16,1.08s-.52.52-.52.7l.23.47,9.26,7.45h.66c1.66-1.3,3.27-2.63,4.86-3.96s3.21-2.65,4.86-3.96c.14,1.68.56,3.22,1.24,4.62.7,1.4,1.68,2.53,2.98,3.38l.61-.06c.12-.1.34-.27.65-.52.31-.25.67-.53,1.07-.86.4-.34.82-.67,1.24-1.02s.82-.7,1.18-1.02c.36-.32.65-.61.88-.86.23-.24.35-.41.35-.52,0-.09-.04-.22-.13-.41Z"/>
        </g>
        <g>
          <path class="cls-8" d="M12.6,169.01c2.88,0,5.52.53,7.88,1.59,2.37,1.06,4.39,2.55,6.07,4.46,1.68,1.91,2.99,4.22,3.91,6.92.92,2.69,1.37,5.68,1.37,8.93,0,2.02-.15,3.9-.48,5.61-.31,1.71-.78,3.34-1.39,4.88-.61,1.54-1.37,3.03-2.26,4.46-.91,1.43-1.94,2.87-3.12,4.33h.08l-1.15,1.3-.44.19H2.65c-.38,0-.56-.21-.56-.63v-.53l.23-.45c.48-.45,1-.89,1.55-1.34.56-.46,1.09-.94,1.57-1.48.48-.53.89-1.11,1.22-1.75.32-.63.49-1.37.49-2.19v-19.35c0-.51-.07-.89-.21-1.18-.14-.27-.31-.48-.52-.62-.21-.14-.44-.22-.67-.27-.23-.04-.46-.09-.67-.15-.22-.05-.39-.12-.52-.22-.14-.1-.21-.26-.21-.5,0-.09.17-.26.49-.52.32-.26.75-.57,1.27-.93.5-.36,1.07-.75,1.68-1.14.61-.4,1.2-.78,1.77-1.14.57-.36,1.07-.67,1.5-.96.44-.27.74-.47.91-.57-.93,0-1.88.06-2.81.17-.93.11-1.85.31-2.74.57-.89.26-1.76.61-2.61,1.04-.85.43-1.66.98-2.39,1.64h-.61c-.14-.06-.31-.17-.5-.32-.21-.15-.31-.31-.31-.51,0-.06.07-.3.19-.7.13-.4.28-.88.48-1.45s.41-1.18.65-1.83c.23-.65.47-1.24.67-1.81.21-.56.4-1.03.56-1.39.16-.37.27-.57.32-.62,1.58-.55,3.18-.94,4.81-1.19,1.62-.25,3.26-.36,4.92-.36h0ZM26.02,197.22c0-1.39-.04-2.81-.12-4.25-.08-1.44-.23-2.84-.48-4.23-.23-1.39-.57-2.72-1-4-.43-1.28-.98-2.46-1.68-3.51-.7-1.07-1.55-2.01-2.55-2.82-1.01-.82-2.2-1.45-3.6-1.92h.05c-.12-.04-.23-.06-.35-.06h-.35c-.5,0-.93.17-1.28.52-.34.35-.61.77-.82,1.28-.21.51-.35,1.04-.44,1.61-.09.57-.13,1.08-.13,1.53v20.71c0,.38-.08.73-.22,1.04-.14.32-.32.61-.54.87-.22.26-.46.51-.74.73-.27.22-.53.42-.79.62h13.26c.54-1.27.97-2.58,1.28-3.96.31-1.38.47-2.76.47-4.16h.01Z"/>
          <path class="cls-8" d="M58.97,194.73c0,1.39-.09,2.76-.26,4.07-.17,1.32-.47,2.58-.89,3.78s-1,2.31-1.71,3.34c-.71,1.03-1.62,1.96-2.7,2.76-.16.1-.44.32-.87.67-.43.34-.88.68-1.36,1.03-.49.35-.93.66-1.36.92-.41.26-.69.38-.8.36-1.6-.51-3-1.27-4.22-2.28-1.22-1.02-2.24-2.22-3.05-3.61-.82-1.39-1.44-2.93-1.85-4.62-.41-1.69-.62-3.43-.62-5.25,0-2.2.21-4.15.61-5.84.4-1.69,1.02-3.2,1.85-4.56.83-1.34,1.86-2.55,3.1-3.6,1.24-1.06,2.69-2.05,4.36-2.98,1.69.27,3.17.93,4.39,1.95,1.22,1.02,2.24,2.27,3.04,3.74.8,1.47,1.4,3.08,1.77,4.84.37,1.75.57,3.51.57,5.27v.02ZM53.8,198.76c0-1.44-.1-2.92-.31-4.45-.21-1.53-.56-2.97-1.06-4.35s-1.18-2.62-2.03-3.73c-.85-1.11-1.93-1.99-3.22-2.62-.56.57-1.01,1.25-1.35,2.05-.34.79-.58,1.63-.76,2.51-.18.88-.3,1.76-.35,2.67-.05.89-.08,1.76-.08,2.58,0,.93.04,1.88.13,2.82.09.94.23,1.89.45,2.81.21.92.5,1.81.87,2.67.36.86.83,1.64,1.4,2.36v.06c.21.32.44.63.7.96.26.32.54.62.84.91s.62.53.96.73c.34.2.7.34,1.07.4.54-.45,1-.99,1.35-1.65.36-.66.63-1.37.84-2.12.21-.76.35-1.54.43-2.33.08-.79.12-1.55.12-2.27h.01Z"/>
          <path class="cls-8" d="M100.1,205.65c.13,0,.28.07.43.21.14.14.3.3.43.47.13.17.25.36.35.56.1.2.14.34.14.45,0,.06-.1.2-.32.41-.22.21-.49.46-.82.75-.34.29-.7.6-1.1.92-.4.32-.78.65-1.15.93-.36.3-.68.56-.97.77-.28.22-.48.36-.57.43l-.5.06c-.79-.32-1.42-.76-1.94-1.32-.5-.56-.92-1.19-1.22-1.9-.3-.71-.5-1.47-.62-2.28-.12-.82-.18-1.64-.18-2.48v-17.25c-.28-.27-.58-.53-.89-.79-.31-.26-.62-.52-.94-.79-.79.48-1.55.99-2.32,1.54-.76.53-1.55,1.06-2.34,1.54v22.33c0,.21-.07.36-.18.46-.12.1-.25.15-.39.15h-4.44c-.14,0-.26-.05-.39-.15-.12-.1-.18-.25-.18-.46v-23.31c0-.25-.03-.52-.06-.82-.04-.3-.12-.57-.23-.82-.12-.25-.26-.46-.43-.63-.18-.17-.4-.25-.67-.25-.16.1-.48.31-.97.62-.49.31-1.01.63-1.54.98-.53.35-1.02.66-1.45.93-.43.27-.67.42-.7.45v22.88c0,.21-.06.36-.21.46-.14.1-.27.15-.41.15h-4.41c-.14,0-.26-.06-.36-.17-.1-.11-.16-.26-.16-.42v-23.69c0-.46-.12-.79-.35-.99-.23-.2-.54-.3-.93-.3-.17,0-.32.04-.47.12-.14.09-.27.19-.4.31l-.39.25c-.22,0-.39-.1-.49-.31-.1-.21-.22-.38-.34-.51l.1.19c-.09-.1-.17-.22-.26-.35-.09-.12-.13-.26-.13-.38,0-.1.09-.3.28-.57.18-.27.43-.6.72-.96.3-.36.62-.75.97-1.14.35-.4.69-.78,1.02-1.14.34-.36.63-.68.91-.97.27-.29.46-.5.58-.62.14-.09.26-.12.39-.12.31,0,.67.21,1.11.62.43.41.85.91,1.28,1.48.43.57.79,1.14,1.1,1.73.31.58.49,1.04.54,1.38l7.76-5.2.63.06c.36.32.71.68,1.09,1.11.36.42.7.87,1.02,1.33.31.47.6.96.83,1.48.23.52.43,1.03.56,1.54,1.18-.75,2.33-1.52,3.45-2.33,1.13-.82,2.28-1.61,3.45-2.4h-.08l1.05-.73h.66l5.15,4.35.23.53c.01.15-.07.31-.23.51-.17.19-.38.37-.6.56-.22.19-.46.35-.7.51-.23.16-.41.29-.5.36v20.07c0,.12.03.26.05.38.03.12.08.24.14.34.07.1.16.14.28.14.31,0,.63-.12.97-.38.34-.26.64-.5.87-.73.05,0,.1,0,.15-.04.05-.02.12-.04.18-.04h.03Z"/>
          <path class="cls-8" d="M117.74,204.98c.12,0,.26.06.41.21.16.14.3.3.43.47.13.17.23.36.34.56.09.19.15.35.17.47,0,.1-.12.29-.36.56-.23.26-.53.56-.89.88-.36.32-.75.67-1.2,1.03-.44.36-.87.7-1.27,1.02-.4.31-.76.61-1.09.86-.32.25-.54.42-.66.51l-.56.06c-1.11-.55-1.9-1.32-2.39-2.28-.49-.97-.74-2.11-.74-3.43v-20.08l-.21-.51c-.18,0-.38.09-.56.25-.18.16-.35.31-.49.45l.05-.06c-.12.06-.26.17-.41.31-.15.15-.3.22-.44.22-.21,0-.39-.1-.53-.3-.14-.2-.3-.36-.43-.5l-.23-.51c0-.1.12-.31.34-.62s.5-.67.84-1.08c.34-.41.72-.84,1.14-1.3.41-.46.82-.88,1.19-1.3.37-.41.71-.78,1.01-1.09.3-.32.49-.53.6-.67l.45-.19c.09,0,.26.11.52.32.26.21.57.48.92.81.35.32.72.68,1.11,1.08.39.4.76.77,1.13,1.13.36.36.67.68.95.97.27.29.45.48.56.58l.23.45c0,.15-.09.31-.27.47-.18.17-.39.32-.62.47-.23.15-.48.29-.72.41-.25.12-.44.24-.57.32v18.33c0,.36.07.7.18,1.02.12.32.37.47.76.47.18,0,.36-.05.52-.16.16-.11.31-.25.44-.41l.39-.22v.02ZM115.45,172.24c0,.53-.08,1.04-.23,1.55-.16.51-.35.99-.57,1.48-.23.47-.49.93-.76,1.38-.27.45-.56.86-.83,1.24l-.47.29h-.36l-.41-.22c-.23-.3-.49-.66-.78-1.09s-.54-.89-.8-1.38c-.26-.48-.46-.98-.63-1.48s-.26-.96-.26-1.38c0-1.14.28-1.96.84-2.47.56-.51,1.33-.76,2.29-.76.38,0,.74.06,1.1.17.36.11.67.29.96.52.28.24.5.53.66.89.16.36.25.78.25,1.27h.01Z"/>
          <path class="cls-8" d="M149.28,205.33c.1,0,.22.07.36.22.14.15.27.32.41.51.13.19.25.37.35.56.09.19.14.31.14.4,0,.24-.22.57-.67,1.02-.45.45-.97.89-1.55,1.37-.58.47-1.15.91-1.69,1.32-.54.41-.92.7-1.13.84l-.58.06c-.5-.32-1-.67-1.46-1.07-.47-.4-.87-.83-1.22-1.32-.34-.48-.61-1.02-.82-1.6-.21-.58-.31-1.22-.31-1.91v-19.35c-.32-.27-.63-.55-.92-.82s-.6-.55-.92-.82l-4.67,2.96v22.52c0,.17-.07.31-.18.42-.12.11-.25.17-.39.17h-4.31c-.14,0-.26-.06-.36-.17-.1-.11-.15-.26-.15-.42v-23.19c0-.42-.14-.82-.43-1.19-.28-.37-.62-.56-1.01-.56s-.69.15-.92.45c-.07.05-.13.07-.18.1-.05.02-.12.04-.18.04-.15,0-.32-.11-.5-.34-.18-.22-.34-.38-.47-.5l-.18-.41c0-.09.1-.26.31-.53s.47-.6.78-.96c.31-.36.66-.75,1.05-1.18.39-.43.75-.82,1.1-1.19.35-.37.66-.71.93-.99.27-.3.45-.5.56-.61l.56-.12c1.1.55,1.98,1.28,2.63,2.21.65.92,1.06,2.05,1.23,3.38l7.98-5.59.66.06,5.1,4.35.23.53c.01.12-.05.29-.21.47-.15.19-.34.38-.53.57-.19.19-.41.36-.62.52-.21.16-.37.29-.46.36v20.48c0,.14.04.26.09.36.05.1.13.16.23.16.23,0,.45-.06.65-.19.19-.12.39-.29.56-.46.18-.17.36-.36.53-.52.18-.17.37-.3.57-.38h.03Z"/>
          <path class="cls-8" d="M167.65,204.98c.12,0,.26.06.41.21.15.14.3.3.43.47s.23.36.34.56c.09.19.16.35.17.47,0,.1-.12.29-.36.56-.23.26-.53.56-.89.88-.36.32-.75.67-1.2,1.03-.44.36-.87.7-1.27,1.02-.4.31-.76.61-1.09.86-.32.25-.54.42-.66.51l-.56.06c-1.11-.55-1.9-1.32-2.39-2.28-.49-.97-.74-2.11-.74-3.43v-20.08l-.21-.51c-.18,0-.38.09-.56.25-.18.16-.35.31-.49.45l.05-.06c-.12.06-.26.17-.41.31-.16.15-.3.22-.44.22-.21,0-.39-.1-.53-.3-.14-.2-.3-.36-.43-.5l-.23-.51c0-.1.12-.31.34-.62s.5-.67.84-1.08c.34-.41.73-.84,1.14-1.3.41-.46.81-.88,1.19-1.3.38-.41.71-.78,1.01-1.09.3-.32.49-.53.6-.67l.45-.19c.09,0,.26.11.52.32.26.21.57.48.92.81.35.32.72.68,1.11,1.08.39.4.76.77,1.13,1.13.36.36.67.68.94.97.27.29.45.48.56.58l.23.45c0,.15-.09.31-.27.47-.18.17-.39.32-.62.47-.23.15-.48.29-.72.41-.25.12-.44.24-.57.32v18.33c0,.36.06.7.18,1.02.12.32.38.47.76.47.18,0,.36-.05.52-.16.15-.11.31-.25.44-.41l.39-.22v.02ZM165.36,172.24c0,.53-.08,1.04-.23,1.55-.15.51-.35.99-.57,1.48-.23.47-.49.93-.76,1.38-.27.45-.56.86-.83,1.24l-.46.29h-.36l-.41-.22c-.23-.3-.49-.66-.78-1.09-.28-.43-.54-.89-.8-1.38-.26-.48-.47-.98-.64-1.48-.17-.5-.26-.96-.26-1.38,0-1.14.28-1.96.84-2.47.56-.51,1.33-.76,2.29-.76.38,0,.74.06,1.1.17.36.11.67.29.96.52.28.24.5.53.66.89.15.36.25.78.25,1.27h.01Z"/>
          <path class="cls-8" d="M194.94,194.73c0,1.39-.09,2.76-.26,4.07-.17,1.32-.46,2.58-.89,3.78-.43,1.19-1,2.31-1.71,3.34-.71,1.03-1.62,1.96-2.71,2.76-.15.1-.44.32-.87.67-.43.34-.88.68-1.36,1.03-.49.35-.93.66-1.36.92-.41.26-.69.38-.8.36-1.6-.51-3-1.27-4.22-2.28-1.22-1.02-2.24-2.22-3.05-3.61-.82-1.39-1.44-2.93-1.85-4.62-.41-1.69-.62-3.43-.62-5.25,0-2.2.21-4.15.61-5.84.4-1.69,1.02-3.2,1.85-4.56.83-1.34,1.86-2.55,3.1-3.6,1.24-1.06,2.69-2.05,4.36-2.98,1.69.27,3.17.93,4.38,1.95,1.22,1.02,2.24,2.27,3.04,3.74.8,1.47,1.4,3.08,1.77,4.84.38,1.75.57,3.51.57,5.27v.02ZM189.76,198.76c0-1.44-.1-2.92-.31-4.45s-.56-2.97-1.06-4.35c-.5-1.38-1.18-2.62-2.03-3.73-.85-1.11-1.93-1.99-3.22-2.62-.56.57-1.01,1.25-1.35,2.05-.34.79-.58,1.63-.76,2.51-.18.88-.3,1.76-.35,2.67-.05.89-.08,1.76-.08,2.58,0,.93.04,1.88.13,2.82.09.94.23,1.89.45,2.81.21.92.5,1.81.87,2.67.36.86.83,1.64,1.4,2.36v.06c.21.32.44.63.7.96.26.32.54.62.84.91s.62.53.96.73.7.34,1.07.4c.54-.45,1-.99,1.35-1.65.36-.66.63-1.37.84-2.12.21-.76.35-1.54.43-2.33.08-.79.12-1.55.12-2.27h.01Z"/>
          <path class="cls-8" d="M225.12,205.33c.1,0,.22.07.36.22.14.15.27.32.41.51.13.19.25.37.35.56.09.19.14.31.14.4,0,.24-.22.57-.67,1.02-.45.45-.97.89-1.55,1.37-.58.47-1.15.91-1.69,1.32-.54.41-.92.7-1.13.84l-.58.06c-.5-.32-1-.67-1.46-1.07-.47-.4-.87-.83-1.22-1.32-.34-.48-.61-1.02-.82-1.6s-.31-1.22-.31-1.91v-19.35c-.32-.27-.63-.55-.92-.82-.28-.27-.6-.55-.92-.82l-4.67,2.96v22.52c0,.17-.06.31-.18.42-.12.11-.25.17-.39.17h-4.31c-.14,0-.26-.06-.36-.17-.1-.11-.15-.26-.15-.42v-23.19c0-.42-.14-.82-.43-1.19-.28-.37-.62-.56-1.01-.56s-.69.15-.92.45c-.07.05-.13.07-.18.1-.05.02-.12.04-.18.04-.15,0-.32-.11-.5-.34-.18-.22-.34-.38-.46-.5l-.18-.41c0-.09.1-.26.31-.53.21-.27.47-.6.78-.96s.66-.75,1.05-1.18c.39-.43.75-.82,1.1-1.19.35-.37.66-.71.93-.99.27-.3.45-.5.56-.61l.56-.12c1.1.55,1.98,1.28,2.63,2.21.65.92,1.06,2.05,1.23,3.38l7.98-5.59.66.06,5.1,4.35.23.53c.01.12-.05.29-.21.47-.15.19-.34.38-.53.57-.19.19-.41.36-.62.52-.21.16-.38.29-.46.36v20.48c0,.14.04.26.09.36.05.1.13.16.23.16.23,0,.45-.06.65-.19.19-.12.39-.29.56-.46.18-.17.36-.36.53-.52.18-.17.37-.3.57-.38h.03Z"/>
        </g>
      </g>
      <g>
        <path class="cls-5" d="M207.28,62.08c2.58,1.8,4-2.7,4.59-6.22.59-3.52-.06-6.12-5.72-12.48-5.66-6.36-9.07-10.8.65-17.12,9.83-6.4,11.69-10.89,19.53-16.09,3.99-2.65,8.38-3.88,9.14-3.76.82.12-1.24,1.09-1.39,1.21-.47.7-4.4,6.49-1.7,10.35,4.29,6.13,8.71,1.13,22.89,1.84,1.48.07,1.19,1.09.44,1.37-7.29,2.73-8.41,7.51-5.66,11.07,2.58,3.34,15.22,7.54,15.95,9.14.68,1.49-2.05-.39-4.35-.26-13.06.72-15.28,9.59-15.9,11.6-2,6.51,2.43,10.34,2.89,13.86.28,2.11-2.11-.98-2.23-1.14-1.51-1.95-7.25-5.6-9.5-6.23-5.61-1.59-.02,4.98.63,9.15.39,2.52-3.92-5-7.19-3.22-4.31,2.35-5.64,6.18-3.31,12.49,1.09,2.96,3.06,7.74,5.79,14.09-8.15-5.46-7.85,3.65-21.53-13.3-25.75-31.9-6.6-18.14-4.02-16.33Z"/>
        <path class="cls-2" d="M251.51,30.67l-1.41,1.92s-11.33,3.08-12.05,12.84c-.71,9.54,2.64,16.59,2.78,16.9-.24-.1-9.54-4.02-13.25-1.65-3.68,2.34,3.23,8.4,3.52,8.65-.31-.09-6.51-2.1-8.04-.28-1.56,1.87-1.77,7.37.12,10.55,1.89,3.17,6.27,7.8,6.27,7.8l-27.17-11.1.35-16.24-20.66-17.97,2.66-6.62,12.35-18.39,6.74-10.26,6.13-4.48s-3.07,9.39.25,12.05c3.32,2.66,8.37,3.19,8.37,3.19,0,0,15.32-6.6,16.74-6.17,1.43.44.81,1.69.81,1.69,0,0-4.35,6.74-2.66,9.39,1.69,2.65,3.39,5.91,18.15,8.18Z"/>
        <path class="cls-1" d="M175.56,66.23s1.5-3.1,3.18-4.38c.27-.21.64.09.52.41-.29.71-.57,1.62-.2,1.75.49.18,2.25-1.09,3.57-1.65.33-.14.69.16.6.51-.11.38-.12.78.28.86.81.15,6.45-.95,6.9-.36s-.69,1.11-.63,1.4,2.91,1.78,2.99,2.08-.6.43-.29.68,2.49,1.22,2.51,1.71-1.21.07-1.1.31,2.82,2.14,2.83,2.61-.56.14-.48.32.92,1.59.92,1.59l-10.55-3.8-10.51.68-.51-4.71Z"/>
        <path class="cls-4" d="M196.8,162.32c-.93,4.82.54,6.28.79,5.88.05-.08.07-4.4,1.13-5.79.16-.05.06.43.1.54.16.47.14.99.26,1.47.7,2.87,6.01,6.7,1.45,4.65-2.75-1.23.79,1.71,1.14,2.06,2.11,2.19-3.03,3.2,3.09,7.46-3.93.6-7.97-2.04-8.39-8.55-.11-1.65-.57,1.86-1.29,1.98-.35.05-2.33-8.21,1.72-9.71Z"/>
        <path class="cls-5" d="M217.35,99.63c-.91-1.93-4.25-3.42-1.2-7.34.99-1.28,1.66-1.88,2.25-3.65.25-.74-.54-2.74-.37-2.87.25-.17,1.4,1.87,1.21,3.49-.32,2.79,3.3.88,8.04,6.06,7.09,7.75,5.2,20.6,4.22,23.45-.02-2.08,2.65-21.41-11.13-25.43-2.15-.63-3.56,3.36-3.07,4.96.22.7.36.7.04,1.32Z"/>
        <path class="cls-5" d="M186.08,75.62c.26-.7.46-.66,1.1-.27,1.96,1.18,3.2,5.2,3.27,5.37.94,2.06,2.39,8.12,10.6,9.25,4.05.55,4.12-4.61,6.28-5.05,3.71-.96-2.96.51-2.5,6.91-16.81,2.88-14.51-13.29-18.74-16.21Z"/>
        <path class="cls-4" d="M215.74,107.14c-.11-.37-.18-.74-.2-1.13,0-.16,0-.32,0-.49,0-.09,0-.2.01-.29.03-.44.1-.87.21-1.28.05-.19.1-.37.16-.55.06-.21.14-.42.21-.61.05-.14.1-.27.16-.4.06-.13.11-.25.16-.37.04-.08.07-.14.1-.21.06-.12.11-.24.18-.34.01-.03.02-.05.03-.07.09-.16.17-.31.24-.43.16-.28.28-.47.34-.56.28.96.31.92.83,1.75,1.06,1.68-1.85,4.55-2.43,4.99Z"/>
        <polygon class="cls-7" points="187.37 75 187.37 75 187.37 75 187.37 75"/>
        <path class="cls-7" d="M211.58,110.86c-.01.32-.02.67-.03,1.04-.03.06-.06.12-.08.17.04-.48.08-.87.11-1.21Z"/>
        <g>
          <path class="cls-6" d="M179.19,72.62c.06.08.13.16.22.22.32.23.9.35.89.03-.02-.32-1.48-1.62-1.71-1.38.03.05.05.08.07.13.29.53.4.81.53,1Z"/>
          <path class="cls-6" d="M182.9,72.27c.07-.09.11-.18.14-.28.07-.22.09-.52.21-1.11,0-.05.02-.09.03-.14-.29-.16-1.3,1.52-1.22,1.83.08.31.6.03.84-.29Z"/>
          <path class="cls-6" d="M183.64,80.88c.27-.04.41-.36.38-1.04l1.84-2.17c-.09-.4-.14-.72-.12-1.13.15-.11.09.25.21.15.56-.47,1.28-.81,1.19-1.86-.02-.22.03-.4.23-.38.51.03.39-.35.33-.7-.03-.2-.05-.41-.11-.61-.12-.41.12-.29.29-.27,0,0,0-.01,0-.02,0,0,0,0,0,0,.35-.18.15-.44.05-.7-.15-.39-.47-.63-.66-.98.34-.6.97-.56,1.54-.14.49.37.89.87,1.17.56.75-.85-2.48-2.34-2.73-2.45-.13-.06-.23-.11-.31-.16.76-.98,1.67-1.96,2.13-2.62.59-.86-.34-.25-1.35-.06-.69.13-1.26.34-1.75.64,0,0,0,0,0,0-.62.45-.92,1.1-1.06,1.81-.19,1-.06,2.14.01,3.08.08,1.05.07,1.86-.59,1.97,0-.03,0-.07,0-.1,0,.04-.02.08-.03.12-.08-.71-.17-1.4-.24-1.66-.01-.04-.02-.07-.03-.09-.02-.04-.06,0-.1.1-.25.55-.8,3.01-.72,4.11,0,0,0,.02,0,.02,0,0,0,0,0,.01,0,.02,0,.03,0,.05.01.11.02.21.03.31h0s0,0,0,0c.1.9.11,1.39.27,2.4.05.34-.06.53-.7.68l-.07-.44s.58-1.14-.07-1.04-.14,1.07-.14,1.07l.12.44c-.08.02-.18.03-.27.05-.01,0-.03,0-.04,0-.01,0-.02,0-.03,0-.02,0-.05,0-.07.01,0,0,0,0,0,0v.04s-.02,0-.03,0c-.01,0-.03,0-.04,0-.1.01-.19.03-.27.04l-.02-.46s.21-1.08-.45-.98.24,1.01.24,1.01l.07.44c-.66.05-.82-.1-.87-.44-.15-1.01-.29-1.48-.46-2.37,0,0,0,0,0,0h0c-.02-.1-.04-.2-.06-.31,0-.02,0-.03,0-.05,0,0,0,0,0-.01,0,0,0-.02,0-.02-.25-1.07-1.51-3.26-1.91-3.71-.07-.08-.12-.11-.13-.07,0,.02,0,.06,0,.1,0,.27.13.96.26,1.66-.02-.04-.04-.07-.06-.11,0,.03.02.06.03.1-.66.1-.91-.67-1.15-1.7-.21-.92-.42-2.05-.91-2.95-.34-.64-.83-1.16-1.55-1.41,0,0,0,0,0,0-.56-.14-1.17-.17-1.86-.08-1.02.12-2.09-.18-1.27.46.64.5,1.8,1.16,2.82,1.87-.06.07-.14.15-.25.25-.2.18-2.84,2.57-1.87,3.16.35.21.59-.39.95-.89.41-.57,1.01-.8,1.51-.33-.08.4-.31.71-.34,1.14-.02.27-.12.58.26.65,0,0,0,0,0,0,0,0,0,.01,0,.02.16-.07.35-.25.36.17,0,.21.05.41.08.62.05.35.05.75.53.57.19-.08.29.09.34.3.23,1.03,1.01,1.14,1.69,1.42.15.06-.02-.26.15-.2.15.39.19.7.23,1.11l2.4,1.52c.17.66.4.92.67.88s.71-.08,1.13-.17c.03,0,.07,0,.1-.01l1.14-.22Z"/>
        </g>
        <path class="cls-5" d="M207.28,62.08c2.58,1.8,4-2.7,4.59-6.22.59-3.52-.06-6.12-5.72-12.48-5.66-6.36-9.07-10.8.65-17.12,9.83-6.4,11.69-10.89,19.53-16.09,3.99-2.65,8.38-3.88,9.14-3.76.82.12-1.24,1.09-1.39,1.21-.47.7-4.4,6.49-1.7,10.35,4.29,6.13,8.71,1.13,22.89,1.84,1.48.07,1.19,1.09.44,1.37-7.29,2.73-8.41,7.51-5.66,11.07,2.58,3.34,15.22,7.54,15.95,9.14.68,1.49-2.05-.39-4.35-.26-13.06.72-15.28,9.59-15.9,11.6-2,6.51,2.43,10.34,2.89,13.86.28,2.11-2.11-.98-2.23-1.14-1.51-1.95-7.25-5.6-9.5-6.23-5.61-1.59-.02,4.98.63,9.15.39,2.52-3.92-5-7.19-3.22-4.31,2.35-5.64,6.18-3.31,12.49,1.09,2.96,3.06,7.74,5.79,14.09q-14.34-10.24-21.53-13.3c.43-3.71-6.6-18.14-4.02-16.33Z"/>
        <path class="cls-2" d="M251.51,30.67l-1.41,1.92s-11.33,3.08-12.05,12.84c-.71,9.54,2.64,16.59,2.78,16.9-.24-.1-9.54-4.02-13.25-1.65-3.68,2.34,3.23,8.4,3.52,8.65-.31-.09-6.51-2.1-8.04-.28-1.56,1.87-1.77,7.37.12,10.55,1.89,3.17,6.27,7.8,6.27,7.8l-27.17-11.1.35-16.24-20.66-17.97,2.66-6.62,12.35-18.39,6.74-10.26,6.13-4.48s-3.07,9.39.25,12.05c3.32,2.66,8.37,3.19,8.37,3.19,0,0,15.32-6.6,16.74-6.17,1.43.44.81,1.69.81,1.69,0,0-4.35,6.74-2.66,9.39,1.69,2.65,3.39,5.91,18.15,8.18Z"/>
        <path class="cls-1" d="M175.56,66.23s1.5-3.1,3.18-4.38c.27-.21.64.09.52.41-.29.71-.57,1.62-.2,1.75.49.18,2.25-1.09,3.57-1.65.33-.14.69.16.6.51-.11.38-.12.78.28.86.81.15,6.45-.95,6.9-.36s-.69,1.11-.63,1.4,2.91,1.78,2.99,2.08-.6.43-.29.68,2.49,1.22,2.51,1.71-1.21.07-1.1.31,2.82,2.14,2.83,2.61-.56.14-.48.32.92,1.59.92,1.59l-10.55-3.8-10.51.68-.51-4.71Z"/>
        <path class="cls-4" d="M196.8,162.32c-.93,4.82.54,6.28.79,5.88.05-.08.07-4.4,1.13-5.79.16-.05.06.43.1.54.16.47.14.99.26,1.47.7,2.87,6.01,6.7,1.45,4.65-2.75-1.23.79,1.71,1.14,2.06,2.11,2.19-3.03,3.2,3.09,7.46-3.93.6-7.97-2.04-8.39-8.55-.11-1.65-.57,1.86-1.29,1.98-.35.05-2.33-8.21,1.72-9.71Z"/>
        <path class="cls-4" d="M215.74,107.14c-.11-.37-.18-.74-.2-1.13,0-.16,0-.32,0-.49,0-.09,0-.2.01-.29.03-.44.1-.87.21-1.28.05-.19.1-.37.16-.55.06-.21.14-.42.21-.61.05-.14.1-.27.16-.4.06-.13.11-.25.16-.37.04-.08.07-.14.1-.21.06-.12.11-.24.18-.34.01-.03.02-.05.03-.07.09-.16.17-.31.24-.43.16-.28.28-.47.34-.56.28.96.31.92.83,1.75,1.06,1.68-1.85,4.55-2.43,4.99Z"/>
        <polygon class="cls-7" points="187.37 75 187.37 75 187.37 75 187.37 75"/>
        <path class="cls-7" d="M211.58,110.86c-.01.32-.02.67-.03,1.04-.03.06-.06.12-.08.17.04-.48.08-.87.11-1.21Z"/>
        <g>
          <path class="cls-3" d="M258.32,31.34c-1.34-1.63-17.34-2.65-21.36-5.74-4.29-3.3-4.45-9.21,3.19-14.62.79-.56.81-1.83-.93-1.46-16.73,3.52-20.34,10.7-27.21,4.88-4.33-3.66-1.53-11.61-1.2-12.56.13-.18,2.23-1.95,1.25-1.83-.92.1-5.64,2.88-9.48,7.18-7.54,8.47-8.31,14.26-17.79,24.73-9.37,10.34-4.04,14.46,4.5,20.13,8.54,5.66,10.09,8.49,10.49,12.77.4,4.28-2.14,10.09-3.43,8.65-.55-.62-1.32-2.98-5.98-5.79-1.47-.89-2.76-1.32-3.84-1.49,1.42-2.45-2.57-2.47,2.73-6.95-.56-1.1-2.57.12-4.39,2.12-.89.98-.31,2.78-.33,3.11-.05.57-.41.98-.85,1.29-.09-.12-.19-.2-.28-.19-.36.05-.18.41-.71.49-.31.05-.64-.45-.85-.86-.08-.15-.29-.12-.33.04-.1.42-.28.94-.61.99-.03,0-.06,0-.09,0-.23-.15-.44-.49-.59-.79-.04-.09-.13-.11-.21-.08v.05s-.08.05-.09.12c-.06.33-.16.72-.33.93-.03,0-.05.01-.09.02-.33.05-.66-.39-.87-.76-.08-.14-.3-.11-.32.06-.08.45-.24,1.03-.55,1.07-.53.08-.46-.31-.82-.26-.09.01-.15.12-.21.26-.51-.16-.98-.45-1.2-.98-.13-.3-.1-2.2-1.25-2.87-2.34-1.37-4.62-1.93-4.82-.72,6.99,2.94,1.79,4.11,5.42,6.36,0,0,0,0,0,0,.73.25,1.21.77,1.55,1.41.48.9.69,2.02.91,2.95.24,1.03.49,1.8,1.15,1.7,0-.03-.02-.06-.03-.1.02.04.04.07.06.11-.14-.7-.26-1.38-.26-1.66,0-.04,0-.08,0-.1,0-.04.06-.01.13.07.41.45,1.66,2.63,1.91,3.71,0,0,0,.01,0,.02,0,0,0,0,0,.01,0,.02,0,.03,0,.05.02.11.04.21.06.31h0s0,0,0,0c.18.88.31,1.36.46,2.37.05.34.22.49.87.44l-.07-.44s-.9-.91-.24-1.01.45.98.45.98l.02.46c.08,0,.18-.02.27-.04.01,0,.03,0,.04,0,.01,0,.02,0,.03,0v-.04s0,0,0,0c.03,0,.05,0,.07-.01.01,0,.02,0,.03,0,.01,0,.03,0,.04,0,.1-.02.19-.03.27-.05l-.12-.44s-.52-.97.14-1.07.07,1.04.07,1.04l.07.44c.64-.15.75-.34.7-.68-.15-1.01-.17-1.5-.27-2.4,0,0,0,0,0,0h0c-.01-.1-.02-.2-.03-.31,0-.02,0-.03,0-.05,0,0,0,0,0-.01,0,0,0-.02,0-.02-.07-.95.33-2.92.6-3.79l.39,2.37c.26-.7,2.34.12,2.98.5,1.96,1.18,3.19,5.2,3.27,5.37.94,2.06,2.38,8.13,10.6,9.25l3.27.14c.16-.02-.39.36.52,1.72.49,6.22,4.23,7.56,6.15,9.7.03.03.07.07.1.11.07.08.14.17.2.25.07.09.13.18.18.26.06.08.11.16.16.26.04.06.07.12.1.19.01.01.01.03.02.05l.16-.36s.06.05.07.08c.16.47.24.79.35,1.32.13.63.12,1.29.04,1.92,0,0,0,0,0,0-.02.2-.06.41-.09.61v.04c-.04.22-.07.43-.12.65-.05.27-.11.54-.17.8h0c-.01.09-.04.17-.05.26-.1.46-.18.87-.23,1.27,0,.06,0,.1,0,.15-.01.45-.04.85-.09,1.34v.12c-.04.34-.07.73-.12,1.21.02-.05.05-.11.08-.17-.01.28-.02.57-.04.89.04.69.35,1.72.54,2.39,0,.02.01.04.02.05.97.55,1.52,1.73,2.76,1.9.17.02.33.03.48,0,.18-.04.36-.09.52-.18.02-.01.04-.02.06-.04.26-.17.43-.46.53-.84.07-.33.28-.63.25-1.06-.55.35-1.03.85-1.69.64-.67-.23-1.36-.48-1.88-1.14.46-.15.74.13,1.01.3.86.59,1.62.34,2.4-.15.22-.14.22-.65.66-.44.07.33.07.63.02.93.73-2.16.02-4.95-1.5-2.59-.13.19-1.82-.55-.02-1.67,1.2-.73-.02-1.39.07-3.77-.11-.37-.18-.74-.2-1.13,0-.16,0-.32,0-.49,0-.09,0-.2.01-.29.03-.44.1-.87.21-1.28.05-.19.1-.37.16-.55.06-.21.14-.42.21-.61.05-.14.1-.27.16-.4.06-.13.11-.25.16-.37.04-.08.07-.14.1-.21.06-.12.11-.24.18-.34.01-.03.02-.05.03-.07.09-.16.17-.31.24-.43.16-.28.28-.47.34-.56,0-.26,0-.52.01-.78-.91-1.92-4.25-3.41-1.21-7.33,1-1.29,1.45-1.13,2.25-3.66.26-.82.95-.24.85.62-.45,3.81,3.3.88,8.04,6.07,7.09,7.75,5.2,20.6,4.23,23.45-1.88,5.45-5.17,27.06-17.92,30.28-7.39,1.87-13.06,2.58-16.8,13.27-.48.6-.36.93-.47,2.47-.29,3.75,1.04,3.76,1.26,3.41.04-.07.17-4.15.91-5.4,1.3-1.87.38-7.2,14.13-10.14,13.57-2.91,17.27-12.09,21.62-29.9,3.19-13.11,7.52-20.8-4.55-35.13-.1-.13-.23-.28-.38-.45-1.03-1.76-9.27-13.38-5.2-17.24,3.25-3.08,10.58,4.35,9.35,1.54-2.04-4.65-10.55-10.58-3.54-10.45,2.81.05,10.61,2.53,12.96,4.34.19.15,3.92,3.01,2.95.64-1.62-3.95-7.95-7.04-7.62-15.24.1-2.53-.03-13.53,14.94-18.38,2.64-.85,6.39.49,5.14-1.03ZM179.41,72.84c-.09-.07-.16-.14-.22-.22-.13-.19-.24-.47-.53-1-.02-.04-.04-.08-.07-.13.23-.24,1.69,1.06,1.71,1.38.02.32-.57.2-.89-.03ZM183.25,70.88c-.12.6-.14.89-.21,1.11-.03.1-.07.19-.14.28-.23.32-.76.6-.84.29s.93-1.99,1.22-1.83c-.01.05-.02.09-.03.14ZM235.21,12.52c-2,2.27-3.06,2.57-3.1,5.26-.03,1.84.03,2.61.15,3.83.57,5.97,7.79,7.54,9.73,7.85-21.65.21-21.69,2.49-49.66,10.79-1.43.42,1.41-1.19,5.61-4.51,26.1-20.57,26.26-19.63,37.38-23.38-.02.05-.05.1-.11.16ZM184.14,41.8c-1.68-4.57,5.45-10.19,11.08-19.36,1.63-2.67,6.61-14.53,13.29-18.82-2.94,10.78,2.41,14.94,9.42,14.53-7.85,4.5-19.79,14.93-22.57,16.93-1.04.75-2,1.43-2.86,2.04-.05.04-5.86,4.09-8.36,4.68ZM221.54,77.85c1.63,2.76,3.95,5.45,5.65,7.25-1.59-1.37-3.91-3.05-7.1-4.71-5.96-3.09-14.1-3.45-14.1-3.45-2.17-1.85-1.63-4.79-1.52-8.28,0,0,0,0,0,0,0,0,0,0,0-.02.02-.61.02-1.23,0-1.87.01-3.04.07-4.52.07-4.52,3.12,2.48,9.58,10.79,10.84,15.07,0,0-.07-4.11-4.32-10.54-4.82-7.3-6.73-8.87-10.89-13.05-3.23-3.26-10.16-6.25-13.08-7.42-.58-.57-.93-1.04-.95-1.34.93.24,2.86.48,6.64.65,12.84,3.46,28.07,17.53,34.47,21.71-5.09-1.01-8.59,5.68-5.73,10.52ZM225.61,63.34c.17.73.53,1.38.94,1.93-6.29-5.41-19.73-16.32-30.61-20.55,6.48.36,15.36,1.42,23.21,4.45,6.41,2.48,15.9,8.51,19.15,11.67-.08-.03-.15-.06-.25-.09-.33-.04-14.04-4.49-12.44,2.58ZM238.49,58.95c-3.53-3.46-8.83-6.06-9.65-6.6-2.4-1.56-15.07-9.83-34.31-10.22-2-.04.76-.56,18.07-6.13,17.88-5.76,30.23-4.46,35.37-4.19-3.88,2.49-17.1,10.74-9.48,27.15Z"/>
          <g>
            <path class="cls-6" d="M179.19,72.62c.06.08.13.16.22.22.32.23.9.35.89.03-.02-.32-1.48-1.62-1.71-1.38.03.05.05.08.07.13.29.53.4.81.53,1Z"/>
            <path class="cls-6" d="M182.9,72.27c.07-.09.11-.18.14-.28.07-.22.09-.52.21-1.11,0-.05.02-.09.03-.14-.29-.16-1.3,1.52-1.22,1.83.08.31.6.03.84-.29Z"/>
            <path class="cls-6" d="M183.64,80.88c.27-.04.41-.36.38-1.04l1.84-2.17c-.09-.4-.14-.72-.12-1.13.15-.11.09.25.21.15.56-.47,1.28-.81,1.19-1.86-.02-.22.03-.4.23-.38.51.03.39-.35.33-.7-.03-.2-.05-.41-.11-.61-.12-.41.12-.29.29-.27,0,0,0-.01,0-.02,0,0,0,0,0,0,.35-.18.15-.44.05-.7-.15-.39-.47-.63-.66-.98.34-.6.97-.56,1.54-.14.49.37.89.87,1.17.56.75-.85-2.48-2.34-2.73-2.45-.13-.06-.23-.11-.31-.16.76-.98,1.67-1.96,2.13-2.62.59-.86-.34-.25-1.35-.06-.69.13-1.26.34-1.75.64,0,0,0,0,0,0-.62.45-.92,1.1-1.06,1.81-.19,1-.06,2.14.01,3.08.08,1.05.07,1.86-.59,1.97,0-.03,0-.07,0-.1,0,.04-.02.08-.03.12-.08-.71-.17-1.4-.24-1.66-.01-.04-.02-.07-.03-.09-.02-.04-.06,0-.1.1-.25.55-.8,3.01-.72,4.11,0,0,0,.02,0,.02,0,0,0,0,0,.01,0,.02,0,.03,0,.05.01.11.02.21.03.31h0s0,0,0,0c.1.9.11,1.39.27,2.4.05.34-.06.53-.7.68l-.07-.44s.58-1.14-.07-1.04-.14,1.07-.14,1.07l.12.44c-.08.02-.18.03-.27.05-.01,0-.03,0-.04,0-.01,0-.02,0-.03,0-.02,0-.05,0-.07.01,0,0,0,0,0,0v.04s-.02,0-.03,0c-.01,0-.03,0-.04,0-.1.01-.19.03-.27.04l-.02-.46s.21-1.08-.45-.98.24,1.01.24,1.01l.07.44c-.66.05-.82-.1-.87-.44-.15-1.01-.29-1.48-.46-2.37,0,0,0,0,0,0h0c-.02-.1-.04-.2-.06-.31,0-.02,0-.03,0-.05,0,0,0,0,0-.01,0,0,0-.02,0-.02-.25-1.07-1.51-3.26-1.91-3.71-.07-.08-.12-.11-.13-.07,0,.02,0,.06,0,.1,0,.27.13.96.26,1.66-.02-.04-.04-.07-.06-.11,0,.03.02.06.03.1-.66.1-.91-.67-1.15-1.7-.21-.92-.42-2.05-.91-2.95-.34-.64-.83-1.16-1.55-1.41,0,0,0,0,0,0-.56-.14-1.17-.17-1.86-.08-1.02.12-2.09-.18-1.27.46.64.5,1.8,1.16,2.82,1.87-.06.07-.14.15-.25.25-.2.18-2.84,2.57-1.87,3.16.35.21.59-.39.95-.89.41-.57,1.01-.8,1.51-.33-.08.4-.31.71-.34,1.14-.02.27-.12.58.26.65,0,0,0,0,0,0,0,0,0,.01,0,.02.16-.07.35-.25.36.17,0,.21.05.41.08.62.05.35.05.75.53.57.19-.08.29.09.34.3.23,1.03,1.01,1.14,1.69,1.42.15.06-.02-.26.15-.2.15.39.19.7.23,1.11l2.4,1.52c.17.66.4.92.67.88s.71-.08,1.13-.17c.03,0,.07,0,.1-.01l1.14-.22Z"/>
          </g>
        </g>
        <path class="cls-5" d="M217.35,99.63c-.91-1.93-4.25-3.42-1.2-7.34.99-1.28,1.66-1.88,2.25-3.65.25-.74-.54-2.74-.37-2.87.25-.17,1.4,1.87,1.21,3.49-.32,2.79,3.3.88,8.04,6.06,7.09,7.75,5.2,20.6,4.22,23.45-.02-2.08,2.65-21.41-11.13-25.43-2.15-.63-3.56,3.36-3.07,4.96.22.7.36.7.04,1.32Z"/>
        <path class="cls-5" d="M186.08,75.62c.26-.7.46-.66,1.1-.27,1.96,1.18,3.2,5.2,3.27,5.37.94,2.06,2.39,8.12,10.6,9.25,4.05.55,4.12-4.61,6.28-5.05,3.71-.96-2.96.51-2.5,6.91-16.81,2.88-14.51-13.29-18.74-16.21Z"/>
        <path class="cls-7" d="M216.51,114.67c-.78.49-1.54.74-2.4.15-.26-.17-.55-.45-1.01-.3.52.65,1.21.91,1.88,1.14.65.21,1.14-.28,1.69-.64.03.43-.17.73-.25,1.06-.09.38-.27.66-.53.84-.02.02-.04.03-.06.04-.15.09-.32.15-.52.18-.15.02-.31.02-.48,0-1.24-.17-1.79-1.35-2.76-1.9,0,0-.02-.04-.02-.05-.19-.67-.5-1.7-.54-2.39.01-.32.02-.61.04-.89-.03.06-.06.12-.08.17.04-.48.08-.87.11-1.21v-.12c.02-.46.04-.89.1-1.34,0-.05,0-.1,0-.15.05-.4.13-.81.23-1.27.02-.09.04-.17.05-.26h0c.06-.26.12-.53.17-.8.05-.22.08-.43.11-.65v-.04c.03-.2.06-.41.09-.61,0,0,0,0,0,0,.08-.63.15-1.27.17-1.91.02-.4-.23-.9-.56-1.33-.02-.03-.05-.06-.07-.08-.33-.4-.69-.63-.93-.76.03.03.07.07.1.11.07.08.14.16.2.25.07.08.13.17.18.26.06.08.11.16.16.26.04.06.07.12.1.19.01.01.01.03.02.05.03.06.05.13.07.19.07.18.15.43.2.75.02.1.03.2.04.29.04.51-.08.96-.3,2.28-.03.14-.05.28-.08.44,0,.02,0,.03,0,.05-.01.07-.03.13-.05.2-.08.38-.27.69-.57,1.02l-.03.08c-.65.19-1.38.4-1.45.29-.15.15-.32.28-.44.44-.76,1-1.94,2.14-2.86,3.36-.07.09-.12.18-.19.26-.84,1.17-1.41,2.39-1.14,3.63-.24.47.44,1.32.68,1.7.06.09.14.19.22.27.27.2.43.56.81.35.31-.17-.1-.38-.09-.67.01-.17-.11-.34.07-.51.2.16.25.42.34.63.17.45.46.57.9.44.58-.17,2.29-2.58,2.74-3.09-.03-.46-.49-.66-1.55-.28-.22.08-1.11-1.53.99-1.32.49.05.74-.07.92-.33.03.27-.01.52-.41.68.12.19.29.18.44.18h0c.25.16.23.47.33.7.18.42.3.92.74,1.14.52.26.92.64,1.31,1.04.66.67,1.42.77,2.27.56.36-.09.71-.23.9-.58.29-.53.54-1.08.61-1.67.05-.3.04-.6-.02-.93-.44-.21-.44.29-.66.44Z"/>
      </g>
    </g>
  </g>
</svg>